<svg xmlns="http://www.w3.org/2000/svg" xmlns:xlink="http://www.w3.org/1999/xlink" width="734" zoomAndPan="magnify" viewBox="0 0 550.5 440.999989" height="588" preserveAspectRatio="xMidYMid meet" version="1.0"><defs><g/><clipPath id="3d89786681"><path d="M 284.136719 41.429688 L 492.382812 41.429688 L 492.382812 148.710938 L 284.136719 148.710938 Z M 284.136719 41.429688 " clip-rule="nonzero"/></clipPath><clipPath id="1ca8da6bdb"><path d="M 57.621094 297.992188 L 492.382812 297.992188 L 492.382812 399.570312 L 57.621094 399.570312 Z M 57.621094 297.992188 " clip-rule="nonzero"/></clipPath><clipPath id="68cc092e0f"><path d="M 284.136719 169.691406 L 492.382812 169.691406 L 492.382812 276.972656 L 284.136719 276.972656 Z M 284.136719 169.691406 " clip-rule="nonzero"/></clipPath><clipPath id="151d9a2e3d"><path d="M 57.621094 41.429688 L 265.867188 41.429688 L 265.867188 148.710938 L 57.621094 148.710938 Z M 57.621094 41.429688 " clip-rule="nonzero"/></clipPath><clipPath id="1f1c44ce0d"><path d="M 57.621094 169.710938 L 265.867188 169.710938 L 265.867188 276.992188 L 57.621094 276.992188 Z M 57.621094 169.710938 " clip-rule="nonzero"/></clipPath></defs><g clip-path="url(#3d89786681)"><path fill="#2c4dda" d="M 284.136719 41.429688 L 492.414062 41.429688 L 492.414062 148.710938 L 284.136719 148.710938 Z M 284.136719 41.429688 " fill-opacity="1" fill-rule="nonzero"/></g><g fill="#f7f7f7" fill-opacity="1"><g transform="translate(307.227944, 99.125487)"><g><path d="M 3.109375 -9.03125 C 4.117188 -9.03125 4.878906 -8.796875 5.390625 -8.328125 C 5.910156 -7.867188 6.171875 -7.171875 6.171875 -6.234375 C 6.171875 -5.273438 5.914062 -4.554688 5.40625 -4.078125 C 4.90625 -3.609375 4.21875 -3.375 3.34375 -3.375 L 2.40625 -3.375 L 2.40625 0 L 0.640625 0 L 0.640625 -9.03125 Z M 2.40625 -4.84375 L 2.796875 -4.84375 C 3.347656 -4.84375 3.75 -4.9375 4 -5.125 C 4.25 -5.3125 4.375 -5.6875 4.375 -6.25 C 4.375 -6.738281 4.25 -7.082031 4 -7.28125 C 3.757812 -7.476562 3.363281 -7.578125 2.8125 -7.578125 L 2.40625 -7.578125 Z M 2.40625 -4.84375 "/></g></g></g><g fill="#f7f7f7" fill-opacity="1"><g transform="translate(315.956026, 99.125487)"><g><path d="M 0.21875 -4.53125 C 0.21875 -5.4375 0.40625 -6.25 0.78125 -6.96875 C 1.164062 -7.6875 1.695312 -8.25 2.375 -8.65625 C 3.0625 -9.070312 3.832031 -9.28125 4.6875 -9.28125 C 5.550781 -9.28125 6.328125 -9.066406 7.015625 -8.640625 C 7.703125 -8.222656 8.226562 -7.648438 8.59375 -6.921875 C 8.96875 -6.203125 9.15625 -5.40625 9.15625 -4.53125 C 9.15625 -3.613281 8.960938 -2.789062 8.578125 -2.0625 C 8.203125 -1.332031 7.675781 -0.765625 7 -0.359375 C 6.320312 0.0351562 5.550781 0.234375 4.6875 0.234375 C 3.832031 0.234375 3.066406 0.0351562 2.390625 -0.359375 C 1.710938 -0.753906 1.179688 -1.316406 0.796875 -2.046875 C 0.410156 -2.785156 0.21875 -3.613281 0.21875 -4.53125 Z M 4.671875 -7.53125 C 3.921875 -7.53125 3.289062 -7.242188 2.78125 -6.671875 C 2.28125 -6.097656 2.03125 -5.410156 2.03125 -4.609375 C 2.03125 -3.703125 2.269531 -2.957031 2.75 -2.375 C 3.226562 -1.789062 3.875 -1.5 4.6875 -1.5 C 5.5 -1.5 6.140625 -1.789062 6.609375 -2.375 C 7.085938 -2.957031 7.328125 -3.703125 7.328125 -4.609375 C 7.328125 -5.421875 7.078125 -6.109375 6.578125 -6.671875 C 6.078125 -7.242188 5.441406 -7.53125 4.671875 -7.53125 Z M 4.671875 -7.53125 "/></g></g></g><g fill="#f7f7f7" fill-opacity="1"><g transform="translate(327.72935, 99.125487)"><g><path d="M 2.40625 -9.03125 L 2.40625 -1.53125 L 4.90625 -1.53125 L 4.90625 0 L 0.640625 0 L 0.640625 -9.03125 Z M 2.40625 -9.03125 "/></g></g></g><g fill="#f7f7f7" fill-opacity="1"><g transform="translate(334.946799, 99.125487)"><g><path d="M 2.40625 -9.03125 L 2.40625 0 L 0.640625 0 L 0.640625 -9.03125 Z M 2.40625 -9.03125 "/></g></g></g><g fill="#f7f7f7" fill-opacity="1"><g transform="translate(340.389864, 99.125487)"><g><path d="M 6.6875 -6.640625 C 6.4375 -6.941406 6.132812 -7.175781 5.78125 -7.34375 C 5.425781 -7.507812 5.066406 -7.59375 4.703125 -7.59375 C 3.929688 -7.59375 3.289062 -7.289062 2.78125 -6.6875 C 2.28125 -6.082031 2.03125 -5.347656 2.03125 -4.484375 C 2.03125 -3.640625 2.285156 -2.921875 2.796875 -2.328125 C 3.316406 -1.734375 3.945312 -1.4375 4.6875 -1.4375 C 5.070312 -1.4375 5.4375 -1.523438 5.78125 -1.703125 C 6.132812 -1.890625 6.4375 -2.117188 6.6875 -2.390625 L 6.6875 -0.296875 C 6.351562 -0.140625 6.019531 -0.015625 5.6875 0.078125 C 5.351562 0.179688 5.003906 0.234375 4.640625 0.234375 C 3.835938 0.234375 3.101562 0.03125 2.4375 -0.375 C 1.769531 -0.78125 1.234375 -1.347656 0.828125 -2.078125 C 0.421875 -2.816406 0.21875 -3.609375 0.21875 -4.453125 C 0.21875 -5.328125 0.410156 -6.132812 0.796875 -6.875 C 1.191406 -7.625 1.726562 -8.210938 2.40625 -8.640625 C 3.09375 -9.066406 3.847656 -9.28125 4.671875 -9.28125 C 5.035156 -9.28125 5.382812 -9.234375 5.71875 -9.140625 C 6.0625 -9.046875 6.382812 -8.914062 6.6875 -8.75 Z M 6.6875 -6.640625 "/></g></g></g><g fill="#f7f7f7" fill-opacity="1"><g transform="translate(349.993151, 99.125487)"><g><path d="M 1.859375 -9.03125 L 3.4375 -5.890625 L 5.171875 -9.03125 L 7.21875 -9.03125 L 4.375 -4.140625 L 4.375 0 L 2.609375 0 L 2.609375 -4.140625 L -0.1875 -9.03125 Z M 1.859375 -9.03125 "/></g></g></g><g fill="#f7f7f7" fill-opacity="1"><g transform="translate(359.428589, 99.125487)"><g/></g></g><g fill="#f7f7f7" fill-opacity="1"><g transform="translate(365.291267, 99.125487)"><g><path d="M 5.328125 -9.03125 L 5.328125 -7.5 L 2.40625 -7.5 L 2.40625 -5.515625 L 5.21875 -5.515625 L 5.21875 -3.984375 L 2.40625 -3.984375 L 2.40625 -1.53125 L 5.328125 -1.53125 L 5.328125 0 L 0.640625 0 L 0.640625 -9.03125 Z M 5.328125 -9.03125 "/></g></g></g><g fill="#f7f7f7" fill-opacity="1"><g transform="translate(373.539783, 99.125487)"><g><path d="M 1.921875 -9.28125 L 6.671875 -2.953125 L 6.703125 -2.953125 L 6.703125 -9.03125 L 8.46875 -9.03125 L 8.46875 0.1875 L 7.1875 0.1875 L 2.4375 -6.140625 L 2.40625 -6.140625 L 2.40625 0 L 0.640625 0 L 0.640625 -9.28125 Z M 1.921875 -9.28125 "/></g></g></g><g fill="#f7f7f7" fill-opacity="1"><g transform="translate(385.037358, 99.125487)"><g><path d="M 5.125 -9.03125 L 5.125 -7.5 L 2.40625 -7.5 L 2.40625 -5.515625 L 4.96875 -5.515625 L 4.96875 -3.984375 L 2.40625 -3.984375 L 2.40625 0 L 0.640625 0 L 0.640625 -9.03125 Z M 5.125 -9.03125 "/></g></g></g><g fill="#f7f7f7" fill-opacity="1"><g transform="translate(392.986151, 99.125487)"><g><path d="M 0.21875 -4.53125 C 0.21875 -5.4375 0.40625 -6.25 0.78125 -6.96875 C 1.164062 -7.6875 1.695312 -8.25 2.375 -8.65625 C 3.0625 -9.070312 3.832031 -9.28125 4.6875 -9.28125 C 5.550781 -9.28125 6.328125 -9.066406 7.015625 -8.640625 C 7.703125 -8.222656 8.226562 -7.648438 8.59375 -6.921875 C 8.96875 -6.203125 9.15625 -5.40625 9.15625 -4.53125 C 9.15625 -3.613281 8.960938 -2.789062 8.578125 -2.0625 C 8.203125 -1.332031 7.675781 -0.765625 7 -0.359375 C 6.320312 0.0351562 5.550781 0.234375 4.6875 0.234375 C 3.832031 0.234375 3.066406 0.0351562 2.390625 -0.359375 C 1.710938 -0.753906 1.179688 -1.316406 0.796875 -2.046875 C 0.410156 -2.785156 0.21875 -3.613281 0.21875 -4.53125 Z M 4.671875 -7.53125 C 3.921875 -7.53125 3.289062 -7.242188 2.78125 -6.671875 C 2.28125 -6.097656 2.03125 -5.410156 2.03125 -4.609375 C 2.03125 -3.703125 2.269531 -2.957031 2.75 -2.375 C 3.226562 -1.789062 3.875 -1.5 4.6875 -1.5 C 5.5 -1.5 6.140625 -1.789062 6.609375 -2.375 C 7.085938 -2.957031 7.328125 -3.703125 7.328125 -4.609375 C 7.328125 -5.421875 7.078125 -6.109375 6.578125 -6.671875 C 6.078125 -7.242188 5.441406 -7.53125 4.671875 -7.53125 Z M 4.671875 -7.53125 "/></g></g></g><g fill="#f7f7f7" fill-opacity="1"><g transform="translate(404.759473, 99.125487)"><g><path d="M 3.078125 -9.03125 C 4.023438 -9.03125 4.753906 -8.796875 5.265625 -8.328125 C 5.785156 -7.867188 6.046875 -7.195312 6.046875 -6.3125 C 6.046875 -5.675781 5.875 -5.117188 5.53125 -4.640625 C 5.1875 -4.171875 4.742188 -3.894531 4.203125 -3.8125 L 6.765625 0 L 4.625 0 L 2.4375 -3.640625 L 2.40625 -3.640625 L 2.40625 0 L 0.640625 0 L 0.640625 -9.03125 Z M 2.40625 -4.875 L 2.59375 -4.875 C 3.207031 -4.875 3.644531 -4.984375 3.90625 -5.203125 C 4.164062 -5.429688 4.296875 -5.785156 4.296875 -6.265625 C 4.296875 -6.734375 4.164062 -7.070312 3.90625 -7.28125 C 3.644531 -7.488281 3.21875 -7.59375 2.625 -7.59375 L 2.40625 -7.59375 Z M 2.40625 -4.875 "/></g></g></g><g fill="#f7f7f7" fill-opacity="1"><g transform="translate(413.847235, 99.125487)"><g><path d="M 6.6875 -6.640625 C 6.4375 -6.941406 6.132812 -7.175781 5.78125 -7.34375 C 5.425781 -7.507812 5.066406 -7.59375 4.703125 -7.59375 C 3.929688 -7.59375 3.289062 -7.289062 2.78125 -6.6875 C 2.28125 -6.082031 2.03125 -5.347656 2.03125 -4.484375 C 2.03125 -3.640625 2.285156 -2.921875 2.796875 -2.328125 C 3.316406 -1.734375 3.945312 -1.4375 4.6875 -1.4375 C 5.070312 -1.4375 5.4375 -1.523438 5.78125 -1.703125 C 6.132812 -1.890625 6.4375 -2.117188 6.6875 -2.390625 L 6.6875 -0.296875 C 6.351562 -0.140625 6.019531 -0.015625 5.6875 0.078125 C 5.351562 0.179688 5.003906 0.234375 4.640625 0.234375 C 3.835938 0.234375 3.101562 0.03125 2.4375 -0.375 C 1.769531 -0.78125 1.234375 -1.347656 0.828125 -2.078125 C 0.421875 -2.816406 0.21875 -3.609375 0.21875 -4.453125 C 0.21875 -5.328125 0.410156 -6.132812 0.796875 -6.875 C 1.191406 -7.625 1.726562 -8.210938 2.40625 -8.640625 C 3.09375 -9.066406 3.847656 -9.28125 4.671875 -9.28125 C 5.035156 -9.28125 5.382812 -9.234375 5.71875 -9.140625 C 6.0625 -9.046875 6.382812 -8.914062 6.6875 -8.75 Z M 6.6875 -6.640625 "/></g></g></g><g fill="#f7f7f7" fill-opacity="1"><g transform="translate(423.450519, 99.125487)"><g><path d="M 5.328125 -9.03125 L 5.328125 -7.5 L 2.40625 -7.5 L 2.40625 -5.515625 L 5.21875 -5.515625 L 5.21875 -3.984375 L 2.40625 -3.984375 L 2.40625 -1.53125 L 5.328125 -1.53125 L 5.328125 0 L 0.640625 0 L 0.640625 -9.03125 Z M 5.328125 -9.03125 "/></g></g></g><g fill="#f7f7f7" fill-opacity="1"><g transform="translate(431.699035, 99.125487)"><g><path d="M 2.90625 -9.28125 L 5.125 -3.3125 L 7.265625 -9.28125 L 8.53125 -9.28125 L 9.890625 0 L 8.109375 0 L 7.390625 -5.609375 L 7.375 -5.609375 L 5.328125 0.125 L 4.703125 0.125 L 2.734375 -5.609375 L 2.703125 -5.609375 L 1.90625 0 L 0.125 0 L 1.65625 -9.28125 Z M 2.90625 -9.28125 "/></g></g></g><g fill="#f7f7f7" fill-opacity="1"><g transform="translate(444.119768, 99.125487)"><g><path d="M 5.328125 -9.03125 L 5.328125 -7.5 L 2.40625 -7.5 L 2.40625 -5.515625 L 5.21875 -5.515625 L 5.21875 -3.984375 L 2.40625 -3.984375 L 2.40625 -1.53125 L 5.328125 -1.53125 L 5.328125 0 L 0.640625 0 L 0.640625 -9.03125 Z M 5.328125 -9.03125 "/></g></g></g><g fill="#f7f7f7" fill-opacity="1"><g transform="translate(452.368284, 99.125487)"><g><path d="M 1.921875 -9.28125 L 6.671875 -2.953125 L 6.703125 -2.953125 L 6.703125 -9.03125 L 8.46875 -9.03125 L 8.46875 0.1875 L 7.1875 0.1875 L 2.4375 -6.140625 L 2.40625 -6.140625 L 2.40625 0 L 0.640625 0 L 0.640625 -9.28125 Z M 1.921875 -9.28125 "/></g></g></g><g fill="#f7f7f7" fill-opacity="1"><g transform="translate(463.865859, 99.125487)"><g><path d="M 5.40625 -9.03125 L 5.40625 -7.5 L 3.578125 -7.5 L 3.578125 0 L 1.828125 0 L 1.828125 -7.5 L 0 -7.5 L 0 -9.03125 Z M 5.40625 -9.03125 "/></g></g></g><g clip-path="url(#1ca8da6bdb)"><path fill="#743290" d="M 57.621094 297.992188 L 492.515625 297.992188 L 492.515625 399.570312 L 57.621094 399.570312 Z M 57.621094 297.992188 " fill-opacity="1" fill-rule="nonzero"/></g><g fill="#f7f7f7" fill-opacity="1"><g transform="translate(186.752711, 352.690903)"><g><path d="M 3.109375 -9.03125 C 4.117188 -9.03125 4.878906 -8.796875 5.390625 -8.328125 C 5.910156 -7.867188 6.171875 -7.171875 6.171875 -6.234375 C 6.171875 -5.273438 5.914062 -4.554688 5.40625 -4.078125 C 4.90625 -3.609375 4.21875 -3.375 3.34375 -3.375 L 2.40625 -3.375 L 2.40625 0 L 0.640625 0 L 0.640625 -9.03125 Z M 2.40625 -4.84375 L 2.796875 -4.84375 C 3.347656 -4.84375 3.75 -4.9375 4 -5.125 C 4.25 -5.3125 4.375 -5.6875 4.375 -6.25 C 4.375 -6.738281 4.25 -7.082031 4 -7.28125 C 3.757812 -7.476562 3.363281 -7.578125 2.8125 -7.578125 L 2.40625 -7.578125 Z M 2.40625 -4.84375 "/></g></g></g><g fill="#f7f7f7" fill-opacity="1"><g transform="translate(195.480793, 352.690903)"><g><path d="M 0.21875 -4.53125 C 0.21875 -5.4375 0.40625 -6.25 0.78125 -6.96875 C 1.164062 -7.6875 1.695312 -8.25 2.375 -8.65625 C 3.0625 -9.070312 3.832031 -9.28125 4.6875 -9.28125 C 5.550781 -9.28125 6.328125 -9.066406 7.015625 -8.640625 C 7.703125 -8.222656 8.226562 -7.648438 8.59375 -6.921875 C 8.96875 -6.203125 9.15625 -5.40625 9.15625 -4.53125 C 9.15625 -3.613281 8.960938 -2.789062 8.578125 -2.0625 C 8.203125 -1.332031 7.675781 -0.765625 7 -0.359375 C 6.320312 0.0351562 5.550781 0.234375 4.6875 0.234375 C 3.832031 0.234375 3.066406 0.0351562 2.390625 -0.359375 C 1.710938 -0.753906 1.179688 -1.316406 0.796875 -2.046875 C 0.410156 -2.785156 0.21875 -3.613281 0.21875 -4.53125 Z M 4.671875 -7.53125 C 3.921875 -7.53125 3.289062 -7.242188 2.78125 -6.671875 C 2.28125 -6.097656 2.03125 -5.410156 2.03125 -4.609375 C 2.03125 -3.703125 2.269531 -2.957031 2.75 -2.375 C 3.226562 -1.789062 3.875 -1.5 4.6875 -1.5 C 5.5 -1.5 6.140625 -1.789062 6.609375 -2.375 C 7.085938 -2.957031 7.328125 -3.703125 7.328125 -4.609375 C 7.328125 -5.421875 7.078125 -6.109375 6.578125 -6.671875 C 6.078125 -7.242188 5.441406 -7.53125 4.671875 -7.53125 Z M 4.671875 -7.53125 "/></g></g></g><g fill="#f7f7f7" fill-opacity="1"><g transform="translate(207.254117, 352.690903)"><g><path d="M 2.40625 -9.03125 L 2.40625 -1.53125 L 4.90625 -1.53125 L 4.90625 0 L 0.640625 0 L 0.640625 -9.03125 Z M 2.40625 -9.03125 "/></g></g></g><g fill="#f7f7f7" fill-opacity="1"><g transform="translate(214.471566, 352.690903)"><g><path d="M 2.40625 -9.03125 L 2.40625 0 L 0.640625 0 L 0.640625 -9.03125 Z M 2.40625 -9.03125 "/></g></g></g><g fill="#f7f7f7" fill-opacity="1"><g transform="translate(219.91463, 352.690903)"><g><path d="M 6.6875 -6.640625 C 6.4375 -6.941406 6.132812 -7.175781 5.78125 -7.34375 C 5.425781 -7.507812 5.066406 -7.59375 4.703125 -7.59375 C 3.929688 -7.59375 3.289062 -7.289062 2.78125 -6.6875 C 2.28125 -6.082031 2.03125 -5.347656 2.03125 -4.484375 C 2.03125 -3.640625 2.285156 -2.921875 2.796875 -2.328125 C 3.316406 -1.734375 3.945312 -1.4375 4.6875 -1.4375 C 5.070312 -1.4375 5.4375 -1.523438 5.78125 -1.703125 C 6.132812 -1.890625 6.4375 -2.117188 6.6875 -2.390625 L 6.6875 -0.296875 C 6.351562 -0.140625 6.019531 -0.015625 5.6875 0.078125 C 5.351562 0.179688 5.003906 0.234375 4.640625 0.234375 C 3.835938 0.234375 3.101562 0.03125 2.4375 -0.375 C 1.769531 -0.78125 1.234375 -1.347656 0.828125 -2.078125 C 0.421875 -2.816406 0.21875 -3.609375 0.21875 -4.453125 C 0.21875 -5.328125 0.410156 -6.132812 0.796875 -6.875 C 1.191406 -7.625 1.726562 -8.210938 2.40625 -8.640625 C 3.09375 -9.066406 3.847656 -9.28125 4.671875 -9.28125 C 5.035156 -9.28125 5.382812 -9.234375 5.71875 -9.140625 C 6.0625 -9.046875 6.382812 -8.914062 6.6875 -8.75 Z M 6.6875 -6.640625 "/></g></g></g><g fill="#f7f7f7" fill-opacity="1"><g transform="translate(229.517917, 352.690903)"><g><path d="M 1.859375 -9.03125 L 3.4375 -5.890625 L 5.171875 -9.03125 L 7.21875 -9.03125 L 4.375 -4.140625 L 4.375 0 L 2.609375 0 L 2.609375 -4.140625 L -0.1875 -9.03125 Z M 1.859375 -9.03125 "/></g></g></g><g fill="#f7f7f7" fill-opacity="1"><g transform="translate(238.953355, 352.690903)"><g/></g></g><g fill="#f7f7f7" fill-opacity="1"><g transform="translate(244.816034, 352.690903)"><g><path d="M 6.6875 -6.640625 C 6.4375 -6.941406 6.132812 -7.175781 5.78125 -7.34375 C 5.425781 -7.507812 5.066406 -7.59375 4.703125 -7.59375 C 3.929688 -7.59375 3.289062 -7.289062 2.78125 -6.6875 C 2.28125 -6.082031 2.03125 -5.347656 2.03125 -4.484375 C 2.03125 -3.640625 2.285156 -2.921875 2.796875 -2.328125 C 3.316406 -1.734375 3.945312 -1.4375 4.6875 -1.4375 C 5.070312 -1.4375 5.4375 -1.523438 5.78125 -1.703125 C 6.132812 -1.890625 6.4375 -2.117188 6.6875 -2.390625 L 6.6875 -0.296875 C 6.351562 -0.140625 6.019531 -0.015625 5.6875 0.078125 C 5.351562 0.179688 5.003906 0.234375 4.640625 0.234375 C 3.835938 0.234375 3.101562 0.03125 2.4375 -0.375 C 1.769531 -0.78125 1.234375 -1.347656 0.828125 -2.078125 C 0.421875 -2.816406 0.21875 -3.609375 0.21875 -4.453125 C 0.21875 -5.328125 0.410156 -6.132812 0.796875 -6.875 C 1.191406 -7.625 1.726562 -8.210938 2.40625 -8.640625 C 3.09375 -9.066406 3.847656 -9.28125 4.671875 -9.28125 C 5.035156 -9.28125 5.382812 -9.234375 5.71875 -9.140625 C 6.0625 -9.046875 6.382812 -8.914062 6.6875 -8.75 Z M 6.6875 -6.640625 "/></g></g></g><g fill="#f7f7f7" fill-opacity="1"><g transform="translate(254.419318, 352.690903)"><g><path d="M 0.21875 -4.53125 C 0.21875 -5.4375 0.40625 -6.25 0.78125 -6.96875 C 1.164062 -7.6875 1.695312 -8.25 2.375 -8.65625 C 3.0625 -9.070312 3.832031 -9.28125 4.6875 -9.28125 C 5.550781 -9.28125 6.328125 -9.066406 7.015625 -8.640625 C 7.703125 -8.222656 8.226562 -7.648438 8.59375 -6.921875 C 8.96875 -6.203125 9.15625 -5.40625 9.15625 -4.53125 C 9.15625 -3.613281 8.960938 -2.789062 8.578125 -2.0625 C 8.203125 -1.332031 7.675781 -0.765625 7 -0.359375 C 6.320312 0.0351562 5.550781 0.234375 4.6875 0.234375 C 3.832031 0.234375 3.066406 0.0351562 2.390625 -0.359375 C 1.710938 -0.753906 1.179688 -1.316406 0.796875 -2.046875 C 0.410156 -2.785156 0.21875 -3.613281 0.21875 -4.53125 Z M 4.671875 -7.53125 C 3.921875 -7.53125 3.289062 -7.242188 2.78125 -6.671875 C 2.28125 -6.097656 2.03125 -5.410156 2.03125 -4.609375 C 2.03125 -3.703125 2.269531 -2.957031 2.75 -2.375 C 3.226562 -1.789062 3.875 -1.5 4.6875 -1.5 C 5.5 -1.5 6.140625 -1.789062 6.609375 -2.375 C 7.085938 -2.957031 7.328125 -3.703125 7.328125 -4.609375 C 7.328125 -5.421875 7.078125 -6.109375 6.578125 -6.671875 C 6.078125 -7.242188 5.441406 -7.53125 4.671875 -7.53125 Z M 4.671875 -7.53125 "/></g></g></g><g fill="#f7f7f7" fill-opacity="1"><g transform="translate(266.19264, 352.690903)"><g><path d="M 1.921875 -9.28125 L 6.671875 -2.953125 L 6.703125 -2.953125 L 6.703125 -9.03125 L 8.46875 -9.03125 L 8.46875 0.1875 L 7.1875 0.1875 L 2.4375 -6.140625 L 2.40625 -6.140625 L 2.40625 0 L 0.640625 0 L 0.640625 -9.28125 Z M 1.921875 -9.28125 "/></g></g></g><g fill="#f7f7f7" fill-opacity="1"><g transform="translate(277.690215, 352.690903)"><g><path d="M 5.40625 -9.03125 L 5.40625 -7.5 L 3.578125 -7.5 L 3.578125 0 L 1.828125 0 L 1.828125 -7.5 L 0 -7.5 L 0 -9.03125 Z M 5.40625 -9.03125 "/></g></g></g><g fill="#f7f7f7" fill-opacity="1"><g transform="translate(285.495138, 352.690903)"><g><path d="M 3.078125 -9.03125 C 4.023438 -9.03125 4.753906 -8.796875 5.265625 -8.328125 C 5.785156 -7.867188 6.046875 -7.195312 6.046875 -6.3125 C 6.046875 -5.675781 5.875 -5.117188 5.53125 -4.640625 C 5.1875 -4.171875 4.742188 -3.894531 4.203125 -3.8125 L 6.765625 0 L 4.625 0 L 2.4375 -3.640625 L 2.40625 -3.640625 L 2.40625 0 L 0.640625 0 L 0.640625 -9.03125 Z M 2.40625 -4.875 L 2.59375 -4.875 C 3.207031 -4.875 3.644531 -4.984375 3.90625 -5.203125 C 4.164062 -5.429688 4.296875 -5.785156 4.296875 -6.265625 C 4.296875 -6.734375 4.164062 -7.070312 3.90625 -7.28125 C 3.644531 -7.488281 3.21875 -7.59375 2.625 -7.59375 L 2.40625 -7.59375 Z M 2.40625 -4.875 "/></g></g></g><g fill="#f7f7f7" fill-opacity="1"><g transform="translate(294.582899, 352.690903)"><g><path d="M 0.21875 -4.53125 C 0.21875 -5.4375 0.40625 -6.25 0.78125 -6.96875 C 1.164062 -7.6875 1.695312 -8.25 2.375 -8.65625 C 3.0625 -9.070312 3.832031 -9.28125 4.6875 -9.28125 C 5.550781 -9.28125 6.328125 -9.066406 7.015625 -8.640625 C 7.703125 -8.222656 8.226562 -7.648438 8.59375 -6.921875 C 8.96875 -6.203125 9.15625 -5.40625 9.15625 -4.53125 C 9.15625 -3.613281 8.960938 -2.789062 8.578125 -2.0625 C 8.203125 -1.332031 7.675781 -0.765625 7 -0.359375 C 6.320312 0.0351562 5.550781 0.234375 4.6875 0.234375 C 3.832031 0.234375 3.066406 0.0351562 2.390625 -0.359375 C 1.710938 -0.753906 1.179688 -1.316406 0.796875 -2.046875 C 0.410156 -2.785156 0.21875 -3.613281 0.21875 -4.53125 Z M 4.671875 -7.53125 C 3.921875 -7.53125 3.289062 -7.242188 2.78125 -6.671875 C 2.28125 -6.097656 2.03125 -5.410156 2.03125 -4.609375 C 2.03125 -3.703125 2.269531 -2.957031 2.75 -2.375 C 3.226562 -1.789062 3.875 -1.5 4.6875 -1.5 C 5.5 -1.5 6.140625 -1.789062 6.609375 -2.375 C 7.085938 -2.957031 7.328125 -3.703125 7.328125 -4.609375 C 7.328125 -5.421875 7.078125 -6.109375 6.578125 -6.671875 C 6.078125 -7.242188 5.441406 -7.53125 4.671875 -7.53125 Z M 4.671875 -7.53125 "/></g></g></g><g fill="#f7f7f7" fill-opacity="1"><g transform="translate(306.356221, 352.690903)"><g><path d="M 2.40625 -9.03125 L 2.40625 -1.53125 L 4.90625 -1.53125 L 4.90625 0 L 0.640625 0 L 0.640625 -9.03125 Z M 2.40625 -9.03125 "/></g></g></g><g fill="#f7f7f7" fill-opacity="1"><g transform="translate(313.573668, 352.690903)"><g/></g></g><g fill="#f7f7f7" fill-opacity="1"><g transform="translate(319.436347, 352.690903)"><g><path d="M 3.109375 -9.03125 C 4.117188 -9.03125 4.878906 -8.796875 5.390625 -8.328125 C 5.910156 -7.867188 6.171875 -7.171875 6.171875 -6.234375 C 6.171875 -5.273438 5.914062 -4.554688 5.40625 -4.078125 C 4.90625 -3.609375 4.21875 -3.375 3.34375 -3.375 L 2.40625 -3.375 L 2.40625 0 L 0.640625 0 L 0.640625 -9.03125 Z M 2.40625 -4.84375 L 2.796875 -4.84375 C 3.347656 -4.84375 3.75 -4.9375 4 -5.125 C 4.25 -5.3125 4.375 -5.6875 4.375 -6.25 C 4.375 -6.738281 4.25 -7.082031 4 -7.28125 C 3.757812 -7.476562 3.363281 -7.578125 2.8125 -7.578125 L 2.40625 -7.578125 Z M 2.40625 -4.84375 "/></g></g></g><g fill="#f7f7f7" fill-opacity="1"><g transform="translate(328.164427, 352.690903)"><g><path d="M 2.40625 -9.03125 L 2.40625 -1.53125 L 4.90625 -1.53125 L 4.90625 0 L 0.640625 0 L 0.640625 -9.03125 Z M 2.40625 -9.03125 "/></g></g></g><g fill="#f7f7f7" fill-opacity="1"><g transform="translate(335.381874, 352.690903)"><g><path d="M 4.78125 -9.28125 L 8.203125 0 L 6.328125 0 L 5.625 -1.90625 L 2.5 -1.90625 L 1.75 0 L -0.109375 0 L 3.421875 -9.28125 Z M 3 -3.34375 L 5.140625 -3.34375 L 4.015625 -6.625 L 3.984375 -6.625 Z M 3 -3.34375 "/></g></g></g><g fill="#f7f7f7" fill-opacity="1"><g transform="translate(345.884351, 352.690903)"><g><path d="M 1.921875 -9.28125 L 6.671875 -2.953125 L 6.703125 -2.953125 L 6.703125 -9.03125 L 8.46875 -9.03125 L 8.46875 0.1875 L 7.1875 0.1875 L 2.4375 -6.140625 L 2.40625 -6.140625 L 2.40625 0 L 0.640625 0 L 0.640625 -9.28125 Z M 1.921875 -9.28125 "/></g></g></g><g fill="#f7f7f7" fill-opacity="1"><g transform="translate(357.381926, 352.690903)"><g><path d="M 5.328125 -9.03125 L 5.328125 -7.5 L 2.40625 -7.5 L 2.40625 -5.515625 L 5.21875 -5.515625 L 5.21875 -3.984375 L 2.40625 -3.984375 L 2.40625 -1.53125 L 5.328125 -1.53125 L 5.328125 0 L 0.640625 0 L 0.640625 -9.03125 Z M 5.328125 -9.03125 "/></g></g></g><g clip-path="url(#68cc092e0f)"><path fill="#2c4dda" d="M 284.136719 169.691406 L 492.414062 169.691406 L 492.414062 276.972656 L 284.136719 276.972656 Z M 284.136719 169.691406 " fill-opacity="1" fill-rule="nonzero"/></g><g fill="#f7f7f7" fill-opacity="1"><g transform="translate(315.376793, 227.388659)"><g><path d="M 3.109375 -9.03125 C 4.117188 -9.03125 4.878906 -8.796875 5.390625 -8.328125 C 5.910156 -7.867188 6.171875 -7.171875 6.171875 -6.234375 C 6.171875 -5.273438 5.914062 -4.554688 5.40625 -4.078125 C 4.90625 -3.609375 4.21875 -3.375 3.34375 -3.375 L 2.40625 -3.375 L 2.40625 0 L 0.640625 0 L 0.640625 -9.03125 Z M 2.40625 -4.84375 L 2.796875 -4.84375 C 3.347656 -4.84375 3.75 -4.9375 4 -5.125 C 4.25 -5.3125 4.375 -5.6875 4.375 -6.25 C 4.375 -6.738281 4.25 -7.082031 4 -7.28125 C 3.757812 -7.476562 3.363281 -7.578125 2.8125 -7.578125 L 2.40625 -7.578125 Z M 2.40625 -4.84375 "/></g></g></g><g fill="#f7f7f7" fill-opacity="1"><g transform="translate(324.104875, 227.388659)"><g><path d="M 0.21875 -4.53125 C 0.21875 -5.4375 0.40625 -6.25 0.78125 -6.96875 C 1.164062 -7.6875 1.695312 -8.25 2.375 -8.65625 C 3.0625 -9.070312 3.832031 -9.28125 4.6875 -9.28125 C 5.550781 -9.28125 6.328125 -9.066406 7.015625 -8.640625 C 7.703125 -8.222656 8.226562 -7.648438 8.59375 -6.921875 C 8.96875 -6.203125 9.15625 -5.40625 9.15625 -4.53125 C 9.15625 -3.613281 8.960938 -2.789062 8.578125 -2.0625 C 8.203125 -1.332031 7.675781 -0.765625 7 -0.359375 C 6.320312 0.0351562 5.550781 0.234375 4.6875 0.234375 C 3.832031 0.234375 3.066406 0.0351562 2.390625 -0.359375 C 1.710938 -0.753906 1.179688 -1.316406 0.796875 -2.046875 C 0.410156 -2.785156 0.21875 -3.613281 0.21875 -4.53125 Z M 4.671875 -7.53125 C 3.921875 -7.53125 3.289062 -7.242188 2.78125 -6.671875 C 2.28125 -6.097656 2.03125 -5.410156 2.03125 -4.609375 C 2.03125 -3.703125 2.269531 -2.957031 2.75 -2.375 C 3.226562 -1.789062 3.875 -1.5 4.6875 -1.5 C 5.5 -1.5 6.140625 -1.789062 6.609375 -2.375 C 7.085938 -2.957031 7.328125 -3.703125 7.328125 -4.609375 C 7.328125 -5.421875 7.078125 -6.109375 6.578125 -6.671875 C 6.078125 -7.242188 5.441406 -7.53125 4.671875 -7.53125 Z M 4.671875 -7.53125 "/></g></g></g><g fill="#f7f7f7" fill-opacity="1"><g transform="translate(335.878199, 227.388659)"><g><path d="M 2.40625 -9.03125 L 2.40625 -1.53125 L 4.90625 -1.53125 L 4.90625 0 L 0.640625 0 L 0.640625 -9.03125 Z M 2.40625 -9.03125 "/></g></g></g><g fill="#f7f7f7" fill-opacity="1"><g transform="translate(343.095647, 227.388659)"><g><path d="M 2.40625 -9.03125 L 2.40625 0 L 0.640625 0 L 0.640625 -9.03125 Z M 2.40625 -9.03125 "/></g></g></g><g fill="#f7f7f7" fill-opacity="1"><g transform="translate(348.538712, 227.388659)"><g><path d="M 6.6875 -6.640625 C 6.4375 -6.941406 6.132812 -7.175781 5.78125 -7.34375 C 5.425781 -7.507812 5.066406 -7.59375 4.703125 -7.59375 C 3.929688 -7.59375 3.289062 -7.289062 2.78125 -6.6875 C 2.28125 -6.082031 2.03125 -5.347656 2.03125 -4.484375 C 2.03125 -3.640625 2.285156 -2.921875 2.796875 -2.328125 C 3.316406 -1.734375 3.945312 -1.4375 4.6875 -1.4375 C 5.070312 -1.4375 5.4375 -1.523438 5.78125 -1.703125 C 6.132812 -1.890625 6.4375 -2.117188 6.6875 -2.390625 L 6.6875 -0.296875 C 6.351562 -0.140625 6.019531 -0.015625 5.6875 0.078125 C 5.351562 0.179688 5.003906 0.234375 4.640625 0.234375 C 3.835938 0.234375 3.101562 0.03125 2.4375 -0.375 C 1.769531 -0.78125 1.234375 -1.347656 0.828125 -2.078125 C 0.421875 -2.816406 0.21875 -3.609375 0.21875 -4.453125 C 0.21875 -5.328125 0.410156 -6.132812 0.796875 -6.875 C 1.191406 -7.625 1.726562 -8.210938 2.40625 -8.640625 C 3.09375 -9.066406 3.847656 -9.28125 4.671875 -9.28125 C 5.035156 -9.28125 5.382812 -9.234375 5.71875 -9.140625 C 6.0625 -9.046875 6.382812 -8.914062 6.6875 -8.75 Z M 6.6875 -6.640625 "/></g></g></g><g fill="#f7f7f7" fill-opacity="1"><g transform="translate(358.141999, 227.388659)"><g><path d="M 1.859375 -9.03125 L 3.4375 -5.890625 L 5.171875 -9.03125 L 7.21875 -9.03125 L 4.375 -4.140625 L 4.375 0 L 2.609375 0 L 2.609375 -4.140625 L -0.1875 -9.03125 Z M 1.859375 -9.03125 "/></g></g></g><g fill="#f7f7f7" fill-opacity="1"><g transform="translate(367.577437, 227.388659)"><g/></g></g><g fill="#f7f7f7" fill-opacity="1"><g transform="translate(373.440116, 227.388659)"><g><path d="M 3.078125 -9.03125 C 4.023438 -9.03125 4.753906 -8.796875 5.265625 -8.328125 C 5.785156 -7.867188 6.046875 -7.195312 6.046875 -6.3125 C 6.046875 -5.675781 5.875 -5.117188 5.53125 -4.640625 C 5.1875 -4.171875 4.742188 -3.894531 4.203125 -3.8125 L 6.765625 0 L 4.625 0 L 2.4375 -3.640625 L 2.40625 -3.640625 L 2.40625 0 L 0.640625 0 L 0.640625 -9.03125 Z M 2.40625 -4.875 L 2.59375 -4.875 C 3.207031 -4.875 3.644531 -4.984375 3.90625 -5.203125 C 4.164062 -5.429688 4.296875 -5.785156 4.296875 -6.265625 C 4.296875 -6.734375 4.164062 -7.070312 3.90625 -7.28125 C 3.644531 -7.488281 3.21875 -7.59375 2.625 -7.59375 L 2.40625 -7.59375 Z M 2.40625 -4.875 "/></g></g></g><g fill="#f7f7f7" fill-opacity="1"><g transform="translate(382.527877, 227.388659)"><g><path d="M 5.328125 -9.03125 L 5.328125 -7.5 L 2.40625 -7.5 L 2.40625 -5.515625 L 5.21875 -5.515625 L 5.21875 -3.984375 L 2.40625 -3.984375 L 2.40625 -1.53125 L 5.328125 -1.53125 L 5.328125 0 L 0.640625 0 L 0.640625 -9.03125 Z M 5.328125 -9.03125 "/></g></g></g><g fill="#f7f7f7" fill-opacity="1"><g transform="translate(390.776393, 227.388659)"><g><path d="M 3.109375 -9.03125 C 4.117188 -9.03125 4.878906 -8.796875 5.390625 -8.328125 C 5.910156 -7.867188 6.171875 -7.171875 6.171875 -6.234375 C 6.171875 -5.273438 5.914062 -4.554688 5.40625 -4.078125 C 4.90625 -3.609375 4.21875 -3.375 3.34375 -3.375 L 2.40625 -3.375 L 2.40625 0 L 0.640625 0 L 0.640625 -9.03125 Z M 2.40625 -4.84375 L 2.796875 -4.84375 C 3.347656 -4.84375 3.75 -4.9375 4 -5.125 C 4.25 -5.3125 4.375 -5.6875 4.375 -6.25 C 4.375 -6.738281 4.25 -7.082031 4 -7.28125 C 3.757812 -7.476562 3.363281 -7.578125 2.8125 -7.578125 L 2.40625 -7.578125 Z M 2.40625 -4.84375 "/></g></g></g><g fill="#f7f7f7" fill-opacity="1"><g transform="translate(399.504473, 227.388659)"><g><path d="M 0.21875 -4.53125 C 0.21875 -5.4375 0.40625 -6.25 0.78125 -6.96875 C 1.164062 -7.6875 1.695312 -8.25 2.375 -8.65625 C 3.0625 -9.070312 3.832031 -9.28125 4.6875 -9.28125 C 5.550781 -9.28125 6.328125 -9.066406 7.015625 -8.640625 C 7.703125 -8.222656 8.226562 -7.648438 8.59375 -6.921875 C 8.96875 -6.203125 9.15625 -5.40625 9.15625 -4.53125 C 9.15625 -3.613281 8.960938 -2.789062 8.578125 -2.0625 C 8.203125 -1.332031 7.675781 -0.765625 7 -0.359375 C 6.320312 0.0351562 5.550781 0.234375 4.6875 0.234375 C 3.832031 0.234375 3.066406 0.0351562 2.390625 -0.359375 C 1.710938 -0.753906 1.179688 -1.316406 0.796875 -2.046875 C 0.410156 -2.785156 0.21875 -3.613281 0.21875 -4.53125 Z M 4.671875 -7.53125 C 3.921875 -7.53125 3.289062 -7.242188 2.78125 -6.671875 C 2.28125 -6.097656 2.03125 -5.410156 2.03125 -4.609375 C 2.03125 -3.703125 2.269531 -2.957031 2.75 -2.375 C 3.226562 -1.789062 3.875 -1.5 4.6875 -1.5 C 5.5 -1.5 6.140625 -1.789062 6.609375 -2.375 C 7.085938 -2.957031 7.328125 -3.703125 7.328125 -4.609375 C 7.328125 -5.421875 7.078125 -6.109375 6.578125 -6.671875 C 6.078125 -7.242188 5.441406 -7.53125 4.671875 -7.53125 Z M 4.671875 -7.53125 "/></g></g></g><g fill="#f7f7f7" fill-opacity="1"><g transform="translate(411.277795, 227.388659)"><g><path d="M 4.90625 -7.046875 C 4.738281 -7.273438 4.539062 -7.457031 4.3125 -7.59375 C 4.09375 -7.726562 3.835938 -7.796875 3.546875 -7.796875 C 3.242188 -7.796875 2.984375 -7.691406 2.765625 -7.484375 C 2.546875 -7.285156 2.4375 -7.046875 2.4375 -6.765625 C 2.4375 -6.515625 2.539062 -6.296875 2.75 -6.109375 C 2.96875 -5.929688 3.285156 -5.765625 3.703125 -5.609375 C 4.421875 -5.316406 4.929688 -5.03125 5.234375 -4.75 C 5.535156 -4.476562 5.742188 -4.1875 5.859375 -3.875 C 5.972656 -3.570312 6.03125 -3.234375 6.03125 -2.859375 C 6.03125 -1.929688 5.753906 -1.179688 5.203125 -0.609375 C 4.660156 -0.046875 3.945312 0.234375 3.0625 0.234375 C 2.4375 0.234375 1.894531 0.0703125 1.4375 -0.25 C 0.976562 -0.570312 0.59375 -0.992188 0.28125 -1.515625 L 1.421875 -2.640625 C 1.554688 -2.253906 1.773438 -1.9375 2.078125 -1.6875 C 2.378906 -1.4375 2.703125 -1.3125 3.046875 -1.3125 C 3.378906 -1.3125 3.65625 -1.429688 3.875 -1.671875 C 4.09375 -1.921875 4.203125 -2.238281 4.203125 -2.625 C 4.203125 -2.957031 4.097656 -3.222656 3.890625 -3.421875 C 3.679688 -3.628906 3.375 -3.8125 2.96875 -3.96875 C 2.070312 -4.3125 1.457031 -4.671875 1.125 -5.046875 C 0.789062 -5.429688 0.625 -5.9375 0.625 -6.5625 C 0.625 -7.039062 0.734375 -7.488281 0.953125 -7.90625 C 1.179688 -8.320312 1.5 -8.65625 1.90625 -8.90625 C 2.3125 -9.15625 2.765625 -9.28125 3.265625 -9.28125 C 3.703125 -9.28125 4.160156 -9.175781 4.640625 -8.96875 C 5.128906 -8.769531 5.492188 -8.535156 5.734375 -8.265625 Z M 4.90625 -7.046875 "/></g></g></g><g fill="#f7f7f7" fill-opacity="1"><g transform="translate(419.981898, 227.388659)"><g><path d="M 2.40625 -9.03125 L 2.40625 0 L 0.640625 0 L 0.640625 -9.03125 Z M 2.40625 -9.03125 "/></g></g></g><g fill="#f7f7f7" fill-opacity="1"><g transform="translate(425.42496, 227.388659)"><g><path d="M 5.40625 -9.03125 L 5.40625 -7.5 L 3.578125 -7.5 L 3.578125 0 L 1.828125 0 L 1.828125 -7.5 L 0 -7.5 L 0 -9.03125 Z M 5.40625 -9.03125 "/></g></g></g><g fill="#f7f7f7" fill-opacity="1"><g transform="translate(433.229882, 227.388659)"><g><path d="M 0.21875 -4.53125 C 0.21875 -5.4375 0.40625 -6.25 0.78125 -6.96875 C 1.164062 -7.6875 1.695312 -8.25 2.375 -8.65625 C 3.0625 -9.070312 3.832031 -9.28125 4.6875 -9.28125 C 5.550781 -9.28125 6.328125 -9.066406 7.015625 -8.640625 C 7.703125 -8.222656 8.226562 -7.648438 8.59375 -6.921875 C 8.96875 -6.203125 9.15625 -5.40625 9.15625 -4.53125 C 9.15625 -3.613281 8.960938 -2.789062 8.578125 -2.0625 C 8.203125 -1.332031 7.675781 -0.765625 7 -0.359375 C 6.320312 0.0351562 5.550781 0.234375 4.6875 0.234375 C 3.832031 0.234375 3.066406 0.0351562 2.390625 -0.359375 C 1.710938 -0.753906 1.179688 -1.316406 0.796875 -2.046875 C 0.410156 -2.785156 0.21875 -3.613281 0.21875 -4.53125 Z M 4.671875 -7.53125 C 3.921875 -7.53125 3.289062 -7.242188 2.78125 -6.671875 C 2.28125 -6.097656 2.03125 -5.410156 2.03125 -4.609375 C 2.03125 -3.703125 2.269531 -2.957031 2.75 -2.375 C 3.226562 -1.789062 3.875 -1.5 4.6875 -1.5 C 5.5 -1.5 6.140625 -1.789062 6.609375 -2.375 C 7.085938 -2.957031 7.328125 -3.703125 7.328125 -4.609375 C 7.328125 -5.421875 7.078125 -6.109375 6.578125 -6.671875 C 6.078125 -7.242188 5.441406 -7.53125 4.671875 -7.53125 Z M 4.671875 -7.53125 "/></g></g></g><g fill="#f7f7f7" fill-opacity="1"><g transform="translate(445.003204, 227.388659)"><g><path d="M 3.078125 -9.03125 C 4.023438 -9.03125 4.753906 -8.796875 5.265625 -8.328125 C 5.785156 -7.867188 6.046875 -7.195312 6.046875 -6.3125 C 6.046875 -5.675781 5.875 -5.117188 5.53125 -4.640625 C 5.1875 -4.171875 4.742188 -3.894531 4.203125 -3.8125 L 6.765625 0 L 4.625 0 L 2.4375 -3.640625 L 2.40625 -3.640625 L 2.40625 0 L 0.640625 0 L 0.640625 -9.03125 Z M 2.40625 -4.875 L 2.59375 -4.875 C 3.207031 -4.875 3.644531 -4.984375 3.90625 -5.203125 C 4.164062 -5.429688 4.296875 -5.785156 4.296875 -6.265625 C 4.296875 -6.734375 4.164062 -7.070312 3.90625 -7.28125 C 3.644531 -7.488281 3.21875 -7.59375 2.625 -7.59375 L 2.40625 -7.59375 Z M 2.40625 -4.875 "/></g></g></g><g fill="#f7f7f7" fill-opacity="1"><g transform="translate(454.090966, 227.388659)"><g><path d="M 1.859375 -9.03125 L 3.4375 -5.890625 L 5.171875 -9.03125 L 7.21875 -9.03125 L 4.375 -4.140625 L 4.375 0 L 2.609375 0 L 2.609375 -4.140625 L -0.1875 -9.03125 Z M 1.859375 -9.03125 "/></g></g></g><g clip-path="url(#151d9a2e3d)"><path fill="#2c4dda" d="M 57.621094 41.429688 L 265.898438 41.429688 L 265.898438 148.710938 L 57.621094 148.710938 Z M 57.621094 41.429688 " fill-opacity="1" fill-rule="nonzero"/></g><g fill="#f7f7f7" fill-opacity="1"><g transform="translate(128.364339, 90.882974)"><g><path d="M 4.90625 -7.046875 C 4.738281 -7.273438 4.539062 -7.457031 4.3125 -7.59375 C 4.09375 -7.726562 3.835938 -7.796875 3.546875 -7.796875 C 3.242188 -7.796875 2.984375 -7.691406 2.765625 -7.484375 C 2.546875 -7.285156 2.4375 -7.046875 2.4375 -6.765625 C 2.4375 -6.515625 2.539062 -6.296875 2.75 -6.109375 C 2.96875 -5.929688 3.285156 -5.765625 3.703125 -5.609375 C 4.421875 -5.316406 4.929688 -5.03125 5.234375 -4.75 C 5.535156 -4.476562 5.742188 -4.1875 5.859375 -3.875 C 5.972656 -3.570312 6.03125 -3.234375 6.03125 -2.859375 C 6.03125 -1.929688 5.753906 -1.179688 5.203125 -0.609375 C 4.660156 -0.046875 3.945312 0.234375 3.0625 0.234375 C 2.4375 0.234375 1.894531 0.0703125 1.4375 -0.25 C 0.976562 -0.570312 0.59375 -0.992188 0.28125 -1.515625 L 1.421875 -2.640625 C 1.554688 -2.253906 1.773438 -1.9375 2.078125 -1.6875 C 2.378906 -1.4375 2.703125 -1.3125 3.046875 -1.3125 C 3.378906 -1.3125 3.65625 -1.429688 3.875 -1.671875 C 4.09375 -1.921875 4.203125 -2.238281 4.203125 -2.625 C 4.203125 -2.957031 4.097656 -3.222656 3.890625 -3.421875 C 3.679688 -3.628906 3.375 -3.8125 2.96875 -3.96875 C 2.070312 -4.3125 1.457031 -4.671875 1.125 -5.046875 C 0.789062 -5.429688 0.625 -5.9375 0.625 -6.5625 C 0.625 -7.039062 0.734375 -7.488281 0.953125 -7.90625 C 1.179688 -8.320312 1.5 -8.65625 1.90625 -8.90625 C 2.3125 -9.15625 2.765625 -9.28125 3.265625 -9.28125 C 3.703125 -9.28125 4.160156 -9.175781 4.640625 -8.96875 C 5.128906 -8.769531 5.492188 -8.535156 5.734375 -8.265625 Z M 4.90625 -7.046875 "/></g></g></g><g fill="#f7f7f7" fill-opacity="1"><g transform="translate(137.068445, 90.882974)"><g><path d="M 6.6875 -6.640625 C 6.4375 -6.941406 6.132812 -7.175781 5.78125 -7.34375 C 5.425781 -7.507812 5.066406 -7.59375 4.703125 -7.59375 C 3.929688 -7.59375 3.289062 -7.289062 2.78125 -6.6875 C 2.28125 -6.082031 2.03125 -5.347656 2.03125 -4.484375 C 2.03125 -3.640625 2.285156 -2.921875 2.796875 -2.328125 C 3.316406 -1.734375 3.945312 -1.4375 4.6875 -1.4375 C 5.070312 -1.4375 5.4375 -1.523438 5.78125 -1.703125 C 6.132812 -1.890625 6.4375 -2.117188 6.6875 -2.390625 L 6.6875 -0.296875 C 6.351562 -0.140625 6.019531 -0.015625 5.6875 0.078125 C 5.351562 0.179688 5.003906 0.234375 4.640625 0.234375 C 3.835938 0.234375 3.101562 0.03125 2.4375 -0.375 C 1.769531 -0.78125 1.234375 -1.347656 0.828125 -2.078125 C 0.421875 -2.816406 0.21875 -3.609375 0.21875 -4.453125 C 0.21875 -5.328125 0.410156 -6.132812 0.796875 -6.875 C 1.191406 -7.625 1.726562 -8.210938 2.40625 -8.640625 C 3.09375 -9.066406 3.847656 -9.28125 4.671875 -9.28125 C 5.035156 -9.28125 5.382812 -9.234375 5.71875 -9.140625 C 6.0625 -9.046875 6.382812 -8.914062 6.6875 -8.75 Z M 6.6875 -6.640625 "/></g></g></g><g fill="#f7f7f7" fill-opacity="1"><g transform="translate(146.671731, 90.882974)"><g><path d="M 4.78125 -9.28125 L 8.203125 0 L 6.328125 0 L 5.625 -1.90625 L 2.5 -1.90625 L 1.75 0 L -0.109375 0 L 3.421875 -9.28125 Z M 3 -3.34375 L 5.140625 -3.34375 L 4.015625 -6.625 L 3.984375 -6.625 Z M 3 -3.34375 "/></g></g></g><g fill="#f7f7f7" fill-opacity="1"><g transform="translate(157.17421, 90.882974)"><g><path d="M 1.921875 -9.28125 L 6.671875 -2.953125 L 6.703125 -2.953125 L 6.703125 -9.03125 L 8.46875 -9.03125 L 8.46875 0.1875 L 7.1875 0.1875 L 2.4375 -6.140625 L 2.40625 -6.140625 L 2.40625 0 L 0.640625 0 L 0.640625 -9.28125 Z M 1.921875 -9.28125 "/></g></g></g><g fill="#f7f7f7" fill-opacity="1"><g transform="translate(168.671788, 90.882974)"><g><path d="M 1.921875 -9.28125 L 6.671875 -2.953125 L 6.703125 -2.953125 L 6.703125 -9.03125 L 8.46875 -9.03125 L 8.46875 0.1875 L 7.1875 0.1875 L 2.4375 -6.140625 L 2.40625 -6.140625 L 2.40625 0 L 0.640625 0 L 0.640625 -9.28125 Z M 1.921875 -9.28125 "/></g></g></g><g fill="#f7f7f7" fill-opacity="1"><g transform="translate(180.169366, 90.882974)"><g><path d="M 5.328125 -9.03125 L 5.328125 -7.5 L 2.40625 -7.5 L 2.40625 -5.515625 L 5.21875 -5.515625 L 5.21875 -3.984375 L 2.40625 -3.984375 L 2.40625 -1.53125 L 5.328125 -1.53125 L 5.328125 0 L 0.640625 0 L 0.640625 -9.03125 Z M 5.328125 -9.03125 "/></g></g></g><g fill="#f7f7f7" fill-opacity="1"><g transform="translate(188.417882, 90.882974)"><g><path d="M 3.078125 -9.03125 C 4.023438 -9.03125 4.753906 -8.796875 5.265625 -8.328125 C 5.785156 -7.867188 6.046875 -7.195312 6.046875 -6.3125 C 6.046875 -5.675781 5.875 -5.117188 5.53125 -4.640625 C 5.1875 -4.171875 4.742188 -3.894531 4.203125 -3.8125 L 6.765625 0 L 4.625 0 L 2.4375 -3.640625 L 2.40625 -3.640625 L 2.40625 0 L 0.640625 0 L 0.640625 -9.03125 Z M 2.40625 -4.875 L 2.59375 -4.875 C 3.207031 -4.875 3.644531 -4.984375 3.90625 -5.203125 C 4.164062 -5.429688 4.296875 -5.785156 4.296875 -6.265625 C 4.296875 -6.734375 4.164062 -7.070312 3.90625 -7.28125 C 3.644531 -7.488281 3.21875 -7.59375 2.625 -7.59375 L 2.40625 -7.59375 Z M 2.40625 -4.875 "/></g></g></g><g fill="#f7f7f7" fill-opacity="1"><g transform="translate(144.228836, 107.368001)"><g><path d="M 3.125 -9.28125 C 2.769531 -8.457031 2.515625 -7.570312 2.359375 -6.625 C 2.210938 -5.6875 2.140625 -4.773438 2.140625 -3.890625 C 2.140625 -2.878906 2.226562 -1.882812 2.40625 -0.90625 C 2.59375 0.0703125 2.832031 0.875 3.125 1.5 L 2.09375 2.203125 C 1.707031 1.460938 1.410156 0.566406 1.203125 -0.484375 C 0.992188 -1.546875 0.890625 -2.703125 0.890625 -3.953125 C 0.890625 -5.140625 1 -6.265625 1.21875 -7.328125 C 1.445312 -8.390625 1.738281 -9.269531 2.09375 -9.96875 Z M 3.125 -9.28125 "/></g></g></g><g fill="#f7f7f7" fill-opacity="1"><g transform="translate(149.875717, 107.368001)"><g><path d="M 1.71875 -9.03125 L 3.890625 -2.953125 L 3.921875 -2.953125 L 5.9375 -9.03125 L 7.828125 -9.03125 L 4.3125 0.234375 L 3.28125 0.234375 L -0.171875 -9.03125 Z M 1.71875 -9.03125 "/></g></g></g><g fill="#f7f7f7" fill-opacity="1"><g transform="translate(159.934591, 107.368001)"><g><path d="M 5.328125 -9.03125 L 5.328125 -7.5 L 2.40625 -7.5 L 2.40625 -5.515625 L 5.21875 -5.515625 L 5.21875 -3.984375 L 2.40625 -3.984375 L 2.40625 -1.53125 L 5.328125 -1.53125 L 5.328125 0 L 0.640625 0 L 0.640625 -9.03125 Z M 5.328125 -9.03125 "/></g></g></g><g fill="#f7f7f7" fill-opacity="1"><g transform="translate(168.183108, 107.368001)"><g><path d="M 5.40625 -9.03125 L 5.40625 -7.5 L 3.578125 -7.5 L 3.578125 0 L 1.828125 0 L 1.828125 -7.5 L 0 -7.5 L 0 -9.03125 Z M 5.40625 -9.03125 "/></g></g></g><g fill="#f7f7f7" fill-opacity="1"><g transform="translate(175.988033, 107.368001)"><g><path d="M 1.15625 -9.96875 C 1.539062 -9.164062 1.835938 -8.226562 2.046875 -7.15625 C 2.253906 -6.082031 2.359375 -5.015625 2.359375 -3.953125 C 2.359375 -2.703125 2.25 -1.546875 2.03125 -0.484375 C 1.820312 0.566406 1.53125 1.460938 1.15625 2.203125 L 0.125 1.5 C 0.46875 0.71875 0.71875 -0.140625 0.875 -1.078125 C 1.03125 -2.015625 1.109375 -2.953125 1.109375 -3.890625 C 1.109375 -4.773438 1.03125 -5.679688 0.875 -6.609375 C 0.726562 -7.546875 0.476562 -8.4375 0.125 -9.28125 Z M 1.15625 -9.96875 "/></g></g></g><g clip-path="url(#1f1c44ce0d)"><path fill="#2c4dda" d="M 57.621094 169.710938 L 265.898438 169.710938 L 265.898438 276.992188 L 57.621094 276.992188 Z M 57.621094 169.710938 " fill-opacity="1" fill-rule="nonzero"/></g><g fill="#f7f7f7" fill-opacity="1"><g transform="translate(112.757421, 219.164295)"><g><path d="M 2.40625 -9.03125 L 2.40625 0 L 0.640625 0 L 0.640625 -9.03125 Z M 2.40625 -9.03125 "/></g></g></g><g fill="#f7f7f7" fill-opacity="1"><g transform="translate(118.200485, 219.164295)"><g><path d="M 1.921875 -9.28125 L 6.671875 -2.953125 L 6.703125 -2.953125 L 6.703125 -9.03125 L 8.46875 -9.03125 L 8.46875 0.1875 L 7.1875 0.1875 L 2.4375 -6.140625 L 2.40625 -6.140625 L 2.40625 0 L 0.640625 0 L 0.640625 -9.28125 Z M 1.921875 -9.28125 "/></g></g></g><g fill="#f7f7f7" fill-opacity="1"><g transform="translate(129.698062, 219.164295)"><g><path d="M 5.40625 -9.03125 L 5.40625 -7.5 L 3.578125 -7.5 L 3.578125 0 L 1.828125 0 L 1.828125 -7.5 L 0 -7.5 L 0 -9.03125 Z M 5.40625 -9.03125 "/></g></g></g><g fill="#f7f7f7" fill-opacity="1"><g transform="translate(137.502986, 219.164295)"><g><path d="M 5.328125 -9.03125 L 5.328125 -7.5 L 2.40625 -7.5 L 2.40625 -5.515625 L 5.21875 -5.515625 L 5.21875 -3.984375 L 2.40625 -3.984375 L 2.40625 -1.53125 L 5.328125 -1.53125 L 5.328125 0 L 0.640625 0 L 0.640625 -9.03125 Z M 5.328125 -9.03125 "/></g></g></g><g fill="#f7f7f7" fill-opacity="1"><g transform="translate(145.751505, 219.164295)"><g><path d="M 6.640625 -6.28125 C 6.453125 -6.6875 6.175781 -7.023438 5.8125 -7.296875 C 5.445312 -7.578125 5.035156 -7.71875 4.578125 -7.71875 C 4.066406 -7.71875 3.613281 -7.554688 3.21875 -7.234375 C 2.832031 -6.921875 2.535156 -6.519531 2.328125 -6.03125 C 2.128906 -5.550781 2.03125 -5.035156 2.03125 -4.484375 C 2.03125 -3.597656 2.269531 -2.847656 2.75 -2.234375 C 3.226562 -1.617188 3.84375 -1.3125 4.59375 -1.3125 C 5.132812 -1.3125 5.601562 -1.507812 6 -1.90625 C 6.40625 -2.300781 6.625 -2.789062 6.65625 -3.375 L 4.734375 -3.375 L 4.734375 -4.8125 L 8.625 -4.8125 L 8.625 -4.546875 C 8.625 -3.617188 8.457031 -2.789062 8.125 -2.0625 C 7.800781 -1.34375 7.328125 -0.78125 6.703125 -0.375 C 6.085938 0.03125 5.359375 0.234375 4.515625 0.234375 C 3.679688 0.234375 2.9375 0.0195312 2.28125 -0.40625 C 1.625 -0.832031 1.113281 -1.40625 0.75 -2.125 C 0.394531 -2.84375 0.21875 -3.628906 0.21875 -4.484375 C 0.21875 -5.378906 0.398438 -6.1875 0.765625 -6.90625 C 1.140625 -7.632812 1.664062 -8.210938 2.34375 -8.640625 C 3.019531 -9.066406 3.78125 -9.28125 4.625 -9.28125 C 5.394531 -9.28125 6.085938 -9.09375 6.703125 -8.71875 C 7.328125 -8.351562 7.828125 -7.820312 8.203125 -7.125 Z M 6.640625 -6.28125 "/></g></g></g><g fill="#f7f7f7" fill-opacity="1"><g transform="translate(157.009295, 219.164295)"><g><path d="M 3.078125 -9.03125 C 4.023438 -9.03125 4.753906 -8.796875 5.265625 -8.328125 C 5.785156 -7.867188 6.046875 -7.195312 6.046875 -6.3125 C 6.046875 -5.675781 5.875 -5.117188 5.53125 -4.640625 C 5.1875 -4.171875 4.742188 -3.894531 4.203125 -3.8125 L 6.765625 0 L 4.625 0 L 2.4375 -3.640625 L 2.40625 -3.640625 L 2.40625 0 L 0.640625 0 L 0.640625 -9.03125 Z M 2.40625 -4.875 L 2.59375 -4.875 C 3.207031 -4.875 3.644531 -4.984375 3.90625 -5.203125 C 4.164062 -5.429688 4.296875 -5.785156 4.296875 -6.265625 C 4.296875 -6.734375 4.164062 -7.070312 3.90625 -7.28125 C 3.644531 -7.488281 3.21875 -7.59375 2.625 -7.59375 L 2.40625 -7.59375 Z M 2.40625 -4.875 "/></g></g></g><g fill="#f7f7f7" fill-opacity="1"><g transform="translate(166.097057, 219.164295)"><g><path d="M 4.78125 -9.28125 L 8.203125 0 L 6.328125 0 L 5.625 -1.90625 L 2.5 -1.90625 L 1.75 0 L -0.109375 0 L 3.421875 -9.28125 Z M 3 -3.34375 L 5.140625 -3.34375 L 4.015625 -6.625 L 3.984375 -6.625 Z M 3 -3.34375 "/></g></g></g><g fill="#f7f7f7" fill-opacity="1"><g transform="translate(176.599534, 219.164295)"><g><path d="M 5.40625 -9.03125 L 5.40625 -7.5 L 3.578125 -7.5 L 3.578125 0 L 1.828125 0 L 1.828125 -7.5 L 0 -7.5 L 0 -9.03125 Z M 5.40625 -9.03125 "/></g></g></g><g fill="#f7f7f7" fill-opacity="1"><g transform="translate(184.404456, 219.164295)"><g><path d="M 2.40625 -9.03125 L 2.40625 0 L 0.640625 0 L 0.640625 -9.03125 Z M 2.40625 -9.03125 "/></g></g></g><g fill="#f7f7f7" fill-opacity="1"><g transform="translate(189.847518, 219.164295)"><g><path d="M 0.21875 -4.53125 C 0.21875 -5.4375 0.40625 -6.25 0.78125 -6.96875 C 1.164062 -7.6875 1.695312 -8.25 2.375 -8.65625 C 3.0625 -9.070312 3.832031 -9.28125 4.6875 -9.28125 C 5.550781 -9.28125 6.328125 -9.066406 7.015625 -8.640625 C 7.703125 -8.222656 8.226562 -7.648438 8.59375 -6.921875 C 8.96875 -6.203125 9.15625 -5.40625 9.15625 -4.53125 C 9.15625 -3.613281 8.960938 -2.789062 8.578125 -2.0625 C 8.203125 -1.332031 7.675781 -0.765625 7 -0.359375 C 6.320312 0.0351562 5.550781 0.234375 4.6875 0.234375 C 3.832031 0.234375 3.066406 0.0351562 2.390625 -0.359375 C 1.710938 -0.753906 1.179688 -1.316406 0.796875 -2.046875 C 0.410156 -2.785156 0.21875 -3.613281 0.21875 -4.53125 Z M 4.671875 -7.53125 C 3.921875 -7.53125 3.289062 -7.242188 2.78125 -6.671875 C 2.28125 -6.097656 2.03125 -5.410156 2.03125 -4.609375 C 2.03125 -3.703125 2.269531 -2.957031 2.75 -2.375 C 3.226562 -1.789062 3.875 -1.5 4.6875 -1.5 C 5.5 -1.5 6.140625 -1.789062 6.609375 -2.375 C 7.085938 -2.957031 7.328125 -3.703125 7.328125 -4.609375 C 7.328125 -5.421875 7.078125 -6.109375 6.578125 -6.671875 C 6.078125 -7.242188 5.441406 -7.53125 4.671875 -7.53125 Z M 4.671875 -7.53125 "/></g></g></g><g fill="#f7f7f7" fill-opacity="1"><g transform="translate(201.62084, 219.164295)"><g><path d="M 1.921875 -9.28125 L 6.671875 -2.953125 L 6.703125 -2.953125 L 6.703125 -9.03125 L 8.46875 -9.03125 L 8.46875 0.1875 L 7.1875 0.1875 L 2.4375 -6.140625 L 2.40625 -6.140625 L 2.40625 0 L 0.640625 0 L 0.640625 -9.28125 Z M 1.921875 -9.28125 "/></g></g></g><g fill="#f7f7f7" fill-opacity="1"><g transform="translate(122.615655, 235.649322)"><g><path d="M 3.125 -9.28125 C 2.769531 -8.457031 2.515625 -7.570312 2.359375 -6.625 C 2.210938 -5.6875 2.140625 -4.773438 2.140625 -3.890625 C 2.140625 -2.878906 2.226562 -1.882812 2.40625 -0.90625 C 2.59375 0.0703125 2.832031 0.875 3.125 1.5 L 2.09375 2.203125 C 1.707031 1.460938 1.410156 0.566406 1.203125 -0.484375 C 0.992188 -1.546875 0.890625 -2.703125 0.890625 -3.953125 C 0.890625 -5.140625 1 -6.265625 1.21875 -7.328125 C 1.445312 -8.390625 1.738281 -9.269531 2.09375 -9.96875 Z M 3.125 -9.28125 "/></g></g></g><g fill="#f7f7f7" fill-opacity="1"><g transform="translate(128.262536, 235.649322)"><g><path d="M 5.328125 -9.03125 L 5.328125 -7.5 L 2.40625 -7.5 L 2.40625 -5.515625 L 5.21875 -5.515625 L 5.21875 -3.984375 L 2.40625 -3.984375 L 2.40625 -1.53125 L 5.328125 -1.53125 L 5.328125 0 L 0.640625 0 L 0.640625 -9.03125 Z M 5.328125 -9.03125 "/></g></g></g><g fill="#f7f7f7" fill-opacity="1"><g transform="translate(136.511054, 235.649322)"><g><path d="M 1.734375 0.234375 C 1.441406 0.234375 1.191406 0.128906 0.984375 -0.078125 C 0.773438 -0.285156 0.671875 -0.539062 0.671875 -0.84375 C 0.671875 -1.132812 0.773438 -1.378906 0.984375 -1.578125 C 1.191406 -1.785156 1.441406 -1.890625 1.734375 -1.890625 C 2.035156 -1.890625 2.285156 -1.785156 2.484375 -1.578125 C 2.691406 -1.378906 2.796875 -1.132812 2.796875 -0.84375 C 2.796875 -0.539062 2.691406 -0.285156 2.484375 -0.078125 C 2.285156 0.128906 2.035156 0.234375 1.734375 0.234375 Z M 1.734375 0.234375 "/></g></g></g><g fill="#f7f7f7" fill-opacity="1"><g transform="translate(142.373734, 235.649322)"><g><path d="M 6.640625 -6.28125 C 6.453125 -6.6875 6.175781 -7.023438 5.8125 -7.296875 C 5.445312 -7.578125 5.035156 -7.71875 4.578125 -7.71875 C 4.066406 -7.71875 3.613281 -7.554688 3.21875 -7.234375 C 2.832031 -6.921875 2.535156 -6.519531 2.328125 -6.03125 C 2.128906 -5.550781 2.03125 -5.035156 2.03125 -4.484375 C 2.03125 -3.597656 2.269531 -2.847656 2.75 -2.234375 C 3.226562 -1.617188 3.84375 -1.3125 4.59375 -1.3125 C 5.132812 -1.3125 5.601562 -1.507812 6 -1.90625 C 6.40625 -2.300781 6.625 -2.789062 6.65625 -3.375 L 4.734375 -3.375 L 4.734375 -4.8125 L 8.625 -4.8125 L 8.625 -4.546875 C 8.625 -3.617188 8.457031 -2.789062 8.125 -2.0625 C 7.800781 -1.34375 7.328125 -0.78125 6.703125 -0.375 C 6.085938 0.03125 5.359375 0.234375 4.515625 0.234375 C 3.679688 0.234375 2.9375 0.0195312 2.28125 -0.40625 C 1.625 -0.832031 1.113281 -1.40625 0.75 -2.125 C 0.394531 -2.84375 0.21875 -3.628906 0.21875 -4.484375 C 0.21875 -5.378906 0.398438 -6.1875 0.765625 -6.90625 C 1.140625 -7.632812 1.664062 -8.210938 2.34375 -8.640625 C 3.019531 -9.066406 3.78125 -9.28125 4.625 -9.28125 C 5.394531 -9.28125 6.085938 -9.09375 6.703125 -8.71875 C 7.328125 -8.351562 7.828125 -7.820312 8.203125 -7.125 Z M 6.640625 -6.28125 "/></g></g></g><g fill="#f7f7f7" fill-opacity="1"><g transform="translate(153.631524, 235.649322)"><g><path d="M 1.734375 0.234375 C 1.441406 0.234375 1.191406 0.128906 0.984375 -0.078125 C 0.773438 -0.285156 0.671875 -0.539062 0.671875 -0.84375 C 0.671875 -1.132812 0.773438 -1.378906 0.984375 -1.578125 C 1.191406 -1.785156 1.441406 -1.890625 1.734375 -1.890625 C 2.035156 -1.890625 2.285156 -1.785156 2.484375 -1.578125 C 2.691406 -1.378906 2.796875 -1.132812 2.796875 -0.84375 C 2.796875 -0.539062 2.691406 -0.285156 2.484375 -0.078125 C 2.285156 0.128906 2.035156 0.234375 1.734375 0.234375 Z M 1.734375 0.234375 "/></g></g></g><g fill="#f7f7f7" fill-opacity="1"><g transform="translate(159.494206, 235.649322)"><g/></g></g><g fill="#f7f7f7" fill-opacity="1"><g transform="translate(165.356887, 235.649322)"><g><path d="M 6.640625 -6.28125 C 6.453125 -6.6875 6.175781 -7.023438 5.8125 -7.296875 C 5.445312 -7.578125 5.035156 -7.71875 4.578125 -7.71875 C 4.066406 -7.71875 3.613281 -7.554688 3.21875 -7.234375 C 2.832031 -6.921875 2.535156 -6.519531 2.328125 -6.03125 C 2.128906 -5.550781 2.03125 -5.035156 2.03125 -4.484375 C 2.03125 -3.597656 2.269531 -2.847656 2.75 -2.234375 C 3.226562 -1.617188 3.84375 -1.3125 4.59375 -1.3125 C 5.132812 -1.3125 5.601562 -1.507812 6 -1.90625 C 6.40625 -2.300781 6.625 -2.789062 6.65625 -3.375 L 4.734375 -3.375 L 4.734375 -4.8125 L 8.625 -4.8125 L 8.625 -4.546875 C 8.625 -3.617188 8.457031 -2.789062 8.125 -2.0625 C 7.800781 -1.34375 7.328125 -0.78125 6.703125 -0.375 C 6.085938 0.03125 5.359375 0.234375 4.515625 0.234375 C 3.679688 0.234375 2.9375 0.0195312 2.28125 -0.40625 C 1.625 -0.832031 1.113281 -1.40625 0.75 -2.125 C 0.394531 -2.84375 0.21875 -3.628906 0.21875 -4.484375 C 0.21875 -5.378906 0.398438 -6.1875 0.765625 -6.90625 C 1.140625 -7.632812 1.664062 -8.210938 2.34375 -8.640625 C 3.019531 -9.066406 3.78125 -9.28125 4.625 -9.28125 C 5.394531 -9.28125 6.085938 -9.09375 6.703125 -8.71875 C 7.328125 -8.351562 7.828125 -7.820312 8.203125 -7.125 Z M 6.640625 -6.28125 "/></g></g></g><g fill="#f7f7f7" fill-opacity="1"><g transform="translate(176.614678, 235.649322)"><g><path d="M 2.40625 -9.03125 L 2.40625 -5.484375 L 5.671875 -5.484375 L 5.671875 -9.03125 L 7.4375 -9.03125 L 7.4375 0 L 5.671875 0 L 5.671875 -4.03125 L 2.40625 -4.03125 L 2.40625 0 L 0.640625 0 L 0.640625 -9.03125 Z M 2.40625 -9.03125 "/></g></g></g><g fill="#f7f7f7" fill-opacity="1"><g transform="translate(187.093178, 235.649322)"><g><path d="M 4.78125 -9.28125 L 8.203125 0 L 6.328125 0 L 5.625 -1.90625 L 2.5 -1.90625 L 1.75 0 L -0.109375 0 L 3.421875 -9.28125 Z M 3 -3.34375 L 5.140625 -3.34375 L 4.015625 -6.625 L 3.984375 -6.625 Z M 3 -3.34375 "/></g></g></g><g fill="#f7f7f7" fill-opacity="1"><g transform="translate(197.595655, 235.649322)"><g><path d="M 1.15625 -9.96875 C 1.539062 -9.164062 1.835938 -8.226562 2.046875 -7.15625 C 2.253906 -6.082031 2.359375 -5.015625 2.359375 -3.953125 C 2.359375 -2.703125 2.25 -1.546875 2.03125 -0.484375 C 1.820312 0.566406 1.53125 1.460938 1.15625 2.203125 L 0.125 1.5 C 0.46875 0.71875 0.71875 -0.140625 0.875 -1.078125 C 1.03125 -2.015625 1.109375 -2.953125 1.109375 -3.890625 C 1.109375 -4.773438 1.03125 -5.679688 0.875 -6.609375 C 0.726562 -7.546875 0.476562 -8.4375 0.125 -9.28125 Z M 1.15625 -9.96875 "/></g></g></g></svg>