<svg xmlns="http://www.w3.org/2000/svg" xmlns:xlink="http://www.w3.org/1999/xlink" width="734" zoomAndPan="magnify" viewBox="0 0 550.5 440.999989" height="588" preserveAspectRatio="xMidYMid meet" version="1.0"><defs><g/><clipPath id="f9342823ae"><path d="M 44.058594 44.511719 L 269.800781 44.511719 L 269.800781 146.617188 L 44.058594 146.617188 Z M 44.058594 44.511719 " clip-rule="nonzero"/></clipPath><clipPath id="53ecbe69c7"><path d="M 44.058594 172.714844 L 269.800781 172.714844 L 269.800781 274.820312 L 44.058594 274.820312 Z M 44.058594 172.714844 " clip-rule="nonzero"/></clipPath><clipPath id="8aee72b6cf"><path d="M 280.199219 44.511719 L 505.941406 44.511719 L 505.941406 146.617188 L 280.199219 146.617188 Z M 280.199219 44.511719 " clip-rule="nonzero"/></clipPath><clipPath id="590c76f1c4"><path d="M 280.199219 172.714844 L 505.941406 172.714844 L 505.941406 274.820312 L 280.199219 274.820312 Z M 280.199219 172.714844 " clip-rule="nonzero"/></clipPath><clipPath id="04c4ce7aa7"><path d="M 44.058594 294.632812 L 505.941406 294.632812 L 505.941406 396.738281 L 44.058594 396.738281 Z M 44.058594 294.632812 " clip-rule="nonzero"/></clipPath></defs><g clip-path="url(#f9342823ae)"><path fill="#4360e0" d="M 44.058594 44.511719 L 269.8125 44.511719 L 269.8125 146.617188 L 44.058594 146.617188 Z M 44.058594 44.511719 " fill-opacity="1" fill-rule="nonzero"/></g><g fill="#ffffff" fill-opacity="1"><g transform="translate(101.446035, 99.211102)"><g><path d="M 1.765625 -9.21875 L 3.96875 -3 L 4 -3 L 6.046875 -9.21875 L 7.984375 -9.21875 L 4.40625 0.25 L 3.34375 0.25 L -0.171875 -9.21875 Z M 1.765625 -9.21875 "/></g></g></g><g fill="#ffffff" fill-opacity="1"><g transform="translate(111.693667, 99.211102)"><g><path d="M 2.40625 -9.21875 L 2.40625 -3.96875 C 2.40625 -3.070312 2.535156 -2.40625 2.796875 -1.96875 C 3.054688 -1.53125 3.46875 -1.3125 4.03125 -1.3125 C 4.601562 -1.3125 5.015625 -1.523438 5.265625 -1.953125 C 5.523438 -2.390625 5.65625 -3.054688 5.65625 -3.953125 L 5.65625 -9.21875 L 7.453125 -9.21875 L 7.453125 -3.65625 C 7.453125 -2.414062 7.160156 -1.453125 6.578125 -0.765625 C 5.992188 -0.0859375 5.144531 0.25 4.03125 0.25 C 2.914062 0.25 2.066406 -0.09375 1.484375 -0.78125 C 0.898438 -1.46875 0.609375 -2.425781 0.609375 -3.65625 L 0.609375 -9.21875 Z M 2.40625 -9.21875 "/></g></g></g><g fill="#ffffff" fill-opacity="1"><g transform="translate(122.197746, 99.211102)"><g><path d="M 2.453125 -9.21875 L 2.453125 -1.5625 L 5 -1.5625 L 5 0 L 0.65625 0 L 0.65625 -9.21875 Z M 2.453125 -9.21875 "/></g></g></g><g fill="#ffffff" fill-opacity="1"><g transform="translate(129.551246, 99.211102)"><g><path d="M 1.953125 -9.453125 L 6.8125 -3.015625 L 6.828125 -3.015625 L 6.828125 -9.21875 L 8.625 -9.21875 L 8.625 0.1875 L 7.328125 0.1875 L 2.484375 -6.25 L 2.453125 -6.25 L 2.453125 0 L 0.65625 0 L 0.65625 -9.453125 Z M 1.953125 -9.453125 "/></g></g></g><g fill="#ffffff" fill-opacity="1"><g transform="translate(141.264266, 99.211102)"><g><path d="M 5.421875 -9.21875 L 5.421875 -7.65625 L 2.453125 -7.65625 L 2.453125 -5.625 L 5.3125 -5.625 L 5.3125 -4.0625 L 2.453125 -4.0625 L 2.453125 -1.5625 L 5.421875 -1.5625 L 5.421875 0 L 0.65625 0 L 0.65625 -9.21875 Z M 5.421875 -9.21875 "/></g></g></g><g fill="#ffffff" fill-opacity="1"><g transform="translate(149.667949, 99.211102)"><g><path d="M 3.140625 -9.21875 C 4.109375 -9.21875 4.851562 -8.976562 5.375 -8.5 C 5.90625 -8.019531 6.171875 -7.332031 6.171875 -6.4375 C 6.171875 -5.789062 5.992188 -5.222656 5.640625 -4.734375 C 5.285156 -4.242188 4.832031 -3.960938 4.28125 -3.890625 L 6.890625 0 L 4.71875 0 L 2.484375 -3.71875 L 2.453125 -3.71875 L 2.453125 0 L 0.65625 0 L 0.65625 -9.21875 Z M 2.453125 -4.96875 L 2.65625 -4.96875 C 3.269531 -4.96875 3.707031 -5.082031 3.96875 -5.3125 C 4.238281 -5.539062 4.375 -5.898438 4.375 -6.390625 C 4.375 -6.867188 4.242188 -7.210938 3.984375 -7.421875 C 3.722656 -7.640625 3.285156 -7.75 2.671875 -7.75 L 2.453125 -7.75 Z M 2.453125 -4.96875 "/></g></g></g><g fill="#ffffff" fill-opacity="1"><g transform="translate(158.926439, 99.211102)"><g><path d="M 4.875 -9.453125 L 8.375 0 L 6.453125 0 L 5.75 -1.9375 L 2.546875 -1.9375 L 1.78125 0 L -0.109375 0 L 3.484375 -9.453125 Z M 3.046875 -3.40625 L 5.234375 -3.40625 L 4.09375 -6.75 L 4.0625 -6.75 Z M 3.046875 -3.40625 "/></g></g></g><g fill="#ffffff" fill-opacity="1"><g transform="translate(169.625895, 99.211102)"><g><path d="M 2.953125 -9.21875 C 3.847656 -9.21875 4.519531 -9.007812 4.96875 -8.59375 C 5.425781 -8.175781 5.65625 -7.550781 5.65625 -6.71875 C 5.65625 -6.375 5.59375 -6.035156 5.46875 -5.703125 C 5.34375 -5.367188 5.132812 -5.109375 4.84375 -4.921875 C 5.34375 -4.828125 5.726562 -4.5625 6 -4.125 C 6.28125 -3.695312 6.421875 -3.191406 6.421875 -2.609375 C 6.421875 -1.785156 6.160156 -1.144531 5.640625 -0.6875 C 5.128906 -0.226562 4.421875 0 3.515625 0 L 0.65625 0 L 0.65625 -9.21875 Z M 2.453125 -5.375 L 2.671875 -5.375 C 3.160156 -5.375 3.5 -5.460938 3.6875 -5.640625 C 3.882812 -5.828125 3.984375 -6.140625 3.984375 -6.578125 C 3.984375 -6.972656 3.882812 -7.269531 3.6875 -7.46875 C 3.488281 -7.664062 3.144531 -7.765625 2.65625 -7.765625 L 2.453125 -7.765625 Z M 2.453125 -1.4375 L 2.953125 -1.4375 C 3.546875 -1.4375 3.972656 -1.535156 4.234375 -1.734375 C 4.492188 -1.941406 4.625 -2.285156 4.625 -2.765625 C 4.625 -3.140625 4.539062 -3.410156 4.375 -3.578125 C 4.207031 -3.753906 4.019531 -3.863281 3.8125 -3.90625 C 3.570312 -3.96875 3.242188 -4 2.828125 -4 L 2.453125 -4 Z M 2.453125 -1.4375 "/></g></g></g><g fill="#ffffff" fill-opacity="1"><g transform="translate(178.823329, 99.211102)"><g><path d="M 2.453125 -9.21875 L 2.453125 0 L 0.65625 0 L 0.65625 -9.21875 Z M 2.453125 -9.21875 "/></g></g></g><g fill="#ffffff" fill-opacity="1"><g transform="translate(184.369511, 99.211102)"><g><path d="M 2.453125 -9.21875 L 2.453125 -1.5625 L 5 -1.5625 L 5 0 L 0.65625 0 L 0.65625 -9.21875 Z M 2.453125 -9.21875 "/></g></g></g><g fill="#ffffff" fill-opacity="1"><g transform="translate(191.723008, 99.211102)"><g><path d="M 2.453125 -9.21875 L 2.453125 0 L 0.65625 0 L 0.65625 -9.21875 Z M 2.453125 -9.21875 "/></g></g></g><g fill="#ffffff" fill-opacity="1"><g transform="translate(197.26919, 99.211102)"><g><path d="M 5.515625 -9.21875 L 5.515625 -7.65625 L 3.65625 -7.65625 L 3.65625 0 L 1.859375 0 L 1.859375 -7.65625 L 0 -7.65625 L 0 -9.21875 Z M 5.515625 -9.21875 "/></g></g></g><g fill="#ffffff" fill-opacity="1"><g transform="translate(205.221053, 99.211102)"><g><path d="M 1.890625 -9.21875 L 3.5 -6.015625 L 5.265625 -9.21875 L 7.375 -9.21875 L 4.453125 -4.234375 L 4.453125 0 L 2.65625 0 L 2.65625 -4.234375 L -0.203125 -9.21875 Z M 1.890625 -9.21875 "/></g></g></g><g clip-path="url(#53ecbe69c7)"><path fill="#4360e0" d="M 44.058594 172.714844 L 269.8125 172.714844 L 269.8125 274.820312 L 44.058594 274.820312 Z M 44.058594 172.714844 " fill-opacity="1" fill-rule="nonzero"/></g><g fill="#ffffff" fill-opacity="1"><g transform="translate(121.42008, 227.413949)"><g><path d="M 2.953125 -9.453125 L 5.234375 -3.390625 L 7.40625 -9.453125 L 8.703125 -9.453125 L 10.078125 0 L 8.265625 0 L 7.53125 -5.71875 L 7.515625 -5.71875 L 5.421875 0.125 L 4.796875 0.125 L 2.78125 -5.71875 L 2.765625 -5.71875 L 1.9375 0 L 0.140625 0 L 1.6875 -9.453125 Z M 2.953125 -9.453125 "/></g></g></g><g fill="#ffffff" fill-opacity="1"><g transform="translate(134.073387, 227.413949)"><g><path d="M 4.875 -9.453125 L 8.375 0 L 6.453125 0 L 5.75 -1.9375 L 2.546875 -1.9375 L 1.78125 0 L -0.109375 0 L 3.484375 -9.453125 Z M 3.046875 -3.40625 L 5.234375 -3.40625 L 4.09375 -6.75 L 4.0625 -6.75 Z M 3.046875 -3.40625 "/></g></g></g><g fill="#ffffff" fill-opacity="1"><g transform="translate(144.772845, 227.413949)"><g><path d="M 2.453125 -9.21875 L 2.453125 -1.5625 L 5 -1.5625 L 5 0 L 0.65625 0 L 0.65625 -9.21875 Z M 2.453125 -9.21875 "/></g></g></g><g fill="#ffffff" fill-opacity="1"><g transform="translate(152.126345, 227.413949)"><g><path d="M 6.484375 -9.328125 L 8.390625 -2.9375 L 8.421875 -2.9375 L 10.234375 -9.21875 L 12.109375 -9.21875 L 9 0.1875 L 7.671875 0.1875 L 5.84375 -5.84375 L 5.8125 -5.84375 L 4.078125 0.1875 L 2.765625 0.1875 L -0.171875 -9.21875 L 1.703125 -9.21875 L 3.5625 -2.9375 L 3.59375 -2.9375 L 5.421875 -9.328125 Z M 6.484375 -9.328125 "/></g></g></g><g fill="#ffffff" fill-opacity="1"><g transform="translate(166.501486, 227.413949)"><g><path d="M 4.875 -9.453125 L 8.375 0 L 6.453125 0 L 5.75 -1.9375 L 2.546875 -1.9375 L 1.78125 0 L -0.109375 0 L 3.484375 -9.453125 Z M 3.046875 -3.40625 L 5.234375 -3.40625 L 4.09375 -6.75 L 4.0625 -6.75 Z M 3.046875 -3.40625 "/></g></g></g><g fill="#ffffff" fill-opacity="1"><g transform="translate(177.200943, 227.413949)"><g><path d="M 3.140625 -9.21875 C 4.109375 -9.21875 4.851562 -8.976562 5.375 -8.5 C 5.90625 -8.019531 6.171875 -7.332031 6.171875 -6.4375 C 6.171875 -5.789062 5.992188 -5.222656 5.640625 -4.734375 C 5.285156 -4.242188 4.832031 -3.960938 4.28125 -3.890625 L 6.890625 0 L 4.71875 0 L 2.484375 -3.71875 L 2.453125 -3.71875 L 2.453125 0 L 0.65625 0 L 0.65625 -9.21875 Z M 2.453125 -4.96875 L 2.65625 -4.96875 C 3.269531 -4.96875 3.707031 -5.082031 3.96875 -5.3125 C 4.238281 -5.539062 4.375 -5.898438 4.375 -6.390625 C 4.375 -6.867188 4.242188 -7.210938 3.984375 -7.421875 C 3.722656 -7.640625 3.285156 -7.75 2.671875 -7.75 L 2.453125 -7.75 Z M 2.453125 -4.96875 "/></g></g></g><g fill="#ffffff" fill-opacity="1"><g transform="translate(186.459433, 227.413949)"><g><path d="M 5.421875 -9.21875 L 5.421875 -7.65625 L 2.453125 -7.65625 L 2.453125 -5.625 L 5.3125 -5.625 L 5.3125 -4.0625 L 2.453125 -4.0625 L 2.453125 -1.5625 L 5.421875 -1.5625 L 5.421875 0 L 0.65625 0 L 0.65625 -9.21875 Z M 5.421875 -9.21875 "/></g></g></g><g clip-path="url(#8aee72b6cf)"><path fill="#4360e0" d="M 280.199219 44.511719 L 505.953125 44.511719 L 505.953125 146.617188 L 280.199219 146.617188 Z M 280.199219 44.511719 " fill-opacity="1" fill-rule="nonzero"/></g><g fill="#ffffff" fill-opacity="1"><g transform="translate(362.453047, 99.211102)"><g><path d="M 8.25 -1.28125 L 9.5 0.203125 L 7.703125 0.390625 L 7.0625 -0.375 C 6.75 -0.164062 6.394531 -0.0078125 6 0.09375 C 5.613281 0.195312 5.207031 0.25 4.78125 0.25 C 3.925781 0.25 3.148438 0.0351562 2.453125 -0.390625 C 1.765625 -0.816406 1.21875 -1.40625 0.8125 -2.15625 C 0.414062 -2.90625 0.21875 -3.726562 0.21875 -4.625 C 0.21875 -5.5 0.421875 -6.3125 0.828125 -7.0625 C 1.234375 -7.8125 1.78125 -8.394531 2.46875 -8.8125 C 3.164062 -9.238281 3.9375 -9.453125 4.78125 -9.453125 C 5.613281 -9.453125 6.375 -9.242188 7.0625 -8.828125 C 7.75 -8.410156 8.296875 -7.820312 8.703125 -7.0625 C 9.117188 -6.3125 9.328125 -5.5 9.328125 -4.625 C 9.328125 -3.988281 9.238281 -3.390625 9.0625 -2.828125 C 8.882812 -2.273438 8.613281 -1.757812 8.25 -1.28125 Z M 5.75 -1.796875 L 4.234375 -3.546875 L 6.078125 -3.6875 L 6.90625 -2.765625 C 7.101562 -3.015625 7.25 -3.3125 7.34375 -3.65625 C 7.4375 -4.007812 7.484375 -4.347656 7.484375 -4.671875 C 7.484375 -5.179688 7.363281 -5.671875 7.125 -6.140625 C 6.894531 -6.617188 6.566406 -7.003906 6.140625 -7.296875 C 5.722656 -7.597656 5.265625 -7.75 4.765625 -7.75 C 4.003906 -7.75 3.363281 -7.4375 2.84375 -6.8125 C 2.332031 -6.1875 2.078125 -5.421875 2.078125 -4.515625 C 2.078125 -3.671875 2.328125 -2.953125 2.828125 -2.359375 C 3.328125 -1.773438 3.972656 -1.484375 4.765625 -1.484375 C 4.929688 -1.484375 5.101562 -1.515625 5.28125 -1.578125 C 5.46875 -1.640625 5.625 -1.710938 5.75 -1.796875 Z M 5.75 -1.796875 "/></g></g></g><g fill="#ffffff" fill-opacity="1"><g transform="translate(374.446924, 99.211102)"><g><path d="M 2.40625 -9.21875 L 2.40625 -3.96875 C 2.40625 -3.070312 2.535156 -2.40625 2.796875 -1.96875 C 3.054688 -1.53125 3.46875 -1.3125 4.03125 -1.3125 C 4.601562 -1.3125 5.015625 -1.523438 5.265625 -1.953125 C 5.523438 -2.390625 5.65625 -3.054688 5.65625 -3.953125 L 5.65625 -9.21875 L 7.453125 -9.21875 L 7.453125 -3.65625 C 7.453125 -2.414062 7.160156 -1.453125 6.578125 -0.765625 C 5.992188 -0.0859375 5.144531 0.25 4.03125 0.25 C 2.914062 0.25 2.066406 -0.09375 1.484375 -0.78125 C 0.898438 -1.46875 0.609375 -2.425781 0.609375 -3.65625 L 0.609375 -9.21875 Z M 2.40625 -9.21875 "/></g></g></g><g fill="#ffffff" fill-opacity="1"><g transform="translate(384.951, 99.211102)"><g><path d="M 4.875 -9.453125 L 8.375 0 L 6.453125 0 L 5.75 -1.9375 L 2.546875 -1.9375 L 1.78125 0 L -0.109375 0 L 3.484375 -9.453125 Z M 3.046875 -3.40625 L 5.234375 -3.40625 L 4.09375 -6.75 L 4.0625 -6.75 Z M 3.046875 -3.40625 "/></g></g></g><g fill="#ffffff" fill-opacity="1"><g transform="translate(395.650454, 99.211102)"><g><path d="M 2.453125 -9.21875 L 2.453125 -1.5625 L 5 -1.5625 L 5 0 L 0.65625 0 L 0.65625 -9.21875 Z M 2.453125 -9.21875 "/></g></g></g><g fill="#ffffff" fill-opacity="1"><g transform="translate(403.00395, 99.211102)"><g><path d="M 2.453125 -9.21875 L 2.453125 0 L 0.65625 0 L 0.65625 -9.21875 Z M 2.453125 -9.21875 "/></g></g></g><g fill="#ffffff" fill-opacity="1"><g transform="translate(408.55013, 99.211102)"><g><path d="M 5.515625 -9.21875 L 5.515625 -7.65625 L 3.65625 -7.65625 L 3.65625 0 L 1.859375 0 L 1.859375 -7.65625 L 0 -7.65625 L 0 -9.21875 Z M 5.515625 -9.21875 "/></g></g></g><g fill="#ffffff" fill-opacity="1"><g transform="translate(416.501984, 99.211102)"><g><path d="M 1.890625 -9.21875 L 3.5 -6.015625 L 5.265625 -9.21875 L 7.375 -9.21875 L 4.453125 -4.234375 L 4.453125 0 L 2.65625 0 L 2.65625 -4.234375 L -0.203125 -9.21875 Z M 1.890625 -9.21875 "/></g></g></g><g clip-path="url(#590c76f1c4)"><path fill="#4360e0" d="M 280.199219 172.714844 L 505.953125 172.714844 L 505.953125 274.820312 L 280.199219 274.820312 Z M 280.199219 172.714844 " fill-opacity="1" fill-rule="nonzero"/></g><g fill="#ffffff" fill-opacity="1"><g transform="translate(361.106614, 227.413949)"><g><path d="M 5 -7.1875 C 4.820312 -7.414062 4.617188 -7.597656 4.390625 -7.734375 C 4.171875 -7.867188 3.910156 -7.9375 3.609375 -7.9375 C 3.304688 -7.9375 3.046875 -7.832031 2.828125 -7.625 C 2.609375 -7.425781 2.5 -7.1875 2.5 -6.90625 C 2.5 -6.644531 2.601562 -6.421875 2.8125 -6.234375 C 3.03125 -6.054688 3.351562 -5.882812 3.78125 -5.71875 C 4.507812 -5.414062 5.023438 -5.125 5.328125 -4.84375 C 5.640625 -4.570312 5.851562 -4.273438 5.96875 -3.953125 C 6.082031 -3.640625 6.140625 -3.289062 6.140625 -2.90625 C 6.140625 -1.96875 5.863281 -1.207031 5.3125 -0.625 C 4.757812 -0.0390625 4.023438 0.25 3.109375 0.25 C 2.472656 0.25 1.921875 0.0820312 1.453125 -0.25 C 0.984375 -0.582031 0.59375 -1.015625 0.28125 -1.546875 L 1.4375 -2.6875 C 1.582031 -2.300781 1.804688 -1.976562 2.109375 -1.71875 C 2.421875 -1.46875 2.753906 -1.34375 3.109375 -1.34375 C 3.441406 -1.34375 3.71875 -1.46875 3.9375 -1.71875 C 4.164062 -1.96875 4.28125 -2.285156 4.28125 -2.671875 C 4.28125 -3.015625 4.175781 -3.285156 3.96875 -3.484375 C 3.757812 -3.691406 3.445312 -3.878906 3.03125 -4.046875 C 2.113281 -4.390625 1.484375 -4.757812 1.140625 -5.15625 C 0.804688 -5.550781 0.640625 -6.066406 0.640625 -6.703125 C 0.640625 -7.179688 0.75 -7.632812 0.96875 -8.0625 C 1.195312 -8.488281 1.519531 -8.828125 1.9375 -9.078125 C 2.351562 -9.328125 2.816406 -9.453125 3.328125 -9.453125 C 3.773438 -9.453125 4.242188 -9.347656 4.734375 -9.140625 C 5.222656 -8.941406 5.59375 -8.707031 5.84375 -8.4375 Z M 5 -7.1875 "/></g></g></g><g fill="#ffffff" fill-opacity="1"><g transform="translate(369.974335, 227.413949)"><g><path d="M 2.40625 -9.21875 L 2.40625 -3.96875 C 2.40625 -3.070312 2.535156 -2.40625 2.796875 -1.96875 C 3.054688 -1.53125 3.46875 -1.3125 4.03125 -1.3125 C 4.601562 -1.3125 5.015625 -1.523438 5.265625 -1.953125 C 5.523438 -2.390625 5.65625 -3.054688 5.65625 -3.953125 L 5.65625 -9.21875 L 7.453125 -9.21875 L 7.453125 -3.65625 C 7.453125 -2.414062 7.160156 -1.453125 6.578125 -0.765625 C 5.992188 -0.0859375 5.144531 0.25 4.03125 0.25 C 2.914062 0.25 2.066406 -0.09375 1.484375 -0.78125 C 0.898438 -1.46875 0.609375 -2.425781 0.609375 -3.65625 L 0.609375 -9.21875 Z M 2.40625 -9.21875 "/></g></g></g><g fill="#ffffff" fill-opacity="1"><g transform="translate(380.478414, 227.413949)"><g><path d="M 3.171875 -9.21875 C 4.203125 -9.21875 4.976562 -8.976562 5.5 -8.5 C 6.03125 -8.019531 6.296875 -7.304688 6.296875 -6.359375 C 6.296875 -5.378906 6.035156 -4.648438 5.515625 -4.171875 C 5.003906 -3.691406 4.300781 -3.453125 3.40625 -3.453125 L 2.453125 -3.453125 L 2.453125 0 L 0.65625 0 L 0.65625 -9.21875 Z M 2.453125 -4.9375 L 2.84375 -4.9375 C 3.40625 -4.9375 3.8125 -5.03125 4.0625 -5.21875 C 4.320312 -5.414062 4.453125 -5.796875 4.453125 -6.359375 C 4.453125 -6.867188 4.328125 -7.222656 4.078125 -7.421875 C 3.835938 -7.617188 3.4375 -7.71875 2.875 -7.71875 L 2.453125 -7.71875 Z M 2.453125 -4.9375 "/></g></g></g><g fill="#ffffff" fill-opacity="1"><g transform="translate(389.37057, 227.413949)"><g><path d="M 3.171875 -9.21875 C 4.203125 -9.21875 4.976562 -8.976562 5.5 -8.5 C 6.03125 -8.019531 6.296875 -7.304688 6.296875 -6.359375 C 6.296875 -5.378906 6.035156 -4.648438 5.515625 -4.171875 C 5.003906 -3.691406 4.300781 -3.453125 3.40625 -3.453125 L 2.453125 -3.453125 L 2.453125 0 L 0.65625 0 L 0.65625 -9.21875 Z M 2.453125 -4.9375 L 2.84375 -4.9375 C 3.40625 -4.9375 3.8125 -5.03125 4.0625 -5.21875 C 4.320312 -5.414062 4.453125 -5.796875 4.453125 -6.359375 C 4.453125 -6.867188 4.328125 -7.222656 4.078125 -7.421875 C 3.835938 -7.617188 3.4375 -7.71875 2.875 -7.71875 L 2.453125 -7.71875 Z M 2.453125 -4.9375 "/></g></g></g><g fill="#ffffff" fill-opacity="1"><g transform="translate(398.262724, 227.413949)"><g><path d="M 0.21875 -4.625 C 0.21875 -5.550781 0.410156 -6.378906 0.796875 -7.109375 C 1.179688 -7.847656 1.722656 -8.421875 2.421875 -8.828125 C 3.117188 -9.242188 3.90625 -9.453125 4.78125 -9.453125 C 5.664062 -9.453125 6.457031 -9.238281 7.15625 -8.8125 C 7.863281 -8.382812 8.398438 -7.800781 8.765625 -7.0625 C 9.140625 -6.332031 9.328125 -5.519531 9.328125 -4.625 C 9.328125 -3.6875 9.132812 -2.84375 8.75 -2.09375 C 8.363281 -1.351562 7.828125 -0.773438 7.140625 -0.359375 C 6.453125 0.046875 5.664062 0.25 4.78125 0.25 C 3.90625 0.25 3.125 0.046875 2.4375 -0.359375 C 1.75 -0.765625 1.207031 -1.34375 0.8125 -2.09375 C 0.414062 -2.84375 0.21875 -3.6875 0.21875 -4.625 Z M 4.765625 -7.6875 C 3.992188 -7.6875 3.351562 -7.390625 2.84375 -6.796875 C 2.332031 -6.210938 2.078125 -5.507812 2.078125 -4.6875 C 2.078125 -3.769531 2.316406 -3.015625 2.796875 -2.421875 C 3.285156 -1.828125 3.945312 -1.53125 4.78125 -1.53125 C 5.613281 -1.53125 6.269531 -1.828125 6.75 -2.421875 C 7.238281 -3.015625 7.484375 -3.769531 7.484375 -4.6875 C 7.484375 -5.519531 7.222656 -6.226562 6.703125 -6.8125 C 6.191406 -7.394531 5.546875 -7.6875 4.765625 -7.6875 Z M 4.765625 -7.6875 "/></g></g></g><g fill="#ffffff" fill-opacity="1"><g transform="translate(410.256602, 227.413949)"><g><path d="M 3.140625 -9.21875 C 4.109375 -9.21875 4.851562 -8.976562 5.375 -8.5 C 5.90625 -8.019531 6.171875 -7.332031 6.171875 -6.4375 C 6.171875 -5.789062 5.992188 -5.222656 5.640625 -4.734375 C 5.285156 -4.242188 4.832031 -3.960938 4.28125 -3.890625 L 6.890625 0 L 4.71875 0 L 2.484375 -3.71875 L 2.453125 -3.71875 L 2.453125 0 L 0.65625 0 L 0.65625 -9.21875 Z M 2.453125 -4.96875 L 2.65625 -4.96875 C 3.269531 -4.96875 3.707031 -5.082031 3.96875 -5.3125 C 4.238281 -5.539062 4.375 -5.898438 4.375 -6.390625 C 4.375 -6.867188 4.242188 -7.210938 3.984375 -7.421875 C 3.722656 -7.640625 3.285156 -7.75 2.671875 -7.75 L 2.453125 -7.75 Z M 2.453125 -4.96875 "/></g></g></g><g fill="#ffffff" fill-opacity="1"><g transform="translate(419.515092, 227.413949)"><g><path d="M 5.515625 -9.21875 L 5.515625 -7.65625 L 3.65625 -7.65625 L 3.65625 0 L 1.859375 0 L 1.859375 -7.65625 L 0 -7.65625 L 0 -9.21875 Z M 5.515625 -9.21875 "/></g></g></g><g clip-path="url(#04c4ce7aa7)"><path fill="#743290" d="M 44.058594 294.632812 L 505.9375 294.632812 L 505.9375 396.738281 L 44.058594 396.738281 Z M 44.058594 294.632812 " fill-opacity="1" fill-rule="nonzero"/></g><g fill="#ffffff" fill-opacity="1"><g transform="translate(232.998424, 349.332957)"><g><path d="M 2.453125 -9.21875 L 2.453125 0 L 0.65625 0 L 0.65625 -9.21875 Z M 2.453125 -9.21875 "/></g></g></g><g fill="#ffffff" fill-opacity="1"><g transform="translate(238.544608, 349.332957)"><g><path d="M 1.953125 -9.453125 L 6.8125 -3.015625 L 6.828125 -3.015625 L 6.828125 -9.21875 L 8.625 -9.21875 L 8.625 0.1875 L 7.328125 0.1875 L 2.484375 -6.25 L 2.453125 -6.25 L 2.453125 0 L 0.65625 0 L 0.65625 -9.453125 Z M 1.953125 -9.453125 "/></g></g></g><g fill="#ffffff" fill-opacity="1"><g transform="translate(250.25763, 349.332957)"><g><path d="M 1.765625 -9.21875 L 3.96875 -3 L 4 -3 L 6.046875 -9.21875 L 7.984375 -9.21875 L 4.40625 0.25 L 3.34375 0.25 L -0.171875 -9.21875 Z M 1.765625 -9.21875 "/></g></g></g><g fill="#ffffff" fill-opacity="1"><g transform="translate(260.505263, 349.332957)"><g><path d="M 5.421875 -9.21875 L 5.421875 -7.65625 L 2.453125 -7.65625 L 2.453125 -5.625 L 5.3125 -5.625 L 5.3125 -4.0625 L 2.453125 -4.0625 L 2.453125 -1.5625 L 5.421875 -1.5625 L 5.421875 0 L 0.65625 0 L 0.65625 -9.21875 Z M 5.421875 -9.21875 "/></g></g></g><g fill="#ffffff" fill-opacity="1"><g transform="translate(268.908946, 349.332957)"><g><path d="M 1.953125 -9.453125 L 6.8125 -3.015625 L 6.828125 -3.015625 L 6.828125 -9.21875 L 8.625 -9.21875 L 8.625 0.1875 L 7.328125 0.1875 L 2.484375 -6.25 L 2.453125 -6.25 L 2.453125 0 L 0.65625 0 L 0.65625 -9.453125 Z M 1.953125 -9.453125 "/></g></g></g><g fill="#ffffff" fill-opacity="1"><g transform="translate(280.621967, 349.332957)"><g><path d="M 5.515625 -9.21875 L 5.515625 -7.65625 L 3.65625 -7.65625 L 3.65625 0 L 1.859375 0 L 1.859375 -7.65625 L 0 -7.65625 L 0 -9.21875 Z M 5.515625 -9.21875 "/></g></g></g><g fill="#ffffff" fill-opacity="1"><g transform="translate(288.573824, 349.332957)"><g><path d="M 0.21875 -4.625 C 0.21875 -5.550781 0.410156 -6.378906 0.796875 -7.109375 C 1.179688 -7.847656 1.722656 -8.421875 2.421875 -8.828125 C 3.117188 -9.242188 3.90625 -9.453125 4.78125 -9.453125 C 5.664062 -9.453125 6.457031 -9.238281 7.15625 -8.8125 C 7.863281 -8.382812 8.398438 -7.800781 8.765625 -7.0625 C 9.140625 -6.332031 9.328125 -5.519531 9.328125 -4.625 C 9.328125 -3.6875 9.132812 -2.84375 8.75 -2.09375 C 8.363281 -1.351562 7.828125 -0.773438 7.140625 -0.359375 C 6.453125 0.046875 5.664062 0.25 4.78125 0.25 C 3.90625 0.25 3.125 0.046875 2.4375 -0.359375 C 1.75 -0.765625 1.207031 -1.34375 0.8125 -2.09375 C 0.414062 -2.84375 0.21875 -3.6875 0.21875 -4.625 Z M 4.765625 -7.6875 C 3.992188 -7.6875 3.351562 -7.390625 2.84375 -6.796875 C 2.332031 -6.210938 2.078125 -5.507812 2.078125 -4.6875 C 2.078125 -3.769531 2.316406 -3.015625 2.796875 -2.421875 C 3.285156 -1.828125 3.945312 -1.53125 4.78125 -1.53125 C 5.613281 -1.53125 6.269531 -1.828125 6.75 -2.421875 C 7.238281 -3.015625 7.484375 -3.769531 7.484375 -4.6875 C 7.484375 -5.519531 7.222656 -6.226562 6.703125 -6.8125 C 6.191406 -7.394531 5.546875 -7.6875 4.765625 -7.6875 Z M 4.765625 -7.6875 "/></g></g></g><g fill="#ffffff" fill-opacity="1"><g transform="translate(300.567702, 349.332957)"><g><path d="M 3.140625 -9.21875 C 4.109375 -9.21875 4.851562 -8.976562 5.375 -8.5 C 5.90625 -8.019531 6.171875 -7.332031 6.171875 -6.4375 C 6.171875 -5.789062 5.992188 -5.222656 5.640625 -4.734375 C 5.285156 -4.242188 4.832031 -3.960938 4.28125 -3.890625 L 6.890625 0 L 4.71875 0 L 2.484375 -3.71875 L 2.453125 -3.71875 L 2.453125 0 L 0.65625 0 L 0.65625 -9.21875 Z M 2.453125 -4.96875 L 2.65625 -4.96875 C 3.269531 -4.96875 3.707031 -5.082031 3.96875 -5.3125 C 4.238281 -5.539062 4.375 -5.898438 4.375 -6.390625 C 4.375 -6.867188 4.242188 -7.210938 3.984375 -7.421875 C 3.722656 -7.640625 3.285156 -7.75 2.671875 -7.75 L 2.453125 -7.75 Z M 2.453125 -4.96875 "/></g></g></g><g fill="#ffffff" fill-opacity="1"><g transform="translate(309.826191, 349.332957)"><g><path d="M 1.890625 -9.21875 L 3.5 -6.015625 L 5.265625 -9.21875 L 7.375 -9.21875 L 4.453125 -4.234375 L 4.453125 0 L 2.65625 0 L 2.65625 -4.234375 L -0.203125 -9.21875 Z M 1.890625 -9.21875 "/></g></g></g></svg>