<svg xmlns="http://www.w3.org/2000/svg" xmlns:xlink="http://www.w3.org/1999/xlink" width="1366" zoomAndPan="magnify" viewBox="0 0 1024.5 576" height="768" preserveAspectRatio="xMidYMid meet" version="1.0"><defs><g/><clipPath id="8e818cb083"><path d="M 0 0.140625 L 1024 0.140625 L 1024 575.859375 L 0 575.859375 Z M 0 0.140625 " clip-rule="nonzero"/></clipPath></defs><g clip-path="url(#8e818cb083)"><path fill="#ffffff" d="M 0 0.140625 L 1024 0.140625 L 1024 575.859375 L 0 575.859375 Z M 0 0.140625 " fill-opacity="1" fill-rule="nonzero"/><path fill="#9240b5" d="M 0 0.140625 L 1024 0.140625 L 1024 575.859375 L 0 575.859375 Z M 0 0.140625 " fill-opacity="1" fill-rule="nonzero"/></g><g fill="#ffffff" fill-opacity="1"><g transform="translate(190.237227, 259.513897)"><g><path d="M 19.828125 -55.578125 C 23.066406 -55.578125 26.332031 -54.960938 29.625 -53.734375 C 32.914062 -52.503906 35.851562 -50.609375 38.4375 -48.046875 C 41.019531 -45.492188 42.972656 -42.460938 44.296875 -38.953125 C 45.617188 -35.441406 46.28125 -31.695312 46.28125 -27.71875 C 46.28125 -22.351562 45.085938 -17.546875 42.703125 -13.296875 C 40.328125 -9.046875 37.097656 -5.765625 33.015625 -3.453125 C 28.941406 -1.148438 24.519531 0 19.75 0 L 3.984375 0 L 3.984375 -55.578125 Z M 14.8125 -9.4375 L 16.359375 -9.4375 C 22.648438 -9.4375 27.34375 -10.96875 30.4375 -14.03125 C 33.53125 -17.101562 35.078125 -21.6875 35.078125 -27.78125 C 35.078125 -33.78125 33.550781 -38.335938 30.5 -41.453125 C 27.457031 -44.578125 22.742188 -46.140625 16.359375 -46.140625 L 14.8125 -46.140625 Z M 14.8125 -9.4375 "/></g></g></g><g fill="#ffffff" fill-opacity="1"><g transform="translate(237.838833, 259.513897)"><g><path d="M 1.171875 -18.0625 C 1.171875 -23.757812 2.960938 -28.398438 6.546875 -31.984375 C 10.140625 -35.578125 14.6875 -37.375 20.1875 -37.375 C 25.789062 -37.375 30.359375 -35.550781 33.890625 -31.90625 C 37.429688 -28.269531 39.203125 -23.65625 39.203125 -18.0625 C 39.203125 -12.40625 37.421875 -7.785156 33.859375 -4.203125 C 30.296875 -0.617188 25.738281 1.171875 20.1875 1.171875 C 14.632812 1.171875 10.078125 -0.628906 6.515625 -4.234375 C 2.953125 -7.847656 1.171875 -12.457031 1.171875 -18.0625 Z M 20.125 -28.234375 C 17.8125 -28.234375 15.816406 -27.238281 14.140625 -25.25 C 12.472656 -23.257812 11.640625 -20.863281 11.640625 -18.0625 C 11.640625 -15.351562 12.472656 -12.988281 14.140625 -10.96875 C 15.816406 -8.957031 17.832031 -7.953125 20.1875 -7.953125 C 22.644531 -7.953125 24.6875 -8.957031 26.3125 -10.96875 C 27.9375 -12.988281 28.75 -15.351562 28.75 -18.0625 C 28.75 -20.707031 27.945312 -23.0625 26.34375 -25.125 C 24.75 -27.195312 22.675781 -28.234375 20.125 -28.234375 Z M 20.125 -28.234375 "/></g></g></g><g fill="#ffffff" fill-opacity="1"><g transform="translate(278.219137, 259.513897)"><g><path d="M 12.015625 -16.4375 C 12.015625 -13.4375 12.648438 -11.0625 13.921875 -9.3125 C 15.203125 -7.570312 16.945312 -6.703125 19.15625 -6.703125 C 20.882812 -6.703125 22.300781 -7.164062 23.40625 -8.09375 C 24.507812 -9.03125 25.40625 -10.210938 26.09375 -11.640625 L 35.59375 -10.09375 C 34.320312 -6.40625 32.222656 -3.601562 29.296875 -1.6875 C 26.367188 0.21875 22.988281 1.171875 19.15625 1.171875 C 13.800781 1.171875 9.453125 -0.566406 6.109375 -4.046875 C 2.773438 -7.535156 1.109375 -12.109375 1.109375 -17.765625 C 1.109375 -23.710938 2.679688 -28.46875 5.828125 -32.03125 C 8.972656 -35.59375 13.242188 -37.375 18.640625 -37.375 C 24.046875 -37.375 28.257812 -35.628906 31.28125 -32.140625 C 34.300781 -28.648438 35.8125 -23.707031 35.8125 -17.3125 L 35.8125 -16.4375 Z M 26.09375 -22.84375 C 25.75 -25.101562 24.9375 -26.882812 23.65625 -28.1875 C 22.382812 -29.488281 20.882812 -30.140625 19.15625 -30.140625 C 17.539062 -30.140625 16.09375 -29.550781 14.8125 -28.375 C 13.53125 -27.195312 12.695312 -25.351562 12.3125 -22.84375 Z M 26.09375 -22.84375 "/></g></g></g><g fill="#ffffff" fill-opacity="1"><g transform="translate(315.136169, 259.513897)"><g><path d="M 22.265625 -27.640625 C 21.523438 -28.328125 20.6875 -28.914062 19.75 -29.40625 C 18.820312 -29.894531 17.835938 -30.140625 16.796875 -30.140625 C 15.960938 -30.140625 15.1875 -29.84375 14.46875 -29.25 C 13.757812 -28.664062 13.40625 -27.929688 13.40625 -27.046875 C 13.40625 -26.117188 13.8125 -25.382812 14.625 -24.84375 C 15.4375 -24.300781 16.703125 -23.6875 18.421875 -23 L 20.859375 -22.03125 C 23.117188 -21.144531 24.921875 -19.878906 26.265625 -18.234375 C 27.617188 -16.585938 28.296875 -14.390625 28.296875 -11.640625 C 28.296875 -7.910156 26.984375 -4.84375 24.359375 -2.4375 C 21.734375 -0.03125 18.351562 1.171875 14.21875 1.171875 C 11.71875 1.171875 9.359375 0.644531 7.140625 -0.40625 C 4.929688 -1.457031 3.039062 -2.941406 1.46875 -4.859375 L 6.1875 -10.984375 C 7.21875 -9.847656 8.375 -8.863281 9.65625 -8.03125 C 10.9375 -7.195312 12.335938 -6.78125 13.859375 -6.78125 C 14.984375 -6.78125 15.953125 -7.132812 16.765625 -7.84375 C 17.578125 -8.5625 17.984375 -9.507812 17.984375 -10.6875 C 17.984375 -11.8125 17.550781 -12.691406 16.6875 -13.328125 C 15.832031 -13.972656 14.546875 -14.640625 12.828125 -15.328125 C 9.679688 -16.503906 7.578125 -17.570312 6.515625 -18.53125 C 5.460938 -19.488281 4.703125 -20.546875 4.234375 -21.703125 C 3.765625 -22.859375 3.53125 -24.175781 3.53125 -25.65625 C 3.53125 -29.039062 4.625 -31.835938 6.8125 -34.046875 C 9 -36.265625 11.738281 -37.375 15.03125 -37.375 C 17.144531 -37.320312 19.257812 -36.988281 21.375 -36.375 C 23.488281 -35.757812 25.257812 -34.835938 26.6875 -33.609375 Z M 22.265625 -27.640625 "/></g></g></g><g fill="#ffffff" fill-opacity="1"><g transform="translate(345.347719, 259.513897)"><g/></g></g><g fill="#ffffff" fill-opacity="1"><g transform="translate(366.643168, 259.513897)"><g><path d="M 30.140625 -43.34375 C 29.109375 -44.757812 27.914062 -45.875 26.5625 -46.6875 C 25.21875 -47.5 23.632812 -47.90625 21.8125 -47.90625 C 19.945312 -47.90625 18.347656 -47.289062 17.015625 -46.0625 C 15.691406 -44.832031 15.03125 -43.359375 15.03125 -41.640625 C 15.03125 -40.066406 15.679688 -38.726562 16.984375 -37.625 C 18.285156 -36.519531 20.21875 -35.476562 22.78125 -34.5 C 27.195312 -32.675781 30.328125 -30.925781 32.171875 -29.25 C 34.015625 -27.582031 35.289062 -25.789062 36 -23.875 C 36.71875 -21.957031 37.078125 -19.847656 37.078125 -17.546875 C 37.078125 -11.890625 35.40625 -7.304688 32.0625 -3.796875 C 28.71875 -0.285156 24.296875 1.46875 18.796875 1.46875 C 14.960938 1.46875 11.628906 0.472656 8.796875 -1.515625 C 5.972656 -3.503906 3.601562 -6.117188 1.6875 -9.359375 L 8.703125 -16.21875 C 9.535156 -13.851562 10.882812 -11.910156 12.75 -10.390625 C 14.613281 -8.867188 16.601562 -8.109375 18.71875 -8.109375 C 20.78125 -8.109375 22.488281 -8.859375 23.84375 -10.359375 C 25.195312 -11.859375 25.875 -13.785156 25.875 -16.140625 C 25.875 -18.203125 25.234375 -19.847656 23.953125 -21.078125 C 22.671875 -22.304688 20.78125 -23.410156 18.28125 -24.390625 C 12.726562 -26.503906 8.929688 -28.738281 6.890625 -31.09375 C 4.847656 -33.457031 3.828125 -36.554688 3.828125 -40.390625 C 3.828125 -43.335938 4.515625 -46.085938 5.890625 -48.640625 C 7.265625 -51.203125 9.207031 -53.242188 11.71875 -54.765625 C 14.226562 -56.285156 17.003906 -57.046875 20.046875 -57.046875 C 22.742188 -57.046875 25.578125 -56.429688 28.546875 -55.203125 C 31.523438 -53.972656 33.753906 -52.523438 35.234375 -50.859375 Z M 30.140625 -43.34375 "/></g></g></g><g fill="#ffffff" fill-opacity="1"><g transform="translate(405.402372, 259.513897)"><g><path d="M 41.125 -40.828125 C 39.601562 -42.691406 37.75 -44.140625 35.5625 -45.171875 C 33.375 -46.210938 31.148438 -46.734375 28.890625 -46.734375 C 24.171875 -46.734375 20.265625 -44.863281 17.171875 -41.125 C 14.078125 -37.394531 12.53125 -32.875 12.53125 -27.5625 C 12.53125 -22.351562 14.101562 -17.929688 17.25 -14.296875 C 20.394531 -10.660156 24.25 -8.84375 28.8125 -8.84375 C 31.175781 -8.84375 33.4375 -9.394531 35.59375 -10.5 C 37.757812 -11.601562 39.601562 -13.015625 41.125 -14.734375 L 41.125 -1.84375 C 39.0625 -0.863281 37.007812 -0.0664062 34.96875 0.546875 C 32.925781 1.160156 30.773438 1.46875 28.515625 1.46875 C 23.609375 1.46875 19.101562 0.21875 15 -2.28125 C 10.894531 -4.789062 7.585938 -8.304688 5.078125 -12.828125 C 2.578125 -17.347656 1.328125 -22.1875 1.328125 -27.34375 C 1.328125 -32.75 2.53125 -37.75 4.9375 -42.34375 C 7.34375 -46.9375 10.644531 -50.535156 14.84375 -53.140625 C 19.050781 -55.742188 23.6875 -57.046875 28.75 -57.046875 C 30.957031 -57.046875 33.101562 -56.757812 35.1875 -56.1875 C 37.28125 -55.625 39.257812 -54.828125 41.125 -53.796875 Z M 41.125 -40.828125 "/></g></g></g><g fill="#ffffff" fill-opacity="1"><g transform="translate(449.688093, 259.513897)"><g><path d="M 29.40625 -57.046875 L 50.484375 0 L 38.921875 0 L 34.640625 -11.71875 L 15.328125 -11.71875 L 10.765625 0 L -0.65625 0 L 21 -57.046875 Z M 18.421875 -20.5625 L 31.625 -20.5625 L 24.6875 -40.75 L 24.546875 -40.75 Z M 18.421875 -20.5625 "/></g></g></g><g fill="#ffffff" fill-opacity="1"><g transform="translate(499.500282, 259.513897)"><g/></g></g><g fill="#ffffff" fill-opacity="1"><g transform="translate(520.79572, 259.513897)"><g><path d="M 41.125 -40.828125 C 39.601562 -42.691406 37.75 -44.140625 35.5625 -45.171875 C 33.375 -46.210938 31.148438 -46.734375 28.890625 -46.734375 C 24.171875 -46.734375 20.265625 -44.863281 17.171875 -41.125 C 14.078125 -37.394531 12.53125 -32.875 12.53125 -27.5625 C 12.53125 -22.351562 14.101562 -17.929688 17.25 -14.296875 C 20.394531 -10.660156 24.25 -8.84375 28.8125 -8.84375 C 31.175781 -8.84375 33.4375 -9.394531 35.59375 -10.5 C 37.757812 -11.601562 39.601562 -13.015625 41.125 -14.734375 L 41.125 -1.84375 C 39.0625 -0.863281 37.007812 -0.0664062 34.96875 0.546875 C 32.925781 1.160156 30.773438 1.46875 28.515625 1.46875 C 23.609375 1.46875 19.101562 0.21875 15 -2.28125 C 10.894531 -4.789062 7.585938 -8.304688 5.078125 -12.828125 C 2.578125 -17.347656 1.328125 -22.1875 1.328125 -27.34375 C 1.328125 -32.75 2.53125 -37.75 4.9375 -42.34375 C 7.34375 -46.9375 10.644531 -50.535156 14.84375 -53.140625 C 19.050781 -55.742188 23.6875 -57.046875 28.75 -57.046875 C 30.957031 -57.046875 33.101562 -56.757812 35.1875 -56.1875 C 37.28125 -55.625 39.257812 -54.828125 41.125 -53.796875 Z M 41.125 -40.828125 "/></g></g></g><g fill="#ffffff" fill-opacity="1"><g transform="translate(565.081417, 259.513897)"><g><path d="M 1.171875 -18.0625 C 1.171875 -23.757812 2.960938 -28.398438 6.546875 -31.984375 C 10.140625 -35.578125 14.6875 -37.375 20.1875 -37.375 C 25.789062 -37.375 30.359375 -35.550781 33.890625 -31.90625 C 37.429688 -28.269531 39.203125 -23.65625 39.203125 -18.0625 C 39.203125 -12.40625 37.421875 -7.785156 33.859375 -4.203125 C 30.296875 -0.617188 25.738281 1.171875 20.1875 1.171875 C 14.632812 1.171875 10.078125 -0.628906 6.515625 -4.234375 C 2.953125 -7.847656 1.171875 -12.457031 1.171875 -18.0625 Z M 20.125 -28.234375 C 17.8125 -28.234375 15.816406 -27.238281 14.140625 -25.25 C 12.472656 -23.257812 11.640625 -20.863281 11.640625 -18.0625 C 11.640625 -15.351562 12.472656 -12.988281 14.140625 -10.96875 C 15.816406 -8.957031 17.832031 -7.953125 20.1875 -7.953125 C 22.644531 -7.953125 24.6875 -8.957031 26.3125 -10.96875 C 27.9375 -12.988281 28.75 -15.351562 28.75 -18.0625 C 28.75 -20.707031 27.945312 -23.0625 26.34375 -25.125 C 24.75 -27.195312 22.675781 -28.234375 20.125 -28.234375 Z M 20.125 -28.234375 "/></g></g></g><g fill="#ffffff" fill-opacity="1"><g transform="translate(605.461732, 259.513897)"><g><path d="M 10.03125 -36.1875 L 18.5 -15.765625 L 25.9375 -36.1875 L 37.21875 -36.1875 L 20.5625 0.734375 L 15.25 0.734375 L -1.328125 -36.1875 Z M 10.03125 -36.1875 "/></g></g></g><g fill="#ffffff" fill-opacity="1"><g transform="translate(641.420835, 259.513897)"><g><path d="M 12.015625 -16.4375 C 12.015625 -13.4375 12.648438 -11.0625 13.921875 -9.3125 C 15.203125 -7.570312 16.945312 -6.703125 19.15625 -6.703125 C 20.882812 -6.703125 22.300781 -7.164062 23.40625 -8.09375 C 24.507812 -9.03125 25.40625 -10.210938 26.09375 -11.640625 L 35.59375 -10.09375 C 34.320312 -6.40625 32.222656 -3.601562 29.296875 -1.6875 C 26.367188 0.21875 22.988281 1.171875 19.15625 1.171875 C 13.800781 1.171875 9.453125 -0.566406 6.109375 -4.046875 C 2.773438 -7.535156 1.109375 -12.109375 1.109375 -17.765625 C 1.109375 -23.710938 2.679688 -28.46875 5.828125 -32.03125 C 8.972656 -35.59375 13.242188 -37.375 18.640625 -37.375 C 24.046875 -37.375 28.257812 -35.628906 31.28125 -32.140625 C 34.300781 -28.648438 35.8125 -23.707031 35.8125 -17.3125 L 35.8125 -16.4375 Z M 26.09375 -22.84375 C 25.75 -25.101562 24.9375 -26.882812 23.65625 -28.1875 C 22.382812 -29.488281 20.882812 -30.140625 19.15625 -30.140625 C 17.539062 -30.140625 16.09375 -29.550781 14.8125 -28.375 C 13.53125 -27.195312 12.695312 -25.351562 12.3125 -22.84375 Z M 26.09375 -22.84375 "/></g></g></g><g fill="#ffffff" fill-opacity="1"><g transform="translate(678.33789, 259.513897)"><g><path d="M 26.171875 -26.90625 C 24.890625 -27.789062 23.460938 -28.234375 21.890625 -28.234375 C 19.234375 -28.234375 17.253906 -27.332031 15.953125 -25.53125 C 14.648438 -23.738281 14 -20.78125 14 -16.65625 L 14 0 L 3.6875 0 L 3.6875 -36.1875 L 14 -36.1875 L 14 -32.421875 L 14.15625 -32.421875 C 15.1875 -33.992188 16.460938 -35.210938 17.984375 -36.078125 C 19.503906 -36.941406 21.222656 -37.375 23.140625 -37.375 C 24.566406 -37.320312 25.992188 -37.023438 27.421875 -36.484375 Z M 26.171875 -26.90625 "/></g></g></g><g fill="#ffffff" fill-opacity="1"><g transform="translate(705.380904, 259.513897)"><g><path d="M 22.265625 -27.640625 C 21.523438 -28.328125 20.6875 -28.914062 19.75 -29.40625 C 18.820312 -29.894531 17.835938 -30.140625 16.796875 -30.140625 C 15.960938 -30.140625 15.1875 -29.84375 14.46875 -29.25 C 13.757812 -28.664062 13.40625 -27.929688 13.40625 -27.046875 C 13.40625 -26.117188 13.8125 -25.382812 14.625 -24.84375 C 15.4375 -24.300781 16.703125 -23.6875 18.421875 -23 L 20.859375 -22.03125 C 23.117188 -21.144531 24.921875 -19.878906 26.265625 -18.234375 C 27.617188 -16.585938 28.296875 -14.390625 28.296875 -11.640625 C 28.296875 -7.910156 26.984375 -4.84375 24.359375 -2.4375 C 21.734375 -0.03125 18.351562 1.171875 14.21875 1.171875 C 11.71875 1.171875 9.359375 0.644531 7.140625 -0.40625 C 4.929688 -1.457031 3.039062 -2.941406 1.46875 -4.859375 L 6.1875 -10.984375 C 7.21875 -9.847656 8.375 -8.863281 9.65625 -8.03125 C 10.9375 -7.195312 12.335938 -6.78125 13.859375 -6.78125 C 14.984375 -6.78125 15.953125 -7.132812 16.765625 -7.84375 C 17.578125 -8.5625 17.984375 -9.507812 17.984375 -10.6875 C 17.984375 -11.8125 17.550781 -12.691406 16.6875 -13.328125 C 15.832031 -13.972656 14.546875 -14.640625 12.828125 -15.328125 C 9.679688 -16.503906 7.578125 -17.570312 6.515625 -18.53125 C 5.460938 -19.488281 4.703125 -20.546875 4.234375 -21.703125 C 3.765625 -22.859375 3.53125 -24.175781 3.53125 -25.65625 C 3.53125 -29.039062 4.625 -31.835938 6.8125 -34.046875 C 9 -36.265625 11.738281 -37.375 15.03125 -37.375 C 17.144531 -37.320312 19.257812 -36.988281 21.375 -36.375 C 23.488281 -35.757812 25.257812 -34.835938 26.6875 -33.609375 Z M 22.265625 -27.640625 "/></g></g></g><g fill="#ffffff" fill-opacity="1"><g transform="translate(735.592477, 259.513897)"><g/></g></g><g fill="#ffffff" fill-opacity="1"><g transform="translate(756.887915, 259.513897)"><g><path d="M 27.71875 -36.1875 L 37.890625 -36.1875 L 37.890625 0 L 27.71875 0 L 27.71875 -3.3125 L 27.5625 -3.3125 C 26.476562 -1.882812 25.039062 -0.78125 23.25 0 C 21.457031 0.78125 19.628906 1.171875 17.765625 1.171875 C 12.992188 1.171875 9.023438 -0.703125 5.859375 -4.453125 C 2.691406 -8.210938 1.109375 -12.820312 1.109375 -18.28125 C 1.109375 -21.664062 1.796875 -24.804688 3.171875 -27.703125 C 4.546875 -30.609375 6.5 -32.945312 9.03125 -34.71875 C 11.5625 -36.488281 14.421875 -37.375 17.609375 -37.375 C 19.484375 -37.375 21.316406 -36.976562 23.109375 -36.1875 C 24.898438 -35.40625 26.4375 -34.273438 27.71875 -32.796875 Z M 20.046875 -28.234375 C 17.734375 -28.234375 15.742188 -27.238281 14.078125 -25.25 C 12.410156 -23.257812 11.578125 -20.882812 11.578125 -18.125 C 11.578125 -15.375 12.410156 -12.988281 14.078125 -10.96875 C 15.742188 -8.957031 17.757812 -7.953125 20.125 -7.953125 C 22.53125 -7.953125 24.566406 -8.945312 26.234375 -10.9375 C 27.910156 -12.9375 28.75 -15.332031 28.75 -18.125 C 28.75 -20.925781 27.898438 -23.3125 26.203125 -25.28125 C 24.503906 -27.25 22.453125 -28.234375 20.046875 -28.234375 Z M 20.046875 -28.234375 "/></g></g></g><g fill="#ffffff" fill-opacity="1"><g transform="translate(798.520884, 259.513897)"><g><path d="M 14 -62.5 L 14 0 L 3.6875 0 L 3.6875 -62.5 Z M 14 -62.5 "/></g></g></g><g fill="#ffffff" fill-opacity="1"><g transform="translate(816.132024, 259.513897)"><g><path d="M 14 -62.5 L 14 0 L 3.6875 0 L 3.6875 -62.5 Z M 14 -62.5 "/></g></g></g><g fill="#ffffff" fill-opacity="1"><g transform="translate(198.530054, 362.213771)"><g><path d="M 1.328125 -27.859375 C 1.328125 -33.460938 2.492188 -38.472656 4.828125 -42.890625 C 7.160156 -47.316406 10.425781 -50.78125 14.625 -53.28125 C 18.832031 -55.789062 23.5625 -57.046875 28.8125 -57.046875 C 34.164062 -57.046875 38.957031 -55.753906 43.1875 -53.171875 C 47.414062 -50.597656 50.660156 -47.085938 52.921875 -42.640625 C 55.179688 -38.191406 56.3125 -33.265625 56.3125 -27.859375 C 56.3125 -22.210938 55.144531 -17.148438 52.8125 -12.671875 C 50.476562 -8.203125 47.234375 -4.726562 43.078125 -2.25 C 38.921875 0.226562 34.164062 1.46875 28.8125 1.46875 C 23.5625 1.46875 18.859375 0.253906 14.703125 -2.171875 C 10.546875 -4.609375 7.273438 -8.085938 4.890625 -12.609375 C 2.515625 -17.128906 1.328125 -22.210938 1.328125 -27.859375 Z M 28.75 -46.359375 C 24.125 -46.359375 20.265625 -44.585938 17.171875 -41.046875 C 14.078125 -37.515625 12.53125 -33.265625 12.53125 -28.296875 C 12.53125 -22.742188 13.988281 -18.175781 16.90625 -14.59375 C 19.832031 -11.007812 23.800781 -9.21875 28.8125 -9.21875 C 33.820312 -9.21875 37.789062 -11.007812 40.71875 -14.59375 C 43.644531 -18.175781 45.109375 -22.742188 45.109375 -28.296875 C 45.109375 -33.304688 43.554688 -37.566406 40.453125 -41.078125 C 37.359375 -44.597656 33.457031 -46.359375 28.75 -46.359375 Z M 28.75 -46.359375 "/></g></g></g><g fill="#ffffff" fill-opacity="1"><g transform="translate(256.153052, 362.213771)"><g><path d="M 14.15625 -3.390625 L 14 -3.390625 L 14 19.3125 L 3.6875 19.3125 L 3.6875 -36.1875 L 14 -36.1875 L 14 -32.875 C 15.175781 -34.300781 16.671875 -35.40625 18.484375 -36.1875 C 20.304688 -36.976562 22.15625 -37.375 24.03125 -37.375 C 27.070312 -37.375 29.867188 -36.507812 32.421875 -34.78125 C 34.984375 -33.0625 36.972656 -30.71875 38.390625 -27.75 C 39.816406 -24.78125 40.53125 -21.625 40.53125 -18.28125 C 40.53125 -12.726562 38.929688 -8.097656 35.734375 -4.390625 C 32.546875 -0.679688 28.570312 1.171875 23.8125 1.171875 C 21.9375 1.171875 20.125 0.78125 18.375 0 C 16.632812 -0.78125 15.226562 -1.910156 14.15625 -3.390625 Z M 21.453125 -28.234375 C 19.140625 -28.234375 17.144531 -27.238281 15.46875 -25.25 C 13.800781 -23.257812 12.96875 -20.882812 12.96875 -18.125 C 12.96875 -15.375 13.800781 -12.988281 15.46875 -10.96875 C 17.144531 -8.957031 19.160156 -7.953125 21.515625 -7.953125 C 24.023438 -7.953125 26.078125 -8.984375 27.671875 -11.046875 C 29.273438 -13.117188 30.078125 -15.476562 30.078125 -18.125 C 30.078125 -20.882812 29.238281 -23.257812 27.5625 -25.25 C 25.894531 -27.238281 23.859375 -28.234375 21.453125 -28.234375 Z M 21.453125 -28.234375 "/></g></g></g><g fill="#ffffff" fill-opacity="1"><g transform="translate(297.786033, 362.213771)"><g><path d="M 12.015625 -16.4375 C 12.015625 -13.4375 12.648438 -11.0625 13.921875 -9.3125 C 15.203125 -7.570312 16.945312 -6.703125 19.15625 -6.703125 C 20.882812 -6.703125 22.300781 -7.164062 23.40625 -8.09375 C 24.507812 -9.03125 25.40625 -10.210938 26.09375 -11.640625 L 35.59375 -10.09375 C 34.320312 -6.40625 32.222656 -3.601562 29.296875 -1.6875 C 26.367188 0.21875 22.988281 1.171875 19.15625 1.171875 C 13.800781 1.171875 9.453125 -0.566406 6.109375 -4.046875 C 2.773438 -7.535156 1.109375 -12.109375 1.109375 -17.765625 C 1.109375 -23.710938 2.679688 -28.46875 5.828125 -32.03125 C 8.972656 -35.59375 13.242188 -37.375 18.640625 -37.375 C 24.046875 -37.375 28.257812 -35.628906 31.28125 -32.140625 C 34.300781 -28.648438 35.8125 -23.707031 35.8125 -17.3125 L 35.8125 -16.4375 Z M 26.09375 -22.84375 C 25.75 -25.101562 24.9375 -26.882812 23.65625 -28.1875 C 22.382812 -29.488281 20.882812 -30.140625 19.15625 -30.140625 C 17.539062 -30.140625 16.09375 -29.550781 14.8125 -28.375 C 13.53125 -27.195312 12.695312 -25.351562 12.3125 -22.84375 Z M 26.09375 -22.84375 "/></g></g></g><g fill="#ffffff" fill-opacity="1"><g transform="translate(334.703066, 362.213771)"><g><path d="M 36.109375 0 L 25.796875 0 L 25.796875 -20.9375 C 25.796875 -23.582031 25.398438 -25.601562 24.609375 -27 C 23.828125 -28.40625 22.351562 -29.109375 20.1875 -29.109375 C 18.226562 -29.109375 16.707031 -28.332031 15.625 -26.78125 C 14.539062 -25.238281 14 -22.550781 14 -18.71875 L 14 0 L 3.6875 0 L 3.6875 -36.1875 L 14 -36.1875 L 14 -32.875 L 14.15625 -32.875 C 15.226562 -34.488281 16.597656 -35.640625 18.265625 -36.328125 C 19.941406 -37.023438 21.710938 -37.375 23.578125 -37.375 C 27.753906 -37.375 30.882812 -36.109375 32.96875 -33.578125 C 35.0625 -31.046875 36.109375 -27.320312 36.109375 -22.40625 Z M 36.109375 0 "/></g></g></g><g fill="#ffffff" fill-opacity="1"><g transform="translate(374.493886, 362.213771)"><g/></g></g><g fill="#ffffff" fill-opacity="1"><g transform="translate(395.789335, 362.213771)"><g><path d="M 30.140625 -43.34375 C 29.109375 -44.757812 27.914062 -45.875 26.5625 -46.6875 C 25.21875 -47.5 23.632812 -47.90625 21.8125 -47.90625 C 19.945312 -47.90625 18.347656 -47.289062 17.015625 -46.0625 C 15.691406 -44.832031 15.03125 -43.359375 15.03125 -41.640625 C 15.03125 -40.066406 15.679688 -38.726562 16.984375 -37.625 C 18.285156 -36.519531 20.21875 -35.476562 22.78125 -34.5 C 27.195312 -32.675781 30.328125 -30.925781 32.171875 -29.25 C 34.015625 -27.582031 35.289062 -25.789062 36 -23.875 C 36.71875 -21.957031 37.078125 -19.847656 37.078125 -17.546875 C 37.078125 -11.890625 35.40625 -7.304688 32.0625 -3.796875 C 28.71875 -0.285156 24.296875 1.46875 18.796875 1.46875 C 14.960938 1.46875 11.628906 0.472656 8.796875 -1.515625 C 5.972656 -3.503906 3.601562 -6.117188 1.6875 -9.359375 L 8.703125 -16.21875 C 9.535156 -13.851562 10.882812 -11.910156 12.75 -10.390625 C 14.613281 -8.867188 16.601562 -8.109375 18.71875 -8.109375 C 20.78125 -8.109375 22.488281 -8.859375 23.84375 -10.359375 C 25.195312 -11.859375 25.875 -13.785156 25.875 -16.140625 C 25.875 -18.203125 25.234375 -19.847656 23.953125 -21.078125 C 22.671875 -22.304688 20.78125 -23.410156 18.28125 -24.390625 C 12.726562 -26.503906 8.929688 -28.738281 6.890625 -31.09375 C 4.847656 -33.457031 3.828125 -36.554688 3.828125 -40.390625 C 3.828125 -43.335938 4.515625 -46.085938 5.890625 -48.640625 C 7.265625 -51.203125 9.207031 -53.242188 11.71875 -54.765625 C 14.226562 -56.285156 17.003906 -57.046875 20.046875 -57.046875 C 22.742188 -57.046875 25.578125 -56.429688 28.546875 -55.203125 C 31.523438 -53.972656 33.753906 -52.523438 35.234375 -50.859375 Z M 30.140625 -43.34375 "/></g></g></g><g fill="#ffffff" fill-opacity="1"><g transform="translate(434.54854, 362.213771)"><g><path d="M 1.171875 -18.0625 C 1.171875 -23.757812 2.960938 -28.398438 6.546875 -31.984375 C 10.140625 -35.578125 14.6875 -37.375 20.1875 -37.375 C 25.789062 -37.375 30.359375 -35.550781 33.890625 -31.90625 C 37.429688 -28.269531 39.203125 -23.65625 39.203125 -18.0625 C 39.203125 -12.40625 37.421875 -7.785156 33.859375 -4.203125 C 30.296875 -0.617188 25.738281 1.171875 20.1875 1.171875 C 14.632812 1.171875 10.078125 -0.628906 6.515625 -4.234375 C 2.953125 -7.847656 1.171875 -12.457031 1.171875 -18.0625 Z M 20.125 -28.234375 C 17.8125 -28.234375 15.816406 -27.238281 14.140625 -25.25 C 12.472656 -23.257812 11.640625 -20.863281 11.640625 -18.0625 C 11.640625 -15.351562 12.472656 -12.988281 14.140625 -10.96875 C 15.816406 -8.957031 17.832031 -7.953125 20.1875 -7.953125 C 22.644531 -7.953125 24.6875 -8.957031 26.3125 -10.96875 C 27.9375 -12.988281 28.75 -15.351562 28.75 -18.0625 C 28.75 -20.707031 27.945312 -23.0625 26.34375 -25.125 C 24.75 -27.195312 22.675781 -28.234375 20.125 -28.234375 Z M 20.125 -28.234375 "/></g></g></g><g fill="#ffffff" fill-opacity="1"><g transform="translate(474.928855, 362.213771)"><g><path d="M 13.78125 -36.1875 L 13.78125 -16.28125 C 13.78125 -10.4375 15.742188 -7.515625 19.671875 -7.515625 C 23.609375 -7.515625 25.578125 -10.4375 25.578125 -16.28125 L 25.578125 -36.1875 L 35.890625 -36.1875 L 35.890625 -14.59375 C 35.890625 -9.632812 34.5625 -5.765625 31.90625 -2.984375 C 29.257812 -0.210938 25.179688 1.171875 19.671875 1.171875 C 14.222656 1.171875 10.160156 -0.222656 7.484375 -3.015625 C 4.804688 -5.816406 3.46875 -9.675781 3.46875 -14.59375 L 3.46875 -36.1875 Z M 13.78125 -36.1875 "/></g></g></g><g fill="#ffffff" fill-opacity="1"><g transform="translate(514.351241, 362.213771)"><g><path d="M 26.171875 -26.90625 C 24.890625 -27.789062 23.460938 -28.234375 21.890625 -28.234375 C 19.234375 -28.234375 17.253906 -27.332031 15.953125 -25.53125 C 14.648438 -23.738281 14 -20.78125 14 -16.65625 L 14 0 L 3.6875 0 L 3.6875 -36.1875 L 14 -36.1875 L 14 -32.421875 L 14.15625 -32.421875 C 15.1875 -33.992188 16.460938 -35.210938 17.984375 -36.078125 C 19.503906 -36.941406 21.222656 -37.375 23.140625 -37.375 C 24.566406 -37.320312 25.992188 -37.023438 27.421875 -36.484375 Z M 26.171875 -26.90625 "/></g></g></g><g fill="#ffffff" fill-opacity="1"><g transform="translate(541.394255, 362.213771)"><g><path d="M 28.296875 -25.125 C 27.222656 -26.257812 26.082031 -27.132812 24.875 -27.75 C 23.664062 -28.363281 22.273438 -28.671875 20.703125 -28.671875 C 18.097656 -28.671875 15.925781 -27.625 14.1875 -25.53125 C 12.445312 -23.445312 11.578125 -20.90625 11.578125 -17.90625 C 11.578125 -14.863281 12.472656 -12.367188 14.265625 -10.421875 C 16.054688 -8.484375 18.328125 -7.515625 21.078125 -7.515625 C 22.503906 -7.515625 23.832031 -7.832031 25.0625 -8.46875 C 26.289062 -9.113281 27.367188 -9.953125 28.296875 -10.984375 L 28.296875 -1.03125 C 26.828125 -0.195312 25.367188 0.375 23.921875 0.6875 C 22.472656 1.007812 20.960938 1.171875 19.390625 1.171875 C 14.222656 1.171875 9.882812 -0.679688 6.375 -4.390625 C 2.863281 -8.097656 1.109375 -12.628906 1.109375 -17.984375 C 1.109375 -21.472656 1.914062 -24.710938 3.53125 -27.703125 C 5.15625 -30.703125 7.414062 -33.0625 10.3125 -34.78125 C 13.21875 -36.507812 16.414062 -37.375 19.90625 -37.375 C 21.28125 -37.375 22.691406 -37.1875 24.140625 -36.8125 C 25.585938 -36.445312 26.972656 -35.867188 28.296875 -35.078125 Z M 28.296875 -25.125 "/></g></g></g><g fill="#ffffff" fill-opacity="1"><g transform="translate(572.416338, 362.213771)"><g><path d="M 12.015625 -16.4375 C 12.015625 -13.4375 12.648438 -11.0625 13.921875 -9.3125 C 15.203125 -7.570312 16.945312 -6.703125 19.15625 -6.703125 C 20.882812 -6.703125 22.300781 -7.164062 23.40625 -8.09375 C 24.507812 -9.03125 25.40625 -10.210938 26.09375 -11.640625 L 35.59375 -10.09375 C 34.320312 -6.40625 32.222656 -3.601562 29.296875 -1.6875 C 26.367188 0.21875 22.988281 1.171875 19.15625 1.171875 C 13.800781 1.171875 9.453125 -0.566406 6.109375 -4.046875 C 2.773438 -7.535156 1.109375 -12.109375 1.109375 -17.765625 C 1.109375 -23.710938 2.679688 -28.46875 5.828125 -32.03125 C 8.972656 -35.59375 13.242188 -37.375 18.640625 -37.375 C 24.046875 -37.375 28.257812 -35.628906 31.28125 -32.140625 C 34.300781 -28.648438 35.8125 -23.707031 35.8125 -17.3125 L 35.8125 -16.4375 Z M 26.09375 -22.84375 C 25.75 -25.101562 24.9375 -26.882812 23.65625 -28.1875 C 22.382812 -29.488281 20.882812 -30.140625 19.15625 -30.140625 C 17.539062 -30.140625 16.09375 -29.550781 14.8125 -28.375 C 13.53125 -27.195312 12.695312 -25.351562 12.3125 -22.84375 Z M 26.09375 -22.84375 "/></g></g></g><g fill="#ffffff" fill-opacity="1"><g transform="translate(609.333393, 362.213771)"><g/></g></g><g fill="#ffffff" fill-opacity="1"><g transform="translate(630.628831, 362.213771)"><g><path d="M 18.9375 -55.578125 C 24.789062 -55.578125 29.300781 -54.140625 32.46875 -51.265625 C 35.632812 -48.390625 37.21875 -44.25 37.21875 -38.84375 C 37.21875 -34.90625 36.148438 -31.472656 34.015625 -28.546875 C 31.878906 -25.628906 29.164062 -23.925781 25.875 -23.4375 L 41.5625 0 L 28.453125 0 L 14.96875 -22.40625 L 14.8125 -22.40625 L 14.8125 0 L 3.984375 0 L 3.984375 -55.578125 Z M 14.8125 -30 L 16 -30 C 19.726562 -30 22.390625 -30.6875 23.984375 -32.0625 C 25.585938 -33.4375 26.390625 -35.597656 26.390625 -38.546875 C 26.390625 -41.441406 25.601562 -43.53125 24.03125 -44.8125 C 22.457031 -46.09375 19.828125 -46.734375 16.140625 -46.734375 L 14.8125 -46.734375 Z M 14.8125 -30 "/></g></g></g><g fill="#ffffff" fill-opacity="1"><g transform="translate(671.746014, 362.213771)"><g><path d="M 3.25 -51.375 C 3.25 -52.988281 3.835938 -54.410156 5.015625 -55.640625 C 6.191406 -56.867188 7.640625 -57.484375 9.359375 -57.484375 C 11.078125 -57.484375 12.523438 -56.867188 13.703125 -55.640625 C 14.890625 -54.410156 15.484375 -52.988281 15.484375 -51.375 C 15.484375 -49.65625 14.890625 -48.203125 13.703125 -47.015625 C 12.523438 -45.835938 11.078125 -45.25 9.359375 -45.25 C 7.640625 -45.25 6.191406 -45.835938 5.015625 -47.015625 C 3.835938 -48.203125 3.25 -49.65625 3.25 -51.375 Z M 14.515625 -36.1875 L 14.515625 0 L 4.203125 0 L 4.203125 -36.1875 Z M 14.515625 -36.1875 "/></g></g></g><g fill="#ffffff" fill-opacity="1"><g transform="translate(690.388771, 362.213771)"><g><path d="M 22.265625 -27.640625 C 21.523438 -28.328125 20.6875 -28.914062 19.75 -29.40625 C 18.820312 -29.894531 17.835938 -30.140625 16.796875 -30.140625 C 15.960938 -30.140625 15.1875 -29.84375 14.46875 -29.25 C 13.757812 -28.664062 13.40625 -27.929688 13.40625 -27.046875 C 13.40625 -26.117188 13.8125 -25.382812 14.625 -24.84375 C 15.4375 -24.300781 16.703125 -23.6875 18.421875 -23 L 20.859375 -22.03125 C 23.117188 -21.144531 24.921875 -19.878906 26.265625 -18.234375 C 27.617188 -16.585938 28.296875 -14.390625 28.296875 -11.640625 C 28.296875 -7.910156 26.984375 -4.84375 24.359375 -2.4375 C 21.734375 -0.03125 18.351562 1.171875 14.21875 1.171875 C 11.71875 1.171875 9.359375 0.644531 7.140625 -0.40625 C 4.929688 -1.457031 3.039062 -2.941406 1.46875 -4.859375 L 6.1875 -10.984375 C 7.21875 -9.847656 8.375 -8.863281 9.65625 -8.03125 C 10.9375 -7.195312 12.335938 -6.78125 13.859375 -6.78125 C 14.984375 -6.78125 15.953125 -7.132812 16.765625 -7.84375 C 17.578125 -8.5625 17.984375 -9.507812 17.984375 -10.6875 C 17.984375 -11.8125 17.550781 -12.691406 16.6875 -13.328125 C 15.832031 -13.972656 14.546875 -14.640625 12.828125 -15.328125 C 9.679688 -16.503906 7.578125 -17.570312 6.515625 -18.53125 C 5.460938 -19.488281 4.703125 -20.546875 4.234375 -21.703125 C 3.765625 -22.859375 3.53125 -24.175781 3.53125 -25.65625 C 3.53125 -29.039062 4.625 -31.835938 6.8125 -34.046875 C 9 -36.265625 11.738281 -37.375 15.03125 -37.375 C 17.144531 -37.320312 19.257812 -36.988281 21.375 -36.375 C 23.488281 -35.757812 25.257812 -34.835938 26.6875 -33.609375 Z M 22.265625 -27.640625 "/></g></g></g><g fill="#ffffff" fill-opacity="1"><g transform="translate(720.600344, 362.213771)"><g><path d="M 14 -62.5 L 14 -22.921875 L 14.15625 -22.921875 L 24.984375 -36.1875 L 38.40625 -36.1875 L 23.140625 -20.265625 L 39.578125 0 L 26.015625 0 L 14.15625 -15.40625 L 14 -15.40625 L 14 0 L 3.6875 0 L 3.6875 -62.5 Z M 14 -62.5 "/></g></g></g><g fill="#ffffff" fill-opacity="1"><g transform="translate(759.359548, 362.213771)"><g><path d="M 22.265625 -27.640625 C 21.523438 -28.328125 20.6875 -28.914062 19.75 -29.40625 C 18.820312 -29.894531 17.835938 -30.140625 16.796875 -30.140625 C 15.960938 -30.140625 15.1875 -29.84375 14.46875 -29.25 C 13.757812 -28.664062 13.40625 -27.929688 13.40625 -27.046875 C 13.40625 -26.117188 13.8125 -25.382812 14.625 -24.84375 C 15.4375 -24.300781 16.703125 -23.6875 18.421875 -23 L 20.859375 -22.03125 C 23.117188 -21.144531 24.921875 -19.878906 26.265625 -18.234375 C 27.617188 -16.585938 28.296875 -14.390625 28.296875 -11.640625 C 28.296875 -7.910156 26.984375 -4.84375 24.359375 -2.4375 C 21.734375 -0.03125 18.351562 1.171875 14.21875 1.171875 C 11.71875 1.171875 9.359375 0.644531 7.140625 -0.40625 C 4.929688 -1.457031 3.039062 -2.941406 1.46875 -4.859375 L 6.1875 -10.984375 C 7.21875 -9.847656 8.375 -8.863281 9.65625 -8.03125 C 10.9375 -7.195312 12.335938 -6.78125 13.859375 -6.78125 C 14.984375 -6.78125 15.953125 -7.132812 16.765625 -7.84375 C 17.578125 -8.5625 17.984375 -9.507812 17.984375 -10.6875 C 17.984375 -11.8125 17.550781 -12.691406 16.6875 -13.328125 C 15.832031 -13.972656 14.546875 -14.640625 12.828125 -15.328125 C 9.679688 -16.503906 7.578125 -17.570312 6.515625 -18.53125 C 5.460938 -19.488281 4.703125 -20.546875 4.234375 -21.703125 C 3.765625 -22.859375 3.53125 -24.175781 3.53125 -25.65625 C 3.53125 -29.039062 4.625 -31.835938 6.8125 -34.046875 C 9 -36.265625 11.738281 -37.375 15.03125 -37.375 C 17.144531 -37.320312 19.257812 -36.988281 21.375 -36.375 C 23.488281 -35.757812 25.257812 -34.835938 26.6875 -33.609375 Z M 22.265625 -27.640625 "/></g></g></g><g fill="#ffffff" fill-opacity="1"><g transform="translate(789.571075, 362.213771)"><g><path d="M 21.8125 -26.015625 L 21.21875 -18.9375 L 10.90625 -18.9375 L 10.90625 -33.609375 C 11.644531 -33.410156 12.53125 -33.3125 13.5625 -33.3125 C 16.257812 -33.3125 18.503906 -34.070312 20.296875 -35.59375 C 22.097656 -37.125 23 -39.113281 23 -41.5625 C 23 -43.332031 22.519531 -44.851562 21.5625 -46.125 C 20.601562 -47.40625 19.382812 -48.046875 17.90625 -48.046875 C 16.332031 -48.046875 15.113281 -47.429688 14.25 -46.203125 C 13.394531 -44.984375 12.96875 -43.488281 12.96875 -41.71875 L 12.96875 -41.125 L 2.21875 -41.125 L 2.21875 -42.015625 C 2.21875 -46.191406 3.738281 -49.738281 6.78125 -52.65625 C 9.820312 -55.582031 13.507812 -57.046875 17.84375 -57.046875 C 22.351562 -57.046875 26.117188 -55.519531 29.140625 -52.46875 C 32.171875 -49.425781 33.6875 -45.671875 33.6875 -41.203125 C 33.6875 -37.515625 32.554688 -34.242188 30.296875 -31.390625 C 28.035156 -28.546875 25.207031 -26.753906 21.8125 -26.015625 Z M 9.65625 -5.15625 C 9.65625 -6.976562 10.304688 -8.515625 11.609375 -9.765625 C 12.910156 -11.015625 14.445312 -11.640625 16.21875 -11.640625 C 17.988281 -11.640625 19.523438 -11.015625 20.828125 -9.765625 C 22.128906 -8.515625 22.78125 -6.976562 22.78125 -5.15625 C 22.78125 -3.34375 22.140625 -1.785156 20.859375 -0.484375 C 19.578125 0.816406 18.03125 1.46875 16.21875 1.46875 C 14.394531 1.46875 12.84375 0.816406 11.5625 -0.484375 C 10.289062 -1.785156 9.65625 -3.34375 9.65625 -5.15625 Z M 9.65625 -5.15625 "/></g></g></g><g fill="#ffffff" fill-opacity="1"><g transform="translate(419.402728, 484.067494)"><g><path d="M 3.640625 -20.8125 L 3.640625 -9.71875 L 3.6875 -9.71875 C 4.03125 -10.320312 4.507812 -10.78125 5.125 -11.09375 C 5.738281 -11.40625 6.390625 -11.5625 7.078125 -11.5625 C 8.421875 -11.5625 9.421875 -11.171875 10.078125 -10.390625 C 10.734375 -9.617188 11.0625 -8.425781 11.0625 -6.8125 L 11.0625 0 L 8.890625 0 L 8.890625 -6.546875 C 8.890625 -7.742188 8.695312 -8.554688 8.3125 -8.984375 C 7.9375 -9.421875 7.304688 -9.640625 6.421875 -9.640625 C 5.671875 -9.640625 5.097656 -9.472656 4.703125 -9.140625 C 4.316406 -8.816406 4.039062 -8.394531 3.875 -7.875 C 3.71875 -7.351562 3.640625 -6.472656 3.640625 -5.234375 L 3.640625 0 L 1.484375 0 L 1.484375 -20.8125 Z M 3.640625 -20.8125 "/></g></g></g><g fill="#ffffff" fill-opacity="1"><g transform="translate(431.948633, 484.067494)"><g><path d="M 3.953125 -15.515625 L 3.953125 -11.21875 L 6.0625 -11.21875 L 6.0625 -9.203125 L 3.953125 -9.203125 L 3.953125 0 L 1.796875 0 L 1.796875 -9.203125 L 0.625 -9.203125 L 0.625 -11.21875 L 1.796875 -11.21875 L 1.796875 -15.515625 Z M 3.953125 -15.515625 "/></g></g></g><g fill="#ffffff" fill-opacity="1"><g transform="translate(437.705841, 484.067494)"><g><path d="M 3.953125 -15.515625 L 3.953125 -11.21875 L 6.0625 -11.21875 L 6.0625 -9.203125 L 3.953125 -9.203125 L 3.953125 0 L 1.796875 0 L 1.796875 -9.203125 L 0.625 -9.203125 L 0.625 -11.21875 L 1.796875 -11.21875 L 1.796875 -15.515625 Z M 3.953125 -15.515625 "/></g></g></g><g fill="#ffffff" fill-opacity="1"><g transform="translate(443.463048, 484.067494)"><g><path d="M 7.34375 0.390625 C 6.519531 0.390625 5.785156 0.191406 5.140625 -0.203125 C 4.492188 -0.597656 3.957031 -1.113281 3.53125 -1.75 L 3.484375 -1.75 L 3.484375 6.421875 L 1.3125 6.421875 L 1.3125 -11.21875 L 3.484375 -11.21875 L 3.484375 -9.359375 L 3.53125 -9.359375 C 3.976562 -10.023438 4.53125 -10.554688 5.1875 -10.953125 C 5.851562 -11.359375 6.601562 -11.5625 7.4375 -11.5625 C 8.375 -11.5625 9.253906 -11.304688 10.078125 -10.796875 C 10.910156 -10.296875 11.554688 -9.59375 12.015625 -8.6875 C 12.484375 -7.789062 12.71875 -6.789062 12.71875 -5.6875 C 12.71875 -4.53125 12.503906 -3.503906 12.078125 -2.609375 C 11.648438 -1.710938 11.03125 -0.988281 10.21875 -0.4375 C 9.40625 0.113281 8.445312 0.390625 7.34375 0.390625 Z M 10.546875 -5.609375 C 10.546875 -6.828125 10.195312 -7.800781 9.5 -8.53125 C 8.8125 -9.269531 7.941406 -9.640625 6.890625 -9.640625 C 5.878906 -9.640625 5.035156 -9.25 4.359375 -8.46875 C 3.691406 -7.695312 3.359375 -6.742188 3.359375 -5.609375 C 3.359375 -4.429688 3.6875 -3.457031 4.34375 -2.6875 C 5.007812 -1.914062 5.863281 -1.53125 6.90625 -1.53125 C 7.988281 -1.53125 8.863281 -1.910156 9.53125 -2.671875 C 10.207031 -3.429688 10.546875 -4.410156 10.546875 -5.609375 Z M 10.546875 -5.609375 "/></g></g></g><g fill="#ffffff" fill-opacity="1"><g transform="translate(456.800567, 484.067494)"><g><path d="M 7.75 -9.59375 L 6 -8.65625 C 5.863281 -8.925781 5.671875 -9.15625 5.421875 -9.34375 C 5.179688 -9.539062 4.894531 -9.640625 4.5625 -9.640625 C 4.25 -9.640625 3.972656 -9.53125 3.734375 -9.3125 C 3.492188 -9.101562 3.375 -8.84375 3.375 -8.53125 C 3.375 -8.195312 3.535156 -7.898438 3.859375 -7.640625 C 4.179688 -7.378906 4.675781 -7.101562 5.34375 -6.8125 L 6 -6.53125 C 6.875 -6.144531 7.523438 -5.703125 7.953125 -5.203125 C 8.378906 -4.710938 8.59375 -4.085938 8.59375 -3.328125 C 8.59375 -2.296875 8.210938 -1.414062 7.453125 -0.6875 C 6.703125 0.03125 5.789062 0.390625 4.71875 0.390625 C 3.863281 0.390625 3.070312 0.160156 2.34375 -0.296875 C 1.625 -0.765625 1.125 -1.378906 0.84375 -2.140625 L 2.6875 -2.96875 C 2.90625 -2.550781 3.171875 -2.207031 3.484375 -1.9375 C 3.796875 -1.664062 4.207031 -1.53125 4.71875 -1.53125 C 5.1875 -1.53125 5.585938 -1.675781 5.921875 -1.96875 C 6.253906 -2.257812 6.421875 -2.644531 6.421875 -3.125 C 6.421875 -3.4375 6.335938 -3.6875 6.171875 -3.875 C 6.003906 -4.070312 5.675781 -4.304688 5.1875 -4.578125 L 3.53125 -5.46875 C 2.8125 -5.832031 2.269531 -6.222656 1.90625 -6.640625 C 1.539062 -7.054688 1.359375 -7.609375 1.359375 -8.296875 C 1.359375 -9.179688 1.6875 -9.945312 2.34375 -10.59375 C 3 -11.238281 3.773438 -11.5625 4.671875 -11.5625 C 5.359375 -11.5625 5.96875 -11.382812 6.5 -11.03125 C 7.03125 -10.675781 7.445312 -10.195312 7.75 -9.59375 Z M 7.75 -9.59375 "/></g></g></g><g fill="#ffffff" fill-opacity="1"><g transform="translate(466.012089, 484.067494)"><g><path d="M 4.875 -10.171875 C 4.875 -9.785156 4.734375 -9.457031 4.453125 -9.1875 C 4.179688 -8.914062 3.859375 -8.78125 3.484375 -8.78125 C 3.097656 -8.78125 2.769531 -8.914062 2.5 -9.1875 C 2.226562 -9.457031 2.09375 -9.785156 2.09375 -10.171875 C 2.09375 -10.535156 2.226562 -10.859375 2.5 -11.140625 C 2.769531 -11.421875 3.097656 -11.5625 3.484375 -11.5625 C 3.859375 -11.5625 4.179688 -11.421875 4.453125 -11.140625 C 4.734375 -10.859375 4.875 -10.535156 4.875 -10.171875 Z M 4.875 -1 C 4.875 -0.625 4.734375 -0.296875 4.453125 -0.015625 C 4.179688 0.253906 3.859375 0.390625 3.484375 0.390625 C 3.097656 0.390625 2.769531 0.253906 2.5 -0.015625 C 2.226562 -0.296875 2.09375 -0.625 2.09375 -1 C 2.09375 -1.375 2.226562 -1.703125 2.5 -1.984375 C 2.769531 -2.265625 3.097656 -2.40625 3.484375 -2.40625 C 3.859375 -2.40625 4.179688 -2.265625 4.453125 -1.984375 C 4.734375 -1.703125 4.875 -1.375 4.875 -1 Z M 4.875 -1 "/></g></g></g><g fill="#ffffff" fill-opacity="1"><g transform="translate(472.944718, 484.067494)"><g><path d="M 12.46875 -20.046875 L 2.46875 3.015625 L 0.765625 2.25 L 10.75 -20.8125 Z M 12.46875 -20.046875 "/></g></g></g><g fill="#ffffff" fill-opacity="1"><g transform="translate(486.162292, 484.067494)"><g><path d="M 12.46875 -20.046875 L 2.46875 3.015625 L 0.765625 2.25 L 10.75 -20.8125 Z M 12.46875 -20.046875 "/></g></g></g><g fill="#ffffff" fill-opacity="1"><g transform="translate(499.379866, 484.067494)"><g><path d="M 7.75 -9.59375 L 6 -8.65625 C 5.863281 -8.925781 5.671875 -9.15625 5.421875 -9.34375 C 5.179688 -9.539062 4.894531 -9.640625 4.5625 -9.640625 C 4.25 -9.640625 3.972656 -9.53125 3.734375 -9.3125 C 3.492188 -9.101562 3.375 -8.84375 3.375 -8.53125 C 3.375 -8.195312 3.535156 -7.898438 3.859375 -7.640625 C 4.179688 -7.378906 4.675781 -7.101562 5.34375 -6.8125 L 6 -6.53125 C 6.875 -6.144531 7.523438 -5.703125 7.953125 -5.203125 C 8.378906 -4.710938 8.59375 -4.085938 8.59375 -3.328125 C 8.59375 -2.296875 8.210938 -1.414062 7.453125 -0.6875 C 6.703125 0.03125 5.789062 0.390625 4.71875 0.390625 C 3.863281 0.390625 3.070312 0.160156 2.34375 -0.296875 C 1.625 -0.765625 1.125 -1.378906 0.84375 -2.140625 L 2.6875 -2.96875 C 2.90625 -2.550781 3.171875 -2.207031 3.484375 -1.9375 C 3.796875 -1.664062 4.207031 -1.53125 4.71875 -1.53125 C 5.1875 -1.53125 5.585938 -1.675781 5.921875 -1.96875 C 6.253906 -2.257812 6.421875 -2.644531 6.421875 -3.125 C 6.421875 -3.4375 6.335938 -3.6875 6.171875 -3.875 C 6.003906 -4.070312 5.675781 -4.304688 5.1875 -4.578125 L 3.53125 -5.46875 C 2.8125 -5.832031 2.269531 -6.222656 1.90625 -6.640625 C 1.539062 -7.054688 1.359375 -7.609375 1.359375 -8.296875 C 1.359375 -9.179688 1.6875 -9.945312 2.34375 -10.59375 C 3 -11.238281 3.773438 -11.5625 4.671875 -11.5625 C 5.359375 -11.5625 5.96875 -11.382812 6.5 -11.03125 C 7.03125 -10.675781 7.445312 -10.195312 7.75 -9.59375 Z M 7.75 -9.59375 "/></g></g></g><g fill="#ffffff" fill-opacity="1"><g transform="translate(508.591389, 484.067494)"><g><path d="M 9.8125 -9.359375 L 9.859375 -9.359375 L 9.859375 -11.21875 L 12.015625 -11.21875 L 12.015625 0 L 9.859375 0 L 9.859375 -1.75 L 9.8125 -1.75 C 9.375 -1.113281 8.832031 -0.597656 8.1875 -0.203125 C 7.539062 0.191406 6.8125 0.390625 6 0.390625 C 4.394531 0.390625 3.097656 -0.1875 2.109375 -1.34375 C 1.117188 -2.507812 0.625 -3.957031 0.625 -5.6875 C 0.625 -6.789062 0.863281 -7.796875 1.34375 -8.703125 C 1.820312 -9.617188 2.460938 -10.320312 3.265625 -10.8125 C 4.066406 -11.3125 4.953125 -11.5625 5.921875 -11.5625 C 6.734375 -11.5625 7.472656 -11.359375 8.140625 -10.953125 C 8.804688 -10.554688 9.363281 -10.023438 9.8125 -9.359375 Z M 9.984375 -5.609375 C 9.984375 -6.828125 9.640625 -7.800781 8.953125 -8.53125 C 8.265625 -9.269531 7.382812 -9.640625 6.3125 -9.640625 C 5.300781 -9.640625 4.457031 -9.25 3.78125 -8.46875 C 3.113281 -7.6875 2.78125 -6.734375 2.78125 -5.609375 C 2.78125 -4.460938 3.113281 -3.492188 3.78125 -2.703125 C 4.457031 -1.921875 5.304688 -1.53125 6.328125 -1.53125 C 7.421875 -1.53125 8.300781 -1.910156 8.96875 -2.671875 C 9.644531 -3.429688 9.984375 -4.410156 9.984375 -5.609375 Z M 9.984375 -5.609375 "/></g></g></g><g fill="#ffffff" fill-opacity="1"><g transform="translate(521.928908, 484.067494)"><g><path d="M 7.046875 -20.8125 L 7.046875 -18.640625 L 6.328125 -18.953125 C 6.078125 -19.046875 5.835938 -19.09375 5.609375 -19.09375 C 5.097656 -19.09375 4.710938 -18.867188 4.453125 -18.421875 C 4.203125 -17.984375 4.078125 -17.25 4.078125 -16.21875 L 4.078125 -11.21875 L 7.046875 -11.21875 L 7.046875 -9.203125 L 4.078125 -9.203125 L 4.078125 0 L 1.921875 0 L 1.921875 -9.203125 L 0.9375 -9.203125 L 0.9375 -11.21875 L 1.921875 -11.21875 L 1.921875 -16.796875 C 1.921875 -18.148438 2.210938 -19.207031 2.796875 -19.96875 C 3.390625 -20.726562 4.304688 -21.109375 5.546875 -21.109375 C 6.066406 -21.109375 6.566406 -21.007812 7.046875 -20.8125 Z M 7.046875 -20.8125 "/></g></g></g><g fill="#ffffff" fill-opacity="1"><g transform="translate(528.525702, 484.067494)"><g><path d="M 11.34375 -5.4375 L 11.34375 -5.25 L 2.78125 -5.25 C 2.8125 -4.164062 3.148438 -3.273438 3.796875 -2.578125 C 4.441406 -1.878906 5.226562 -1.53125 6.15625 -1.53125 C 6.988281 -1.53125 7.648438 -1.722656 8.140625 -2.109375 C 8.640625 -2.503906 9.097656 -3.039062 9.515625 -3.71875 L 11.34375 -2.6875 C 10.8125 -1.707031 10.085938 -0.945312 9.171875 -0.40625 C 8.253906 0.125 7.242188 0.390625 6.140625 0.390625 C 4.523438 0.390625 3.203125 -0.148438 2.171875 -1.234375 C 1.140625 -2.328125 0.625 -3.753906 0.625 -5.515625 C 0.625 -7.359375 1.109375 -8.828125 2.078125 -9.921875 C 3.054688 -11.015625 4.394531 -11.5625 6.09375 -11.5625 C 7.71875 -11.5625 9 -11.03125 9.9375 -9.96875 C 10.875 -8.90625 11.34375 -7.394531 11.34375 -5.4375 Z M 9.1875 -6.890625 C 9.0625 -7.742188 8.726562 -8.421875 8.1875 -8.921875 C 7.65625 -9.429688 6.945312 -9.6875 6.0625 -9.6875 C 5.25 -9.6875 4.550781 -9.414062 3.96875 -8.875 C 3.382812 -8.34375 3.03125 -7.679688 2.90625 -6.890625 Z M 9.1875 -6.890625 "/></g></g></g><g fill="#ffffff" fill-opacity="1"><g transform="translate(540.232009, 484.067494)"><g><path d="M 12.015625 -20.8125 L 12.015625 0 L 9.859375 0 L 9.859375 -1.75 L 9.8125 -1.75 C 9.375 -1.113281 8.832031 -0.597656 8.1875 -0.203125 C 7.539062 0.191406 6.8125 0.390625 6 0.390625 C 4.425781 0.390625 3.132812 -0.179688 2.125 -1.328125 C 1.125 -2.472656 0.625 -3.925781 0.625 -5.6875 C 0.625 -7.300781 1.125 -8.679688 2.125 -9.828125 C 3.125 -10.984375 4.382812 -11.5625 5.90625 -11.5625 C 6.75 -11.5625 7.5 -11.359375 8.15625 -10.953125 C 8.8125 -10.554688 9.363281 -10.023438 9.8125 -9.359375 L 9.859375 -9.359375 L 9.859375 -20.8125 Z M 9.984375 -5.609375 C 9.984375 -6.828125 9.632812 -7.800781 8.9375 -8.53125 C 8.238281 -9.269531 7.363281 -9.640625 6.3125 -9.640625 C 5.300781 -9.640625 4.457031 -9.25 3.78125 -8.46875 C 3.113281 -7.6875 2.78125 -6.734375 2.78125 -5.609375 C 2.78125 -4.429688 3.109375 -3.457031 3.765625 -2.6875 C 4.429688 -1.914062 5.285156 -1.53125 6.328125 -1.53125 C 7.421875 -1.53125 8.300781 -1.910156 8.96875 -2.671875 C 9.644531 -3.429688 9.984375 -4.410156 9.984375 -5.609375 Z M 9.984375 -5.609375 "/></g></g></g><g fill="#ffffff" fill-opacity="1"><g transform="translate(553.569527, 484.067494)"><g><path d="M 11.34375 -5.4375 L 11.34375 -5.25 L 2.78125 -5.25 C 2.8125 -4.164062 3.148438 -3.273438 3.796875 -2.578125 C 4.441406 -1.878906 5.226562 -1.53125 6.15625 -1.53125 C 6.988281 -1.53125 7.648438 -1.722656 8.140625 -2.109375 C 8.640625 -2.503906 9.097656 -3.039062 9.515625 -3.71875 L 11.34375 -2.6875 C 10.8125 -1.707031 10.085938 -0.945312 9.171875 -0.40625 C 8.253906 0.125 7.242188 0.390625 6.140625 0.390625 C 4.523438 0.390625 3.203125 -0.148438 2.171875 -1.234375 C 1.140625 -2.328125 0.625 -3.753906 0.625 -5.515625 C 0.625 -7.359375 1.109375 -8.828125 2.078125 -9.921875 C 3.054688 -11.015625 4.394531 -11.5625 6.09375 -11.5625 C 7.71875 -11.5625 9 -11.03125 9.9375 -9.96875 C 10.875 -8.90625 11.34375 -7.394531 11.34375 -5.4375 Z M 9.1875 -6.890625 C 9.0625 -7.742188 8.726562 -8.421875 8.1875 -8.921875 C 7.65625 -9.429688 6.945312 -9.6875 6.0625 -9.6875 C 5.25 -9.6875 4.550781 -9.414062 3.96875 -8.875 C 3.382812 -8.34375 3.03125 -7.679688 2.90625 -6.890625 Z M 9.1875 -6.890625 "/></g></g></g><g fill="#ffffff" fill-opacity="1"><g transform="translate(565.275835, 484.067494)"><g><path d="M 7.34375 0.390625 C 6.519531 0.390625 5.785156 0.191406 5.140625 -0.203125 C 4.492188 -0.597656 3.957031 -1.113281 3.53125 -1.75 L 3.484375 -1.75 L 3.484375 6.421875 L 1.3125 6.421875 L 1.3125 -11.21875 L 3.484375 -11.21875 L 3.484375 -9.359375 L 3.53125 -9.359375 C 3.976562 -10.023438 4.53125 -10.554688 5.1875 -10.953125 C 5.851562 -11.359375 6.601562 -11.5625 7.4375 -11.5625 C 8.375 -11.5625 9.253906 -11.304688 10.078125 -10.796875 C 10.910156 -10.296875 11.554688 -9.59375 12.015625 -8.6875 C 12.484375 -7.789062 12.71875 -6.789062 12.71875 -5.6875 C 12.71875 -4.53125 12.503906 -3.503906 12.078125 -2.609375 C 11.648438 -1.710938 11.03125 -0.988281 10.21875 -0.4375 C 9.40625 0.113281 8.445312 0.390625 7.34375 0.390625 Z M 10.546875 -5.609375 C 10.546875 -6.828125 10.195312 -7.800781 9.5 -8.53125 C 8.8125 -9.269531 7.941406 -9.640625 6.890625 -9.640625 C 5.878906 -9.640625 5.035156 -9.25 4.359375 -8.46875 C 3.691406 -7.695312 3.359375 -6.742188 3.359375 -5.609375 C 3.359375 -4.429688 3.6875 -3.457031 4.34375 -2.6875 C 5.007812 -1.914062 5.863281 -1.53125 6.90625 -1.53125 C 7.988281 -1.53125 8.863281 -1.910156 9.53125 -2.671875 C 10.207031 -3.429688 10.546875 -4.410156 10.546875 -5.609375 Z M 10.546875 -5.609375 "/></g></g></g><g fill="#ffffff" fill-opacity="1"><g transform="translate(578.613353, 484.067494)"><g><path d="M 4.875 -1 C 4.875 -0.625 4.734375 -0.296875 4.453125 -0.015625 C 4.179688 0.253906 3.859375 0.390625 3.484375 0.390625 C 3.097656 0.390625 2.769531 0.253906 2.5 -0.015625 C 2.226562 -0.296875 2.09375 -0.625 2.09375 -1 C 2.09375 -1.375 2.226562 -1.703125 2.5 -1.984375 C 2.769531 -2.265625 3.097656 -2.40625 3.484375 -2.40625 C 3.859375 -2.40625 4.179688 -2.265625 4.453125 -1.984375 C 4.734375 -1.703125 4.875 -1.375 4.875 -1 Z M 4.875 -1 "/></g></g></g><g fill="#ffffff" fill-opacity="1"><g transform="translate(585.545982, 484.067494)"><g><path d="M 4.53125 -16.359375 C 4.53125 -15.941406 4.382812 -15.59375 4.09375 -15.3125 C 3.8125 -15.03125 3.460938 -14.890625 3.046875 -14.890625 C 2.628906 -14.890625 2.273438 -15.03125 1.984375 -15.3125 C 1.703125 -15.59375 1.5625 -15.941406 1.5625 -16.359375 C 1.5625 -16.773438 1.703125 -17.128906 1.984375 -17.421875 C 2.273438 -17.722656 2.628906 -17.875 3.046875 -17.875 C 3.460938 -17.875 3.8125 -17.722656 4.09375 -17.421875 C 4.382812 -17.128906 4.53125 -16.773438 4.53125 -16.359375 Z M 4.125 -11.21875 L 4.125 0 L 1.96875 0 L 1.96875 -11.21875 Z M 4.125 -11.21875 "/></g></g></g><g fill="#ffffff" fill-opacity="1"><g transform="translate(591.639024, 484.067494)"><g><path d="M 6.46875 0.390625 C 5.382812 0.390625 4.382812 0.132812 3.46875 -0.375 C 2.5625 -0.894531 1.835938 -1.617188 1.296875 -2.546875 C 0.753906 -3.472656 0.484375 -4.488281 0.484375 -5.59375 C 0.484375 -6.695312 0.738281 -7.691406 1.25 -8.578125 C 1.769531 -9.472656 2.488281 -10.191406 3.40625 -10.734375 C 4.332031 -11.285156 5.351562 -11.5625 6.46875 -11.5625 C 7.601562 -11.5625 8.640625 -11.28125 9.578125 -10.71875 C 10.515625 -10.15625 11.226562 -9.425781 11.71875 -8.53125 C 12.21875 -7.644531 12.46875 -6.664062 12.46875 -5.59375 C 12.46875 -4.550781 12.222656 -3.570312 11.734375 -2.65625 C 11.253906 -1.75 10.546875 -1.015625 9.609375 -0.453125 C 8.671875 0.109375 7.625 0.390625 6.46875 0.390625 Z M 10.3125 -5.59375 C 10.3125 -6.675781 9.929688 -7.597656 9.171875 -8.359375 C 8.410156 -9.117188 7.503906 -9.5 6.453125 -9.5 C 5.460938 -9.5 4.578125 -9.117188 3.796875 -8.359375 C 3.023438 -7.597656 2.640625 -6.675781 2.640625 -5.59375 C 2.640625 -4.550781 3.019531 -3.632812 3.78125 -2.84375 C 4.539062 -2.0625 5.4375 -1.671875 6.46875 -1.671875 C 7.53125 -1.671875 8.4375 -2.054688 9.1875 -2.828125 C 9.9375 -3.609375 10.3125 -4.53125 10.3125 -5.59375 Z M 10.3125 -5.59375 "/></g></g></g></svg>