<?xml version="1.0" encoding="UTF-8"?>
<svg id="Layer_2" xmlns="http://www.w3.org/2000/svg" viewBox="0 0 49.42 45.36">
  <defs>
    <style>
      .cls-1 {
        fill: #4360e0;
      }
    </style>
  </defs>
  <g id="Layer_1-2" data-name="Layer_1">
    <g>
      <path class="cls-1" d="M30.52,45.36H0v-12.65h2.75c.25,0,.44.2.44.44v8.42c0,.25.2.44.44.44h23.16c.24,0,.44-.2.44-.44v-21.05c0-.24-.19-.44-.43-.44-9.2,0-26.81,0-26.81,0,0,0,0-1.51,0-3.58.01-2.5.75-7.13,2.59-9.74C6.49,1.27,11.75-.81,18.35.28c5.77.96,10.82,6.41,12.02,12.22h-3.13c-.19,0-.36-.12-.42-.3-1.37-4.09-4.27-7.37-8.52-8.48C10.39,1.66,3.55,7.88,3.3,16.06c0,.25.2.45.45.45h26.24c.29,0,.53.23.53.52v28.32Z"/>
      <path class="cls-1" d="M34.67,45.2v-2.64c0-.21.18-.39.4-.41,3.56-.31,6.42-1.81,8.63-4.46,1.62-1.93,2.41-4.32,2.39-6.75-.02-2.98-1.1-5.5-3.34-7.69-2.11-2.06-4.65-3.28-7.67-3.53-.23-.02-.41-.19-.41-.41v-2.64c4.74.33,9.33,2.43,12.1,6.49,3.42,5,3.57,10.24.22,15.32-2.78,4.21-6.93,6.39-12.32,6.71Z"/>
    </g>
  </g>
</svg>