<svg xmlns="http://www.w3.org/2000/svg" xmlns:xlink="http://www.w3.org/1999/xlink" width="1489" zoomAndPan="magnify" viewBox="0 0 1116.75 332.250003" height="443" preserveAspectRatio="xMidYMid meet" version="1.0"><defs><filter x="0%" y="0%" width="100%" height="100%" id="57d67ae12c"><feColorMatrix values="0 0 0 0 1 0 0 0 0 1 0 0 0 0 1 0 0 0 1 0" color-interpolation-filters="sRGB"/></filter><g/><clipPath id="a44cce2178"><path d="M 481 0 L 1115.367188 0 L 1115.367188 204 L 481 204 Z M 481 0 " clip-rule="nonzero"/></clipPath><mask id="a82726dbad"><g filter="url(#57d67ae12c)"><rect x="-111.675" width="1340.1" fill="#000000" y="-33.225" height="398.700004" fill-opacity="0.2"/></g></mask><clipPath id="841322d264"><path d="M 0.253906 0 L 634 0 L 634 203.308594 L 0.253906 203.308594 Z M 0.253906 0 " clip-rule="nonzero"/></clipPath><clipPath id="01bb5fbb3d"><rect x="0" width="635" y="0" height="204"/></clipPath><clipPath id="466551238a"><path d="M 889.410156 72.183594 L 1084.972656 72.183594 L 1084.972656 180.082031 L 889.410156 180.082031 Z M 889.410156 72.183594 " clip-rule="nonzero"/></clipPath><clipPath id="83a9734b5d"><path d="M 504.457031 72.183594 L 777.15625 72.183594 L 777.15625 180.082031 L 504.457031 180.082031 Z M 504.457031 72.183594 " clip-rule="nonzero"/></clipPath><clipPath id="32c7e801c3"><path d="M 504.457031 223.578125 L 777.15625 223.578125 L 777.15625 331.476562 L 504.457031 331.476562 Z M 504.457031 223.578125 " clip-rule="nonzero"/></clipPath><clipPath id="3fd95ac5d9"><path d="M 1.132812 118.332031 L 240.023438 118.332031 L 240.023438 266.855469 L 1.132812 266.855469 Z M 1.132812 118.332031 " clip-rule="nonzero"/></clipPath></defs><g clip-path="url(#a44cce2178)"><g mask="url(#a82726dbad)"><g transform="matrix(1, 0, 0, 1, 481, 0.000000000000014837)"><g clip-path="url(#01bb5fbb3d)"><g clip-path="url(#841322d264)"><path fill="#612a79" d="M 0.253906 0 L 634 0 L 634 203.308594 L 0.253906 203.308594 Z M 0.253906 0 " fill-opacity="1" fill-rule="nonzero"/></g></g></g></g></g><g clip-path="url(#466551238a)"><path fill="#4360e0" d="M 889.410156 72.183594 L 1084.976562 72.183594 L 1084.976562 180.082031 L 889.410156 180.082031 Z M 889.410156 72.183594 " fill-opacity="1" fill-rule="nonzero"/></g><g fill="#ffffff" fill-opacity="1"><g transform="translate(930.491719, 119.326546)"><g><path d="M 9.09375 -12.71875 L 9.09375 -10.234375 L 5.890625 -10.234375 L 5.890625 0 L 3.109375 0 L 3.109375 -10.234375 L -0.109375 -10.234375 L -0.109375 -12.71875 Z M 9.09375 -12.71875 "/></g></g></g><g fill="#ffffff" fill-opacity="1"><g transform="translate(941.173484, 119.326546)"><g><path d="M 7.890625 -5.234375 L 11.4375 0 L 8.3125 0 L 5.171875 -4.921875 L 4.046875 -4.921875 L 4.046875 0 L 1.25 0 L 1.25 -12.71875 L 6.65625 -12.71875 C 7.382812 -12.71875 8.03125 -12.539062 8.59375 -12.1875 C 9.164062 -11.84375 9.617188 -11.375 9.953125 -10.78125 C 10.285156 -10.1875 10.453125 -9.53125 10.453125 -8.8125 C 10.453125 -7.945312 10.207031 -7.191406 9.71875 -6.546875 C 9.238281 -5.898438 8.628906 -5.460938 7.890625 -5.234375 Z M 6.234375 -7.21875 C 6.679688 -7.21875 7.050781 -7.359375 7.34375 -7.640625 C 7.632812 -7.929688 7.78125 -8.296875 7.78125 -8.734375 C 7.78125 -9.171875 7.632812 -9.53125 7.34375 -9.8125 C 7.050781 -10.09375 6.679688 -10.234375 6.234375 -10.234375 L 4.046875 -10.234375 L 4.046875 -7.21875 Z M 6.234375 -7.21875 "/></g></g></g><g fill="#ffffff" fill-opacity="1"><g transform="translate(954.207603, 119.326546)"><g><path d="M 9.03125 0 L 8.25 -2.390625 L 3.5 -2.390625 L 2.71875 0 L -0.28125 0 L 4.296875 -12.71875 L 7.4375 -12.71875 L 12.015625 0 Z M 4.234375 -4.71875 L 7.5 -4.71875 L 5.875 -9.765625 Z M 4.234375 -4.71875 "/></g></g></g><g fill="#ffffff" fill-opacity="1"><g transform="translate(967.644378, 119.326546)"><g><path d="M 10.390625 -12.71875 L 13.15625 -12.71875 L 13.15625 0 L 10.28125 0 L 4.046875 -8.4375 L 4.046875 0 L 1.25 0 L 1.25 -12.71875 L 4.125 -12.71875 L 10.390625 -4.296875 Z M 10.390625 -12.71875 "/></g></g></g><g fill="#ffffff" fill-opacity="1"><g transform="translate(983.772587, 119.326546)"><g><path d="M 5.171875 0.171875 C 4.054688 0.171875 3.070312 -0.101562 2.21875 -0.65625 C 1.375 -1.207031 0.75 -1.878906 0.34375 -2.671875 L 2.65625 -4.109375 C 2.894531 -3.617188 3.234375 -3.21875 3.671875 -2.90625 C 4.109375 -2.601562 4.613281 -2.453125 5.1875 -2.453125 C 5.6875 -2.453125 6.070312 -2.554688 6.34375 -2.765625 C 6.625 -2.984375 6.765625 -3.269531 6.765625 -3.625 C 6.765625 -3.988281 6.617188 -4.285156 6.328125 -4.515625 C 6.046875 -4.742188 5.679688 -4.929688 5.234375 -5.078125 C 4.796875 -5.234375 4.328125 -5.398438 3.828125 -5.578125 C 3.328125 -5.753906 2.851562 -5.984375 2.40625 -6.265625 C 1.957031 -6.554688 1.59375 -6.925781 1.3125 -7.375 C 1.03125 -7.820312 0.890625 -8.410156 0.890625 -9.140625 C 0.890625 -9.984375 1.085938 -10.679688 1.484375 -11.234375 C 1.878906 -11.785156 2.390625 -12.195312 3.015625 -12.46875 C 3.648438 -12.75 4.296875 -12.890625 4.953125 -12.890625 C 5.742188 -12.890625 6.476562 -12.722656 7.15625 -12.390625 C 7.84375 -12.054688 8.414062 -11.617188 8.875 -11.078125 L 7.015625 -9.296875 C 6.703125 -9.648438 6.367188 -9.921875 6.015625 -10.109375 C 5.660156 -10.304688 5.300781 -10.40625 4.9375 -10.40625 C 4.59375 -10.40625 4.300781 -10.316406 4.0625 -10.140625 C 3.820312 -9.972656 3.703125 -9.707031 3.703125 -9.34375 C 3.703125 -8.976562 3.84375 -8.6875 4.125 -8.46875 C 4.414062 -8.257812 4.78125 -8.078125 5.21875 -7.921875 C 5.664062 -7.765625 6.132812 -7.59375 6.625 -7.40625 C 7.125 -7.226562 7.59375 -6.988281 8.03125 -6.6875 C 8.476562 -6.394531 8.84375 -6.003906 9.125 -5.515625 C 9.414062 -5.035156 9.5625 -4.398438 9.5625 -3.609375 C 9.5625 -2.816406 9.359375 -2.132812 8.953125 -1.5625 C 8.546875 -1 8.007812 -0.566406 7.34375 -0.265625 C 6.6875 0.0234375 5.960938 0.171875 5.171875 0.171875 Z M 5.171875 0.171875 "/></g></g></g><g fill="#ffffff" fill-opacity="1"><g transform="translate(995.513973, 119.326546)"><g><path d="M 1.359375 0 L 1.359375 -12.71875 L 4.15625 -12.71875 L 4.15625 0 Z M 1.359375 0 "/></g></g></g><g fill="#ffffff" fill-opacity="1"><g transform="translate(1002.698994, 119.326546)"><g><path d="M 9.09375 -12.71875 L 9.09375 -10.234375 L 5.890625 -10.234375 L 5.890625 0 L 3.109375 0 L 3.109375 -10.234375 L -0.109375 -10.234375 L -0.109375 -12.71875 Z M 9.09375 -12.71875 "/></g></g></g><g fill="#ffffff" fill-opacity="1"><g transform="translate(1013.380761, 119.326546)"><g><path d="M 1.359375 0 L 1.359375 -12.71875 L 4.15625 -12.71875 L 4.15625 0 Z M 1.359375 0 "/></g></g></g><g fill="#ffffff" fill-opacity="1"><g transform="translate(1020.565782, 119.326546)"><g><path d="M 8.90625 -12.71875 L 12.015625 -12.71875 L 7.4375 0 L 4.296875 0 L -0.28125 -12.71875 L 2.84375 -12.71875 L 5.875 -3.625 Z M 8.90625 -12.71875 "/></g></g></g><g fill="#ffffff" fill-opacity="1"><g transform="translate(1034.00256, 119.326546)"><g><path d="M 9 -10.25 L 4.15625 -10.25 L 4.15625 -7.59375 L 8.3125 -7.59375 L 8.3125 -5.125 L 4.15625 -5.125 L 4.15625 -2.453125 L 9 -2.453125 L 9 0 L 1.359375 0 L 1.359375 -12.71875 L 9 -12.71875 Z M 9 -10.25 "/></g></g></g><g fill="#ffffff" fill-opacity="1"><g transform="translate(911.222716, 142.52418)"><g><path d="M 1.25 0 L 1.25 -12.71875 L 5.453125 -12.71875 C 6.328125 -12.71875 7.144531 -12.550781 7.90625 -12.21875 C 8.675781 -11.882812 9.351562 -11.425781 9.9375 -10.84375 C 10.519531 -10.269531 10.972656 -9.597656 11.296875 -8.828125 C 11.628906 -8.054688 11.796875 -7.234375 11.796875 -6.359375 C 11.796875 -5.484375 11.628906 -4.660156 11.296875 -3.890625 C 10.972656 -3.117188 10.519531 -2.441406 9.9375 -1.859375 C 9.351562 -1.285156 8.675781 -0.832031 7.90625 -0.5 C 7.144531 -0.164062 6.328125 0 5.453125 0 Z M 4.046875 -2.484375 L 5.421875 -2.484375 C 6.097656 -2.484375 6.703125 -2.648438 7.234375 -2.984375 C 7.773438 -3.328125 8.203125 -3.789062 8.515625 -4.375 C 8.835938 -4.957031 9 -5.617188 9 -6.359375 C 9 -7.085938 8.835938 -7.742188 8.515625 -8.328125 C 8.203125 -8.921875 7.773438 -9.382812 7.234375 -9.71875 C 6.703125 -10.0625 6.097656 -10.234375 5.421875 -10.234375 L 4.046875 -10.234375 Z M 4.046875 -2.484375 "/></g></g></g><g fill="#ffffff" fill-opacity="1"><g transform="translate(925.507187, 142.52418)"><g><path d="M 9 -10.25 L 4.15625 -10.25 L 4.15625 -7.59375 L 8.3125 -7.59375 L 8.3125 -5.125 L 4.15625 -5.125 L 4.15625 -2.453125 L 9 -2.453125 L 9 0 L 1.359375 0 L 1.359375 -12.71875 L 9 -12.71875 Z M 9 -10.25 "/></g></g></g><g fill="#ffffff" fill-opacity="1"><g transform="translate(937.079032, 142.52418)"><g><path d="M 6.65625 -12.71875 C 7.375 -12.71875 8.019531 -12.539062 8.59375 -12.1875 C 9.164062 -11.84375 9.617188 -11.378906 9.953125 -10.796875 C 10.285156 -10.222656 10.453125 -9.582031 10.453125 -8.875 C 10.453125 -8.164062 10.285156 -7.53125 9.953125 -6.96875 C 9.617188 -6.40625 9.164062 -5.960938 8.59375 -5.640625 C 8.019531 -5.316406 7.375 -5.15625 6.65625 -5.15625 L 4.046875 -5.15625 L 4.046875 0 L 1.25 0 L 1.25 -12.71875 Z M 6.203125 -7.453125 C 6.660156 -7.453125 7.035156 -7.578125 7.328125 -7.828125 C 7.628906 -8.085938 7.78125 -8.429688 7.78125 -8.859375 C 7.78125 -9.265625 7.628906 -9.597656 7.328125 -9.859375 C 7.035156 -10.117188 6.660156 -10.25 6.203125 -10.25 L 4.046875 -10.25 L 4.046875 -7.453125 Z M 6.203125 -7.453125 "/></g></g></g><g fill="#ffffff" fill-opacity="1"><g transform="translate(949.30784, 142.52418)"><g><path d="M 9 -10.25 L 4.15625 -10.25 L 4.15625 -7.59375 L 8.3125 -7.59375 L 8.3125 -5.125 L 4.15625 -5.125 L 4.15625 -2.453125 L 9 -2.453125 L 9 0 L 1.359375 0 L 1.359375 -12.71875 L 9 -12.71875 Z M 9 -10.25 "/></g></g></g><g fill="#ffffff" fill-opacity="1"><g transform="translate(960.879684, 142.52418)"><g><path d="M 10.390625 -12.71875 L 13.15625 -12.71875 L 13.15625 0 L 10.28125 0 L 4.046875 -8.4375 L 4.046875 0 L 1.25 0 L 1.25 -12.71875 L 4.125 -12.71875 L 10.390625 -4.296875 Z M 10.390625 -12.71875 "/></g></g></g><g fill="#ffffff" fill-opacity="1"><g transform="translate(977.007897, 142.52418)"><g><path d="M 1.25 0 L 1.25 -12.71875 L 5.453125 -12.71875 C 6.328125 -12.71875 7.144531 -12.550781 7.90625 -12.21875 C 8.675781 -11.882812 9.351562 -11.425781 9.9375 -10.84375 C 10.519531 -10.269531 10.972656 -9.597656 11.296875 -8.828125 C 11.628906 -8.054688 11.796875 -7.234375 11.796875 -6.359375 C 11.796875 -5.484375 11.628906 -4.660156 11.296875 -3.890625 C 10.972656 -3.117188 10.519531 -2.441406 9.9375 -1.859375 C 9.351562 -1.285156 8.675781 -0.832031 7.90625 -0.5 C 7.144531 -0.164062 6.328125 0 5.453125 0 Z M 4.046875 -2.484375 L 5.421875 -2.484375 C 6.097656 -2.484375 6.703125 -2.648438 7.234375 -2.984375 C 7.773438 -3.328125 8.203125 -3.789062 8.515625 -4.375 C 8.835938 -4.957031 9 -5.617188 9 -6.359375 C 9 -7.085938 8.835938 -7.742188 8.515625 -8.328125 C 8.203125 -8.921875 7.773438 -9.382812 7.234375 -9.71875 C 6.703125 -10.0625 6.097656 -10.234375 5.421875 -10.234375 L 4.046875 -10.234375 Z M 4.046875 -2.484375 "/></g></g></g><g fill="#ffffff" fill-opacity="1"><g transform="translate(991.292371, 142.52418)"><g><path d="M 9 -10.25 L 4.15625 -10.25 L 4.15625 -7.59375 L 8.3125 -7.59375 L 8.3125 -5.125 L 4.15625 -5.125 L 4.15625 -2.453125 L 9 -2.453125 L 9 0 L 1.359375 0 L 1.359375 -12.71875 L 9 -12.71875 Z M 9 -10.25 "/></g></g></g><g fill="#ffffff" fill-opacity="1"><g transform="translate(1002.864218, 142.52418)"><g><path d="M 10.390625 -12.71875 L 13.15625 -12.71875 L 13.15625 0 L 10.28125 0 L 4.046875 -8.4375 L 4.046875 0 L 1.25 0 L 1.25 -12.71875 L 4.125 -12.71875 L 10.390625 -4.296875 Z M 10.390625 -12.71875 "/></g></g></g><g fill="#ffffff" fill-opacity="1"><g transform="translate(1018.99243, 142.52418)"><g><path d="M 7.3125 0.171875 C 6.40625 0.171875 5.5625 0.00390625 4.78125 -0.328125 C 4 -0.671875 3.304688 -1.144531 2.703125 -1.75 C 2.097656 -2.351562 1.625 -3.046875 1.28125 -3.828125 C 0.945312 -4.609375 0.78125 -5.453125 0.78125 -6.359375 C 0.78125 -7.265625 0.945312 -8.109375 1.28125 -8.890625 C 1.625 -9.671875 2.097656 -10.359375 2.703125 -10.953125 C 3.304688 -11.554688 4 -12.03125 4.78125 -12.375 C 5.5625 -12.71875 6.40625 -12.890625 7.3125 -12.890625 C 8.570312 -12.890625 9.71875 -12.566406 10.75 -11.921875 C 11.78125 -11.273438 12.5625 -10.429688 13.09375 -9.390625 L 10.6875 -8.140625 C 10.375 -8.742188 9.921875 -9.226562 9.328125 -9.59375 C 8.734375 -9.96875 8.0625 -10.15625 7.3125 -10.15625 C 6.601562 -10.15625 5.960938 -9.988281 5.390625 -9.65625 C 4.816406 -9.320312 4.363281 -8.867188 4.03125 -8.296875 C 3.695312 -7.722656 3.53125 -7.078125 3.53125 -6.359375 C 3.53125 -5.640625 3.695312 -4.992188 4.03125 -4.421875 C 4.363281 -3.847656 4.816406 -3.394531 5.390625 -3.0625 C 5.960938 -2.726562 6.601562 -2.5625 7.3125 -2.5625 C 8.0625 -2.5625 8.734375 -2.742188 9.328125 -3.109375 C 9.921875 -3.484375 10.375 -3.972656 10.6875 -4.578125 L 13.09375 -3.328125 C 12.5625 -2.296875 11.78125 -1.453125 10.75 -0.796875 C 9.71875 -0.148438 8.570312 0.171875 7.3125 0.171875 Z M 7.3125 0.171875 "/></g></g></g><g fill="#ffffff" fill-opacity="1"><g transform="translate(1034.336523, 142.52418)"><g><path d="M 1.359375 0 L 1.359375 -12.71875 L 4.15625 -12.71875 L 4.15625 0 Z M 1.359375 0 "/></g></g></g><g fill="#ffffff" fill-opacity="1"><g transform="translate(1041.521544, 142.52418)"><g><path d="M 9 -10.25 L 4.15625 -10.25 L 4.15625 -7.59375 L 8.3125 -7.59375 L 8.3125 -5.125 L 4.15625 -5.125 L 4.15625 -2.453125 L 9 -2.453125 L 9 0 L 1.359375 0 L 1.359375 -12.71875 L 9 -12.71875 Z M 9 -10.25 "/></g></g></g><g fill="#ffffff" fill-opacity="1"><g transform="translate(1053.093392, 142.52418)"><g><path d="M 5.171875 0.171875 C 4.054688 0.171875 3.070312 -0.101562 2.21875 -0.65625 C 1.375 -1.207031 0.75 -1.878906 0.34375 -2.671875 L 2.65625 -4.109375 C 2.894531 -3.617188 3.234375 -3.21875 3.671875 -2.90625 C 4.109375 -2.601562 4.613281 -2.453125 5.1875 -2.453125 C 5.6875 -2.453125 6.070312 -2.554688 6.34375 -2.765625 C 6.625 -2.984375 6.765625 -3.269531 6.765625 -3.625 C 6.765625 -3.988281 6.617188 -4.285156 6.328125 -4.515625 C 6.046875 -4.742188 5.679688 -4.929688 5.234375 -5.078125 C 4.796875 -5.234375 4.328125 -5.398438 3.828125 -5.578125 C 3.328125 -5.753906 2.851562 -5.984375 2.40625 -6.265625 C 1.957031 -6.554688 1.59375 -6.925781 1.3125 -7.375 C 1.03125 -7.820312 0.890625 -8.410156 0.890625 -9.140625 C 0.890625 -9.984375 1.085938 -10.679688 1.484375 -11.234375 C 1.878906 -11.785156 2.390625 -12.195312 3.015625 -12.46875 C 3.648438 -12.75 4.296875 -12.890625 4.953125 -12.890625 C 5.742188 -12.890625 6.476562 -12.722656 7.15625 -12.390625 C 7.84375 -12.054688 8.414062 -11.617188 8.875 -11.078125 L 7.015625 -9.296875 C 6.703125 -9.648438 6.367188 -9.921875 6.015625 -10.109375 C 5.660156 -10.304688 5.300781 -10.40625 4.9375 -10.40625 C 4.59375 -10.40625 4.300781 -10.316406 4.0625 -10.140625 C 3.820312 -9.972656 3.703125 -9.707031 3.703125 -9.34375 C 3.703125 -8.976562 3.84375 -8.6875 4.125 -8.46875 C 4.414062 -8.257812 4.78125 -8.078125 5.21875 -7.921875 C 5.664062 -7.765625 6.132812 -7.59375 6.625 -7.40625 C 7.125 -7.226562 7.59375 -6.988281 8.03125 -6.6875 C 8.476562 -6.394531 8.84375 -6.003906 9.125 -5.515625 C 9.414062 -5.035156 9.5625 -4.398438 9.5625 -3.609375 C 9.5625 -2.816406 9.359375 -2.132812 8.953125 -1.5625 C 8.546875 -1 8.007812 -0.566406 7.34375 -0.265625 C 6.6875 0.0234375 5.960938 0.171875 5.171875 0.171875 Z M 5.171875 0.171875 "/></g></g></g><g clip-path="url(#83a9734b5d)"><path fill="#4360e0" d="M 504.457031 72.183594 L 777.152344 72.183594 L 777.152344 180.082031 L 504.457031 180.082031 Z M 504.457031 72.183594 " fill-opacity="1" fill-rule="nonzero"/></g><g fill="#ffffff" fill-opacity="1"><g transform="translate(599.378695, 117.829925)"><g><path d="M 1.46875 0 L 1.46875 -14.96875 L 6.40625 -14.96875 C 7.4375 -14.96875 8.40625 -14.769531 9.3125 -14.375 C 10.21875 -13.988281 11.007812 -13.453125 11.6875 -12.765625 C 12.375 -12.085938 12.910156 -11.296875 13.296875 -10.390625 C 13.691406 -9.484375 13.890625 -8.515625 13.890625 -7.484375 C 13.890625 -6.453125 13.691406 -5.484375 13.296875 -4.578125 C 12.910156 -3.671875 12.375 -2.875 11.6875 -2.1875 C 11.007812 -1.507812 10.21875 -0.972656 9.3125 -0.578125 C 8.40625 -0.191406 7.4375 0 6.40625 0 Z M 4.765625 -2.921875 L 6.390625 -2.921875 C 7.179688 -2.921875 7.894531 -3.117188 8.53125 -3.515625 C 9.164062 -3.910156 9.664062 -4.453125 10.03125 -5.140625 C 10.40625 -5.835938 10.59375 -6.617188 10.59375 -7.484375 C 10.59375 -8.347656 10.40625 -9.125 10.03125 -9.8125 C 9.664062 -10.5 9.164062 -11.039062 8.53125 -11.4375 C 7.894531 -11.84375 7.179688 -12.046875 6.390625 -12.046875 L 4.765625 -12.046875 Z M 4.765625 -2.921875 "/></g></g></g><g fill="#ffffff" fill-opacity="1"><g transform="translate(616.185012, 117.829925)"><g><path d="M 1.59375 0 L 1.59375 -14.96875 L 4.890625 -14.96875 L 4.890625 0 Z M 1.59375 0 "/></g></g></g><g fill="#ffffff" fill-opacity="1"><g transform="translate(624.638432, 117.829925)"><g><path d="M 9.28125 -6.15625 L 13.46875 0 L 9.78125 0 L 6.078125 -5.78125 L 4.765625 -5.78125 L 4.765625 0 L 1.46875 0 L 1.46875 -14.96875 L 7.828125 -14.96875 C 8.691406 -14.96875 9.457031 -14.765625 10.125 -14.359375 C 10.789062 -13.953125 11.316406 -13.394531 11.703125 -12.6875 C 12.097656 -11.988281 12.296875 -11.21875 12.296875 -10.375 C 12.296875 -9.363281 12.007812 -8.472656 11.4375 -7.703125 C 10.875 -6.941406 10.15625 -6.425781 9.28125 -6.15625 Z M 7.328125 -8.5 C 7.859375 -8.5 8.296875 -8.664062 8.640625 -9 C 8.984375 -9.332031 9.15625 -9.757812 9.15625 -10.28125 C 9.15625 -10.789062 8.984375 -11.210938 8.640625 -11.546875 C 8.296875 -11.878906 7.859375 -12.046875 7.328125 -12.046875 L 4.765625 -12.046875 L 4.765625 -8.5 Z M 7.328125 -8.5 "/></g></g></g><g fill="#ffffff" fill-opacity="1"><g transform="translate(639.973648, 117.829925)"><g><path d="M 10.59375 -12.078125 L 4.890625 -12.078125 L 4.890625 -8.921875 L 9.78125 -8.921875 L 9.78125 -6.03125 L 4.890625 -6.03125 L 4.890625 -2.890625 L 10.59375 -2.890625 L 10.59375 0 L 1.59375 0 L 1.59375 -14.96875 L 10.59375 -14.96875 Z M 10.59375 -12.078125 "/></g></g></g><g fill="#ffffff" fill-opacity="1"><g transform="translate(653.588409, 117.829925)"><g><path d="M 8.609375 0.203125 C 7.546875 0.203125 6.550781 0.00390625 5.625 -0.390625 C 4.695312 -0.796875 3.878906 -1.351562 3.171875 -2.0625 C 2.472656 -2.769531 1.921875 -3.582031 1.515625 -4.5 C 1.117188 -5.425781 0.921875 -6.421875 0.921875 -7.484375 C 0.921875 -8.546875 1.117188 -9.535156 1.515625 -10.453125 C 1.921875 -11.378906 2.472656 -12.195312 3.171875 -12.90625 C 3.878906 -13.613281 4.695312 -14.164062 5.625 -14.5625 C 6.550781 -14.96875 7.546875 -15.171875 8.609375 -15.171875 C 10.085938 -15.171875 11.429688 -14.789062 12.640625 -14.03125 C 13.859375 -13.269531 14.78125 -12.273438 15.40625 -11.046875 L 12.578125 -9.578125 C 12.203125 -10.296875 11.664062 -10.867188 10.96875 -11.296875 C 10.269531 -11.734375 9.484375 -11.953125 8.609375 -11.953125 C 7.773438 -11.953125 7.019531 -11.753906 6.34375 -11.359375 C 5.675781 -10.972656 5.144531 -10.441406 4.75 -9.765625 C 4.363281 -9.085938 4.171875 -8.328125 4.171875 -7.484375 C 4.171875 -6.628906 4.363281 -5.863281 4.75 -5.1875 C 5.144531 -4.519531 5.675781 -3.988281 6.34375 -3.59375 C 7.019531 -3.207031 7.773438 -3.015625 8.609375 -3.015625 C 9.484375 -3.015625 10.269531 -3.226562 10.96875 -3.65625 C 11.664062 -4.09375 12.203125 -4.671875 12.578125 -5.390625 L 15.40625 -3.921875 C 14.78125 -2.703125 13.859375 -1.707031 12.640625 -0.9375 C 11.429688 -0.175781 10.085938 0.203125 8.609375 0.203125 Z M 8.609375 0.203125 "/></g></g></g><g fill="#ffffff" fill-opacity="1"><g transform="translate(671.641435, 117.829925)"><g><path d="M 10.703125 -14.96875 L 10.703125 -12.046875 L 6.9375 -12.046875 L 6.9375 0 L 3.671875 0 L 3.671875 -12.046875 L -0.125 -12.046875 L -0.125 -14.96875 Z M 10.703125 -14.96875 "/></g></g></g><g fill="#ffffff" fill-opacity="1"><g transform="translate(551.428343, 145.517424)"><g><path d="M 1.46875 0 L 1.46875 -14.96875 L 6.40625 -14.96875 C 7.4375 -14.96875 8.40625 -14.769531 9.3125 -14.375 C 10.21875 -13.988281 11.007812 -13.453125 11.6875 -12.765625 C 12.375 -12.085938 12.910156 -11.296875 13.296875 -10.390625 C 13.691406 -9.484375 13.890625 -8.515625 13.890625 -7.484375 C 13.890625 -6.453125 13.691406 -5.484375 13.296875 -4.578125 C 12.910156 -3.671875 12.375 -2.875 11.6875 -2.1875 C 11.007812 -1.507812 10.21875 -0.972656 9.3125 -0.578125 C 8.40625 -0.191406 7.4375 0 6.40625 0 Z M 4.765625 -2.921875 L 6.390625 -2.921875 C 7.179688 -2.921875 7.894531 -3.117188 8.53125 -3.515625 C 9.164062 -3.910156 9.664062 -4.453125 10.03125 -5.140625 C 10.40625 -5.835938 10.59375 -6.617188 10.59375 -7.484375 C 10.59375 -8.347656 10.40625 -9.125 10.03125 -9.8125 C 9.664062 -10.5 9.164062 -11.039062 8.53125 -11.4375 C 7.894531 -11.84375 7.179688 -12.046875 6.390625 -12.046875 L 4.765625 -12.046875 Z M 4.765625 -2.921875 "/></g></g></g><g fill="#ffffff" fill-opacity="1"><g transform="translate(568.23466, 145.517424)"><g><path d="M 10.59375 -12.078125 L 4.890625 -12.078125 L 4.890625 -8.921875 L 9.78125 -8.921875 L 9.78125 -6.03125 L 4.890625 -6.03125 L 4.890625 -2.890625 L 10.59375 -2.890625 L 10.59375 0 L 1.59375 0 L 1.59375 -14.96875 L 10.59375 -14.96875 Z M 10.59375 -12.078125 "/></g></g></g><g fill="#ffffff" fill-opacity="1"><g transform="translate(581.849421, 145.517424)"><g><path d="M 7.828125 -14.96875 C 8.679688 -14.96875 9.441406 -14.765625 10.109375 -14.359375 C 10.785156 -13.953125 11.316406 -13.40625 11.703125 -12.71875 C 12.097656 -12.039062 12.296875 -11.285156 12.296875 -10.453125 C 12.296875 -9.617188 12.097656 -8.867188 11.703125 -8.203125 C 11.316406 -7.535156 10.785156 -7.007812 10.109375 -6.625 C 9.441406 -6.25 8.679688 -6.0625 7.828125 -6.0625 L 4.765625 -6.0625 L 4.765625 0 L 1.46875 0 L 1.46875 -14.96875 Z M 7.3125 -8.78125 C 7.84375 -8.78125 8.28125 -8.925781 8.625 -9.21875 C 8.976562 -9.519531 9.15625 -9.921875 9.15625 -10.421875 C 9.15625 -10.910156 8.976562 -11.304688 8.625 -11.609375 C 8.28125 -11.921875 7.84375 -12.078125 7.3125 -12.078125 L 4.765625 -12.078125 L 4.765625 -8.78125 Z M 7.3125 -8.78125 "/></g></g></g><g fill="#ffffff" fill-opacity="1"><g transform="translate(596.237145, 145.517424)"><g><path d="M 10.59375 -12.078125 L 4.890625 -12.078125 L 4.890625 -8.921875 L 9.78125 -8.921875 L 9.78125 -6.03125 L 4.890625 -6.03125 L 4.890625 -2.890625 L 10.59375 -2.890625 L 10.59375 0 L 1.59375 0 L 1.59375 -14.96875 L 10.59375 -14.96875 Z M 10.59375 -12.078125 "/></g></g></g><g fill="#ffffff" fill-opacity="1"><g transform="translate(609.851906, 145.517424)"><g><path d="M 12.21875 -14.96875 L 15.484375 -14.96875 L 15.484375 0 L 12.09375 0 L 4.765625 -9.921875 L 4.765625 0 L 1.46875 0 L 1.46875 -14.96875 L 4.859375 -14.96875 L 12.21875 -5.0625 Z M 12.21875 -14.96875 "/></g></g></g><g fill="#ffffff" fill-opacity="1"><g transform="translate(628.827487, 145.517424)"><g><path d="M 1.46875 0 L 1.46875 -14.96875 L 6.40625 -14.96875 C 7.4375 -14.96875 8.40625 -14.769531 9.3125 -14.375 C 10.21875 -13.988281 11.007812 -13.453125 11.6875 -12.765625 C 12.375 -12.085938 12.910156 -11.296875 13.296875 -10.390625 C 13.691406 -9.484375 13.890625 -8.515625 13.890625 -7.484375 C 13.890625 -6.453125 13.691406 -5.484375 13.296875 -4.578125 C 12.910156 -3.671875 12.375 -2.875 11.6875 -2.1875 C 11.007812 -1.507812 10.21875 -0.972656 9.3125 -0.578125 C 8.40625 -0.191406 7.4375 0 6.40625 0 Z M 4.765625 -2.921875 L 6.390625 -2.921875 C 7.179688 -2.921875 7.894531 -3.117188 8.53125 -3.515625 C 9.164062 -3.910156 9.664062 -4.453125 10.03125 -5.140625 C 10.40625 -5.835938 10.59375 -6.617188 10.59375 -7.484375 C 10.59375 -8.347656 10.40625 -9.125 10.03125 -9.8125 C 9.664062 -10.5 9.164062 -11.039062 8.53125 -11.4375 C 7.894531 -11.84375 7.179688 -12.046875 6.390625 -12.046875 L 4.765625 -12.046875 Z M 4.765625 -2.921875 "/></g></g></g><g fill="#ffffff" fill-opacity="1"><g transform="translate(645.633804, 145.517424)"><g><path d="M 10.59375 -12.078125 L 4.890625 -12.078125 L 4.890625 -8.921875 L 9.78125 -8.921875 L 9.78125 -6.03125 L 4.890625 -6.03125 L 4.890625 -2.890625 L 10.59375 -2.890625 L 10.59375 0 L 1.59375 0 L 1.59375 -14.96875 L 10.59375 -14.96875 Z M 10.59375 -12.078125 "/></g></g></g><g fill="#ffffff" fill-opacity="1"><g transform="translate(659.248559, 145.517424)"><g><path d="M 12.21875 -14.96875 L 15.484375 -14.96875 L 15.484375 0 L 12.09375 0 L 4.765625 -9.921875 L 4.765625 0 L 1.46875 0 L 1.46875 -14.96875 L 4.859375 -14.96875 L 12.21875 -5.0625 Z M 12.21875 -14.96875 "/></g></g></g><g fill="#ffffff" fill-opacity="1"><g transform="translate(678.224134, 145.517424)"><g><path d="M 8.609375 0.203125 C 7.546875 0.203125 6.550781 0.00390625 5.625 -0.390625 C 4.695312 -0.796875 3.878906 -1.351562 3.171875 -2.0625 C 2.472656 -2.769531 1.921875 -3.582031 1.515625 -4.5 C 1.117188 -5.425781 0.921875 -6.421875 0.921875 -7.484375 C 0.921875 -8.546875 1.117188 -9.535156 1.515625 -10.453125 C 1.921875 -11.378906 2.472656 -12.195312 3.171875 -12.90625 C 3.878906 -13.613281 4.695312 -14.164062 5.625 -14.5625 C 6.550781 -14.96875 7.546875 -15.171875 8.609375 -15.171875 C 10.085938 -15.171875 11.429688 -14.789062 12.640625 -14.03125 C 13.859375 -13.269531 14.78125 -12.273438 15.40625 -11.046875 L 12.578125 -9.578125 C 12.203125 -10.296875 11.664062 -10.867188 10.96875 -11.296875 C 10.269531 -11.734375 9.484375 -11.953125 8.609375 -11.953125 C 7.773438 -11.953125 7.019531 -11.753906 6.34375 -11.359375 C 5.675781 -10.972656 5.144531 -10.441406 4.75 -9.765625 C 4.363281 -9.085938 4.171875 -8.328125 4.171875 -7.484375 C 4.171875 -6.628906 4.363281 -5.863281 4.75 -5.1875 C 5.144531 -4.519531 5.675781 -3.988281 6.34375 -3.59375 C 7.019531 -3.207031 7.773438 -3.015625 8.609375 -3.015625 C 9.484375 -3.015625 10.269531 -3.226562 10.96875 -3.65625 C 11.664062 -4.09375 12.203125 -4.671875 12.578125 -5.390625 L 15.40625 -3.921875 C 14.78125 -2.703125 13.859375 -1.707031 12.640625 -0.9375 C 11.429688 -0.175781 10.085938 0.203125 8.609375 0.203125 Z M 8.609375 0.203125 "/></g></g></g><g fill="#ffffff" fill-opacity="1"><g transform="translate(696.277155, 145.517424)"><g><path d="M 1.59375 0 L 1.59375 -14.96875 L 4.890625 -14.96875 L 4.890625 0 Z M 1.59375 0 "/></g></g></g><g fill="#ffffff" fill-opacity="1"><g transform="translate(704.730569, 145.517424)"><g><path d="M 10.59375 -12.078125 L 4.890625 -12.078125 L 4.890625 -8.921875 L 9.78125 -8.921875 L 9.78125 -6.03125 L 4.890625 -6.03125 L 4.890625 -2.890625 L 10.59375 -2.890625 L 10.59375 0 L 1.59375 0 L 1.59375 -14.96875 L 10.59375 -14.96875 Z M 10.59375 -12.078125 "/></g></g></g><g fill="#ffffff" fill-opacity="1"><g transform="translate(718.345335, 145.517424)"><g><path d="M 6.078125 0.203125 C 4.765625 0.203125 3.609375 -0.117188 2.609375 -0.765625 C 1.617188 -1.421875 0.882812 -2.210938 0.40625 -3.140625 L 3.125 -4.84375 C 3.40625 -4.257812 3.800781 -3.785156 4.3125 -3.421875 C 4.832031 -3.066406 5.429688 -2.890625 6.109375 -2.890625 C 6.691406 -2.890625 7.144531 -3.015625 7.46875 -3.265625 C 7.789062 -3.515625 7.953125 -3.847656 7.953125 -4.265625 C 7.953125 -4.691406 7.785156 -5.039062 7.453125 -5.3125 C 7.117188 -5.582031 6.691406 -5.804688 6.171875 -5.984375 C 5.648438 -6.171875 5.09375 -6.367188 4.5 -6.578125 C 3.90625 -6.785156 3.347656 -7.050781 2.828125 -7.375 C 2.304688 -7.707031 1.878906 -8.140625 1.546875 -8.671875 C 1.210938 -9.210938 1.046875 -9.90625 1.046875 -10.75 C 1.046875 -11.75 1.273438 -12.570312 1.734375 -13.21875 C 2.203125 -13.863281 2.804688 -14.347656 3.546875 -14.671875 C 4.285156 -15.003906 5.050781 -15.171875 5.84375 -15.171875 C 6.769531 -15.171875 7.628906 -14.972656 8.421875 -14.578125 C 9.222656 -14.179688 9.898438 -13.671875 10.453125 -13.046875 L 8.25 -10.953125 C 7.882812 -11.367188 7.492188 -11.6875 7.078125 -11.90625 C 6.660156 -12.132812 6.238281 -12.25 5.8125 -12.25 C 5.414062 -12.25 5.070312 -12.144531 4.78125 -11.9375 C 4.5 -11.738281 4.359375 -11.425781 4.359375 -11 C 4.359375 -10.5625 4.523438 -10.21875 4.859375 -9.96875 C 5.191406 -9.726562 5.617188 -9.515625 6.140625 -9.328125 C 6.671875 -9.140625 7.222656 -8.9375 7.796875 -8.71875 C 8.378906 -8.507812 8.929688 -8.226562 9.453125 -7.875 C 9.984375 -7.53125 10.414062 -7.070312 10.75 -6.5 C 11.082031 -5.925781 11.25 -5.171875 11.25 -4.234375 C 11.25 -3.304688 11.007812 -2.507812 10.53125 -1.84375 C 10.0625 -1.175781 9.4375 -0.664062 8.65625 -0.3125 C 7.875 0.03125 7.015625 0.203125 6.078125 0.203125 Z M 6.078125 0.203125 "/></g></g></g><g clip-path="url(#32c7e801c3)"><path fill="#4360e0" d="M 504.457031 223.578125 L 777.152344 223.578125 L 777.152344 331.476562 L 504.457031 331.476562 Z M 504.457031 223.578125 " fill-opacity="1" fill-rule="nonzero"/></g><g fill="#ffffff" fill-opacity="1"><g transform="translate(560.115763, 269.224341)"><g><path d="M 8.609375 0.203125 C 7.546875 0.203125 6.550781 0.00390625 5.625 -0.390625 C 4.695312 -0.796875 3.878906 -1.351562 3.171875 -2.0625 C 2.472656 -2.769531 1.921875 -3.582031 1.515625 -4.5 C 1.117188 -5.425781 0.921875 -6.421875 0.921875 -7.484375 C 0.921875 -8.546875 1.117188 -9.535156 1.515625 -10.453125 C 1.921875 -11.378906 2.472656 -12.195312 3.171875 -12.90625 C 3.878906 -13.613281 4.695312 -14.164062 5.625 -14.5625 C 6.550781 -14.96875 7.546875 -15.171875 8.609375 -15.171875 C 10.085938 -15.171875 11.429688 -14.789062 12.640625 -14.03125 C 13.859375 -13.269531 14.78125 -12.273438 15.40625 -11.046875 L 12.578125 -9.578125 C 12.203125 -10.296875 11.664062 -10.867188 10.96875 -11.296875 C 10.269531 -11.734375 9.484375 -11.953125 8.609375 -11.953125 C 7.773438 -11.953125 7.019531 -11.753906 6.34375 -11.359375 C 5.675781 -10.972656 5.144531 -10.441406 4.75 -9.765625 C 4.363281 -9.085938 4.171875 -8.328125 4.171875 -7.484375 C 4.171875 -6.628906 4.363281 -5.863281 4.75 -5.1875 C 5.144531 -4.519531 5.675781 -3.988281 6.34375 -3.59375 C 7.019531 -3.207031 7.773438 -3.015625 8.609375 -3.015625 C 9.484375 -3.015625 10.269531 -3.226562 10.96875 -3.65625 C 11.664062 -4.09375 12.203125 -4.671875 12.578125 -5.390625 L 15.40625 -3.921875 C 14.78125 -2.703125 13.859375 -1.707031 12.640625 -0.9375 C 11.429688 -0.175781 10.085938 0.203125 8.609375 0.203125 Z M 8.609375 0.203125 "/></g></g></g><g fill="#ffffff" fill-opacity="1"><g transform="translate(578.16879, 269.224341)"><g><path d="M 8.609375 0.203125 C 7.546875 0.203125 6.550781 0.00390625 5.625 -0.390625 C 4.695312 -0.796875 3.878906 -1.351562 3.171875 -2.0625 C 2.472656 -2.769531 1.921875 -3.582031 1.515625 -4.5 C 1.117188 -5.425781 0.921875 -6.421875 0.921875 -7.484375 C 0.921875 -8.546875 1.117188 -9.535156 1.515625 -10.453125 C 1.921875 -11.378906 2.472656 -12.195312 3.171875 -12.90625 C 3.878906 -13.613281 4.695312 -14.164062 5.625 -14.5625 C 6.550781 -14.96875 7.546875 -15.171875 8.609375 -15.171875 C 9.671875 -15.171875 10.664062 -14.96875 11.59375 -14.5625 C 12.53125 -14.164062 13.347656 -13.613281 14.046875 -12.90625 C 14.742188 -12.195312 15.289062 -11.378906 15.6875 -10.453125 C 16.082031 -9.535156 16.28125 -8.546875 16.28125 -7.484375 C 16.28125 -6.421875 16.082031 -5.425781 15.6875 -4.5 C 15.289062 -3.582031 14.742188 -2.769531 14.046875 -2.0625 C 13.347656 -1.351562 12.53125 -0.796875 11.59375 -0.390625 C 10.664062 0.00390625 9.671875 0.203125 8.609375 0.203125 Z M 8.609375 -3.015625 C 9.453125 -3.015625 10.207031 -3.207031 10.875 -3.59375 C 11.550781 -3.988281 12.082031 -4.519531 12.46875 -5.1875 C 12.863281 -5.863281 13.0625 -6.628906 13.0625 -7.484375 C 13.0625 -8.328125 12.863281 -9.085938 12.46875 -9.765625 C 12.082031 -10.441406 11.550781 -10.972656 10.875 -11.359375 C 10.207031 -11.753906 9.453125 -11.953125 8.609375 -11.953125 C 7.773438 -11.953125 7.019531 -11.753906 6.34375 -11.359375 C 5.675781 -10.972656 5.144531 -10.441406 4.75 -9.765625 C 4.363281 -9.085938 4.171875 -8.328125 4.171875 -7.484375 C 4.171875 -6.628906 4.363281 -5.863281 4.75 -5.1875 C 5.144531 -4.519531 5.675781 -3.988281 6.34375 -3.59375 C 7.019531 -3.207031 7.773438 -3.015625 8.609375 -3.015625 Z M 8.609375 -3.015625 "/></g></g></g><g fill="#ffffff" fill-opacity="1"><g transform="translate(597.393712, 269.224341)"><g><path d="M 14.515625 -14.96875 L 18.0625 -14.96875 L 18.0625 0 L 14.765625 0 L 14.765625 -8.90625 L 10.703125 0 L 8.796875 0 L 4.765625 -8.921875 L 4.765625 0 L 1.46875 0 L 1.46875 -14.96875 L 5.03125 -14.96875 L 9.75 -4.609375 Z M 14.515625 -14.96875 "/></g></g></g><g fill="#ffffff" fill-opacity="1"><g transform="translate(618.912562, 269.224341)"><g><path d="M 14.515625 -14.96875 L 18.0625 -14.96875 L 18.0625 0 L 14.765625 0 L 14.765625 -8.90625 L 10.703125 0 L 8.796875 0 L 4.765625 -8.921875 L 4.765625 0 L 1.46875 0 L 1.46875 -14.96875 L 5.03125 -14.96875 L 9.75 -4.609375 Z M 14.515625 -14.96875 "/></g></g></g><g fill="#ffffff" fill-opacity="1"><g transform="translate(640.431413, 269.224341)"><g><path d="M 10.59375 -12.078125 L 4.890625 -12.078125 L 4.890625 -8.921875 L 9.78125 -8.921875 L 9.78125 -6.03125 L 4.890625 -6.03125 L 4.890625 -2.890625 L 10.59375 -2.890625 L 10.59375 0 L 1.59375 0 L 1.59375 -14.96875 L 10.59375 -14.96875 Z M 10.59375 -12.078125 "/></g></g></g><g fill="#ffffff" fill-opacity="1"><g transform="translate(654.046174, 269.224341)"><g><path d="M 9.28125 -6.15625 L 13.46875 0 L 9.78125 0 L 6.078125 -5.78125 L 4.765625 -5.78125 L 4.765625 0 L 1.46875 0 L 1.46875 -14.96875 L 7.828125 -14.96875 C 8.691406 -14.96875 9.457031 -14.765625 10.125 -14.359375 C 10.789062 -13.953125 11.316406 -13.394531 11.703125 -12.6875 C 12.097656 -11.988281 12.296875 -11.21875 12.296875 -10.375 C 12.296875 -9.363281 12.007812 -8.472656 11.4375 -7.703125 C 10.875 -6.941406 10.15625 -6.425781 9.28125 -6.15625 Z M 7.328125 -8.5 C 7.859375 -8.5 8.296875 -8.664062 8.640625 -9 C 8.984375 -9.332031 9.15625 -9.757812 9.15625 -10.28125 C 9.15625 -10.789062 8.984375 -11.210938 8.640625 -11.546875 C 8.296875 -11.878906 7.859375 -12.046875 7.328125 -12.046875 L 4.765625 -12.046875 L 4.765625 -8.5 Z M 7.328125 -8.5 "/></g></g></g><g fill="#ffffff" fill-opacity="1"><g transform="translate(669.38139, 269.224341)"><g><path d="M 8.609375 0.203125 C 7.546875 0.203125 6.550781 0.00390625 5.625 -0.390625 C 4.695312 -0.796875 3.878906 -1.351562 3.171875 -2.0625 C 2.472656 -2.769531 1.921875 -3.582031 1.515625 -4.5 C 1.117188 -5.425781 0.921875 -6.421875 0.921875 -7.484375 C 0.921875 -8.546875 1.117188 -9.535156 1.515625 -10.453125 C 1.921875 -11.378906 2.472656 -12.195312 3.171875 -12.90625 C 3.878906 -13.613281 4.695312 -14.164062 5.625 -14.5625 C 6.550781 -14.96875 7.546875 -15.171875 8.609375 -15.171875 C 10.085938 -15.171875 11.429688 -14.789062 12.640625 -14.03125 C 13.859375 -13.269531 14.78125 -12.273438 15.40625 -11.046875 L 12.578125 -9.578125 C 12.203125 -10.296875 11.664062 -10.867188 10.96875 -11.296875 C 10.269531 -11.734375 9.484375 -11.953125 8.609375 -11.953125 C 7.773438 -11.953125 7.019531 -11.753906 6.34375 -11.359375 C 5.675781 -10.972656 5.144531 -10.441406 4.75 -9.765625 C 4.363281 -9.085938 4.171875 -8.328125 4.171875 -7.484375 C 4.171875 -6.628906 4.363281 -5.863281 4.75 -5.1875 C 5.144531 -4.519531 5.675781 -3.988281 6.34375 -3.59375 C 7.019531 -3.207031 7.773438 -3.015625 8.609375 -3.015625 C 9.484375 -3.015625 10.269531 -3.226562 10.96875 -3.65625 C 11.664062 -4.09375 12.203125 -4.671875 12.578125 -5.390625 L 15.40625 -3.921875 C 14.78125 -2.703125 13.859375 -1.707031 12.640625 -0.9375 C 11.429688 -0.175781 10.085938 0.203125 8.609375 0.203125 Z M 8.609375 0.203125 "/></g></g></g><g fill="#ffffff" fill-opacity="1"><g transform="translate(687.434423, 269.224341)"><g><path d="M 1.59375 0 L 1.59375 -14.96875 L 4.890625 -14.96875 L 4.890625 0 Z M 1.59375 0 "/></g></g></g><g fill="#ffffff" fill-opacity="1"><g transform="translate(695.887836, 269.224341)"><g><path d="M 10.625 0 L 9.703125 -2.8125 L 4.109375 -2.8125 L 3.1875 0 L -0.328125 0 L 5.0625 -14.96875 L 8.75 -14.96875 L 14.140625 0 Z M 4.984375 -5.5625 L 8.828125 -5.5625 L 6.90625 -11.5 Z M 4.984375 -5.5625 "/></g></g></g><g fill="#ffffff" fill-opacity="1"><g transform="translate(711.696792, 269.224341)"><g><path d="M 4.765625 -2.921875 L 9.734375 -2.921875 L 9.734375 0 L 1.46875 0 L 1.46875 -14.96875 L 4.765625 -14.96875 Z M 4.765625 -2.921875 "/></g></g></g><g fill="#ffffff" fill-opacity="1"><g transform="translate(578.940457, 296.91184)"><g><path d="M 6.078125 0.203125 C 4.765625 0.203125 3.609375 -0.117188 2.609375 -0.765625 C 1.617188 -1.421875 0.882812 -2.210938 0.40625 -3.140625 L 3.125 -4.84375 C 3.40625 -4.257812 3.800781 -3.785156 4.3125 -3.421875 C 4.832031 -3.066406 5.429688 -2.890625 6.109375 -2.890625 C 6.691406 -2.890625 7.144531 -3.015625 7.46875 -3.265625 C 7.789062 -3.515625 7.953125 -3.847656 7.953125 -4.265625 C 7.953125 -4.691406 7.785156 -5.039062 7.453125 -5.3125 C 7.117188 -5.582031 6.691406 -5.804688 6.171875 -5.984375 C 5.648438 -6.171875 5.09375 -6.367188 4.5 -6.578125 C 3.90625 -6.785156 3.347656 -7.050781 2.828125 -7.375 C 2.304688 -7.707031 1.878906 -8.140625 1.546875 -8.671875 C 1.210938 -9.210938 1.046875 -9.90625 1.046875 -10.75 C 1.046875 -11.75 1.273438 -12.570312 1.734375 -13.21875 C 2.203125 -13.863281 2.804688 -14.347656 3.546875 -14.671875 C 4.285156 -15.003906 5.050781 -15.171875 5.84375 -15.171875 C 6.769531 -15.171875 7.628906 -14.972656 8.421875 -14.578125 C 9.222656 -14.179688 9.898438 -13.671875 10.453125 -13.046875 L 8.25 -10.953125 C 7.882812 -11.367188 7.492188 -11.6875 7.078125 -11.90625 C 6.660156 -12.132812 6.238281 -12.25 5.8125 -12.25 C 5.414062 -12.25 5.070312 -12.144531 4.78125 -11.9375 C 4.5 -11.738281 4.359375 -11.425781 4.359375 -11 C 4.359375 -10.5625 4.523438 -10.21875 4.859375 -9.96875 C 5.191406 -9.726562 5.617188 -9.515625 6.140625 -9.328125 C 6.671875 -9.140625 7.222656 -8.9375 7.796875 -8.71875 C 8.378906 -8.507812 8.929688 -8.226562 9.453125 -7.875 C 9.984375 -7.53125 10.414062 -7.070312 10.75 -6.5 C 11.082031 -5.925781 11.25 -5.171875 11.25 -4.234375 C 11.25 -3.304688 11.007812 -2.507812 10.53125 -1.84375 C 10.0625 -1.175781 9.4375 -0.664062 8.65625 -0.3125 C 7.875 0.03125 7.015625 0.203125 6.078125 0.203125 Z M 6.078125 0.203125 "/></g></g></g><g fill="#ffffff" fill-opacity="1"><g transform="translate(592.754696, 296.91184)"><g><path d="M 8.609375 0.203125 C 7.546875 0.203125 6.550781 0.00390625 5.625 -0.390625 C 4.695312 -0.796875 3.878906 -1.351562 3.171875 -2.0625 C 2.472656 -2.769531 1.921875 -3.582031 1.515625 -4.5 C 1.117188 -5.425781 0.921875 -6.421875 0.921875 -7.484375 C 0.921875 -8.546875 1.117188 -9.535156 1.515625 -10.453125 C 1.921875 -11.378906 2.472656 -12.195312 3.171875 -12.90625 C 3.878906 -13.613281 4.695312 -14.164062 5.625 -14.5625 C 6.550781 -14.96875 7.546875 -15.171875 8.609375 -15.171875 C 9.671875 -15.171875 10.664062 -14.96875 11.59375 -14.5625 C 12.53125 -14.164062 13.347656 -13.613281 14.046875 -12.90625 C 14.742188 -12.195312 15.289062 -11.378906 15.6875 -10.453125 C 16.082031 -9.535156 16.28125 -8.546875 16.28125 -7.484375 C 16.28125 -6.421875 16.082031 -5.425781 15.6875 -4.5 C 15.289062 -3.582031 14.742188 -2.769531 14.046875 -2.0625 C 13.347656 -1.351562 12.53125 -0.796875 11.59375 -0.390625 C 10.664062 0.00390625 9.671875 0.203125 8.609375 0.203125 Z M 8.609375 -3.015625 C 9.453125 -3.015625 10.207031 -3.207031 10.875 -3.59375 C 11.550781 -3.988281 12.082031 -4.519531 12.46875 -5.1875 C 12.863281 -5.863281 13.0625 -6.628906 13.0625 -7.484375 C 13.0625 -8.328125 12.863281 -9.085938 12.46875 -9.765625 C 12.082031 -10.441406 11.550781 -10.972656 10.875 -11.359375 C 10.207031 -11.753906 9.453125 -11.953125 8.609375 -11.953125 C 7.773438 -11.953125 7.019531 -11.753906 6.34375 -11.359375 C 5.675781 -10.972656 5.144531 -10.441406 4.75 -9.765625 C 4.363281 -9.085938 4.171875 -8.328125 4.171875 -7.484375 C 4.171875 -6.628906 4.363281 -5.863281 4.75 -5.1875 C 5.144531 -4.519531 5.675781 -3.988281 6.34375 -3.59375 C 7.019531 -3.207031 7.773438 -3.015625 8.609375 -3.015625 Z M 8.609375 -3.015625 "/></g></g></g><g fill="#ffffff" fill-opacity="1"><g transform="translate(611.979618, 296.91184)"><g><path d="M 10.59375 -12.078125 L 4.890625 -12.078125 L 4.890625 -8.921875 L 9.78125 -8.921875 L 9.78125 -6.03125 L 4.890625 -6.03125 L 4.890625 0 L 1.59375 0 L 1.59375 -14.96875 L 10.59375 -14.96875 Z M 10.59375 -12.078125 "/></g></g></g><g fill="#ffffff" fill-opacity="1"><g transform="translate(624.821427, 296.91184)"><g><path d="M 10.703125 -14.96875 L 10.703125 -12.046875 L 6.9375 -12.046875 L 6.9375 0 L 3.671875 0 L 3.671875 -12.046875 L -0.125 -12.046875 L -0.125 -14.96875 Z M 10.703125 -14.96875 "/></g></g></g><g fill="#ffffff" fill-opacity="1"><g transform="translate(637.388969, 296.91184)"><g><path d="M 17.390625 -14.96875 L 20.84375 -14.96875 L 16.765625 0 L 12.96875 0 L 10.25 -10.53125 L 7.53125 0 L 3.734375 0 L -0.34375 -14.96875 L 3.125 -14.96875 L 5.8125 -4.546875 L 8.65625 -14.96875 L 11.84375 -14.96875 L 14.71875 -4.59375 Z M 17.390625 -14.96875 "/></g></g></g><g fill="#ffffff" fill-opacity="1"><g transform="translate(659.880249, 296.91184)"><g><path d="M 10.625 0 L 9.703125 -2.8125 L 4.109375 -2.8125 L 3.1875 0 L -0.328125 0 L 5.0625 -14.96875 L 8.75 -14.96875 L 14.140625 0 Z M 4.984375 -5.5625 L 8.828125 -5.5625 L 6.90625 -11.5 Z M 4.984375 -5.5625 "/></g></g></g><g fill="#ffffff" fill-opacity="1"><g transform="translate(675.68921, 296.91184)"><g><path d="M 9.28125 -6.15625 L 13.46875 0 L 9.78125 0 L 6.078125 -5.78125 L 4.765625 -5.78125 L 4.765625 0 L 1.46875 0 L 1.46875 -14.96875 L 7.828125 -14.96875 C 8.691406 -14.96875 9.457031 -14.765625 10.125 -14.359375 C 10.789062 -13.953125 11.316406 -13.394531 11.703125 -12.6875 C 12.097656 -11.988281 12.296875 -11.21875 12.296875 -10.375 C 12.296875 -9.363281 12.007812 -8.472656 11.4375 -7.703125 C 10.875 -6.941406 10.15625 -6.425781 9.28125 -6.15625 Z M 7.328125 -8.5 C 7.859375 -8.5 8.296875 -8.664062 8.640625 -9 C 8.984375 -9.332031 9.15625 -9.757812 9.15625 -10.28125 C 9.15625 -10.789062 8.984375 -11.210938 8.640625 -11.546875 C 8.296875 -11.878906 7.859375 -12.046875 7.328125 -12.046875 L 4.765625 -12.046875 L 4.765625 -8.5 Z M 7.328125 -8.5 "/></g></g></g><g fill="#ffffff" fill-opacity="1"><g transform="translate(691.024432, 296.91184)"><g><path d="M 10.59375 -12.078125 L 4.890625 -12.078125 L 4.890625 -8.921875 L 9.78125 -8.921875 L 9.78125 -6.03125 L 4.890625 -6.03125 L 4.890625 -2.890625 L 10.59375 -2.890625 L 10.59375 0 L 1.59375 0 L 1.59375 -14.96875 L 10.59375 -14.96875 Z M 10.59375 -12.078125 "/></g></g></g><g clip-path="url(#3fd95ac5d9)"><path fill="#4360e0" d="M 1.132812 118.332031 L 240.160156 118.332031 L 240.160156 266.855469 L 1.132812 266.855469 Z M 1.132812 118.332031 " fill-opacity="1" fill-rule="nonzero"/></g><g fill="#ffffff" fill-opacity="1"><g transform="translate(81.592656, 182.688702)"><g><path d="M 16.140625 -17.96875 L 9.875 -8.46875 L 9.875 0 L 5.921875 0 L 5.921875 -8.4375 L -0.390625 -17.96875 L 4.078125 -17.96875 L 7.90625 -11.890625 L 11.734375 -17.96875 Z M 16.140625 -17.96875 "/></g></g></g><g fill="#ffffff" fill-opacity="1"><g transform="translate(99.761632, 182.688702)"><g><path d="M 10.328125 0.234375 C 9.046875 0.234375 7.851562 -0.00390625 6.75 -0.484375 C 5.644531 -0.960938 4.664062 -1.625 3.8125 -2.46875 C 2.96875 -3.320312 2.304688 -4.300781 1.828125 -5.40625 C 1.347656 -6.507812 1.109375 -7.703125 1.109375 -8.984375 C 1.109375 -10.265625 1.347656 -11.457031 1.828125 -12.5625 C 2.304688 -13.664062 2.96875 -14.640625 3.8125 -15.484375 C 4.664062 -16.335938 5.644531 -17.003906 6.75 -17.484375 C 7.851562 -17.960938 9.046875 -18.203125 10.328125 -18.203125 C 11.609375 -18.203125 12.804688 -17.960938 13.921875 -17.484375 C 15.035156 -17.003906 16.007812 -16.335938 16.84375 -15.484375 C 17.6875 -14.640625 18.347656 -13.664062 18.828125 -12.5625 C 19.304688 -11.457031 19.546875 -10.265625 19.546875 -8.984375 C 19.546875 -7.703125 19.304688 -6.507812 18.828125 -5.40625 C 18.347656 -4.300781 17.6875 -3.320312 16.84375 -2.46875 C 16.007812 -1.625 15.035156 -0.960938 13.921875 -0.484375 C 12.804688 -0.00390625 11.609375 0.234375 10.328125 0.234375 Z M 10.328125 -3.625 C 11.347656 -3.625 12.257812 -3.859375 13.0625 -4.328125 C 13.875 -4.796875 14.515625 -5.429688 14.984375 -6.234375 C 15.453125 -7.046875 15.6875 -7.960938 15.6875 -8.984375 C 15.6875 -10.003906 15.453125 -10.914062 14.984375 -11.71875 C 14.515625 -12.53125 13.875 -13.171875 13.0625 -13.640625 C 12.257812 -14.109375 11.347656 -14.34375 10.328125 -14.34375 C 9.328125 -14.34375 8.421875 -14.109375 7.609375 -13.640625 C 6.804688 -13.171875 6.171875 -12.53125 5.703125 -11.71875 C 5.234375 -10.914062 5 -10.003906 5 -8.984375 C 5 -7.960938 5.234375 -7.046875 5.703125 -6.234375 C 6.171875 -5.429688 6.804688 -4.796875 7.609375 -4.328125 C 8.421875 -3.859375 9.328125 -3.625 10.328125 -3.625 Z M 10.328125 -3.625 "/></g></g></g><g fill="#ffffff" fill-opacity="1"><g transform="translate(122.839515, 182.688702)"><g><path d="M 9.125 0.234375 C 7.726562 0.234375 6.46875 -0.0234375 5.34375 -0.546875 C 4.21875 -1.078125 3.320312 -1.796875 2.65625 -2.703125 C 2 -3.617188 1.671875 -4.632812 1.671875 -5.75 L 1.671875 -17.96875 L 5.625 -17.96875 L 5.625 -6.5 C 5.625 -5.582031 5.960938 -4.8125 6.640625 -4.1875 C 7.328125 -3.570312 8.15625 -3.265625 9.125 -3.265625 C 10.125 -3.265625 10.960938 -3.570312 11.640625 -4.1875 C 12.328125 -4.8125 12.671875 -5.582031 12.671875 -6.5 L 12.671875 -17.96875 L 16.625 -17.96875 L 16.625 -5.75 C 16.625 -4.632812 16.289062 -3.617188 15.625 -2.703125 C 14.96875 -1.796875 14.078125 -1.078125 12.953125 -0.546875 C 11.828125 -0.0234375 10.550781 0.234375 9.125 0.234375 Z M 9.125 0.234375 "/></g></g></g><g fill="#ffffff" fill-opacity="1"><g transform="translate(143.522807, 182.688702)"><g><path d="M 11.140625 -7.390625 L 16.171875 0 L 11.734375 0 L 7.3125 -6.953125 L 5.71875 -6.953125 L 5.71875 0 L 1.765625 0 L 1.765625 -17.96875 L 9.40625 -17.96875 C 10.4375 -17.96875 11.351562 -17.722656 12.15625 -17.234375 C 12.957031 -16.742188 13.59375 -16.078125 14.0625 -15.234375 C 14.53125 -14.398438 14.765625 -13.472656 14.765625 -12.453125 C 14.765625 -11.234375 14.421875 -10.164062 13.734375 -9.25 C 13.054688 -8.332031 12.191406 -7.710938 11.140625 -7.390625 Z M 8.796875 -10.203125 C 9.441406 -10.203125 9.96875 -10.398438 10.375 -10.796875 C 10.78125 -11.203125 10.984375 -11.710938 10.984375 -12.328125 C 10.984375 -12.953125 10.78125 -13.460938 10.375 -13.859375 C 9.96875 -14.265625 9.441406 -14.46875 8.796875 -14.46875 L 5.71875 -14.46875 L 5.71875 -10.203125 Z M 8.796875 -10.203125 "/></g></g></g><g fill="#ffffff" fill-opacity="1"><g transform="translate(46.32851, 215.614377)"><g><path d="M 7.3125 0.234375 C 5.726562 0.234375 4.335938 -0.148438 3.140625 -0.921875 C 1.941406 -1.703125 1.054688 -2.648438 0.484375 -3.765625 L 3.75 -5.8125 C 4.082031 -5.113281 4.554688 -4.546875 5.171875 -4.109375 C 5.796875 -3.679688 6.515625 -3.46875 7.328125 -3.46875 C 8.035156 -3.46875 8.582031 -3.617188 8.96875 -3.921875 C 9.351562 -4.222656 9.546875 -4.625 9.546875 -5.125 C 9.546875 -5.644531 9.347656 -6.0625 8.953125 -6.375 C 8.554688 -6.695312 8.039062 -6.96875 7.40625 -7.1875 C 6.78125 -7.40625 6.113281 -7.640625 5.40625 -7.890625 C 4.695312 -8.140625 4.023438 -8.460938 3.390625 -8.859375 C 2.765625 -9.265625 2.25 -9.785156 1.84375 -10.421875 C 1.445312 -11.054688 1.25 -11.882812 1.25 -12.90625 C 1.25 -14.101562 1.53125 -15.085938 2.09375 -15.859375 C 2.65625 -16.640625 3.378906 -17.222656 4.265625 -17.609375 C 5.148438 -18.003906 6.0625 -18.203125 7 -18.203125 C 8.125 -18.203125 9.164062 -17.96875 10.125 -17.5 C 11.082031 -17.03125 11.890625 -16.414062 12.546875 -15.65625 L 9.90625 -13.140625 C 9.46875 -13.640625 9 -14.023438 8.5 -14.296875 C 8 -14.566406 7.488281 -14.703125 6.96875 -14.703125 C 6.488281 -14.703125 6.078125 -14.582031 5.734375 -14.34375 C 5.398438 -14.101562 5.234375 -13.722656 5.234375 -13.203125 C 5.234375 -12.679688 5.429688 -12.269531 5.828125 -11.96875 C 6.234375 -11.675781 6.75 -11.421875 7.375 -11.203125 C 8.007812 -10.984375 8.675781 -10.742188 9.375 -10.484375 C 10.070312 -10.222656 10.734375 -9.878906 11.359375 -9.453125 C 11.992188 -9.035156 12.507812 -8.484375 12.90625 -7.796875 C 13.300781 -7.109375 13.5 -6.207031 13.5 -5.09375 C 13.5 -3.96875 13.210938 -3.003906 12.640625 -2.203125 C 12.078125 -1.410156 11.328125 -0.804688 10.390625 -0.390625 C 9.453125 0.0234375 8.425781 0.234375 7.3125 0.234375 Z M 7.3125 0.234375 "/></g></g></g><g fill="#ffffff" fill-opacity="1"><g transform="translate(62.91106, 215.614377)"><g><path d="M 10.328125 0.234375 C 9.046875 0.234375 7.851562 -0.00390625 6.75 -0.484375 C 5.644531 -0.960938 4.664062 -1.625 3.8125 -2.46875 C 2.96875 -3.320312 2.304688 -4.300781 1.828125 -5.40625 C 1.347656 -6.507812 1.109375 -7.703125 1.109375 -8.984375 C 1.109375 -10.265625 1.347656 -11.457031 1.828125 -12.5625 C 2.304688 -13.664062 2.96875 -14.640625 3.8125 -15.484375 C 4.664062 -16.335938 5.644531 -17.003906 6.75 -17.484375 C 7.851562 -17.960938 9.046875 -18.203125 10.328125 -18.203125 C 11.609375 -18.203125 12.804688 -17.960938 13.921875 -17.484375 C 15.035156 -17.003906 16.007812 -16.335938 16.84375 -15.484375 C 17.6875 -14.640625 18.347656 -13.664062 18.828125 -12.5625 C 19.304688 -11.457031 19.546875 -10.265625 19.546875 -8.984375 C 19.546875 -7.703125 19.304688 -6.507812 18.828125 -5.40625 C 18.347656 -4.300781 17.6875 -3.320312 16.84375 -2.46875 C 16.007812 -1.625 15.035156 -0.960938 13.921875 -0.484375 C 12.804688 -0.00390625 11.609375 0.234375 10.328125 0.234375 Z M 10.328125 -3.625 C 11.347656 -3.625 12.257812 -3.859375 13.0625 -4.328125 C 13.875 -4.796875 14.515625 -5.429688 14.984375 -6.234375 C 15.453125 -7.046875 15.6875 -7.960938 15.6875 -8.984375 C 15.6875 -10.003906 15.453125 -10.914062 14.984375 -11.71875 C 14.515625 -12.53125 13.875 -13.171875 13.0625 -13.640625 C 12.257812 -14.109375 11.347656 -14.34375 10.328125 -14.34375 C 9.328125 -14.34375 8.421875 -14.109375 7.609375 -13.640625 C 6.804688 -13.171875 6.171875 -12.53125 5.703125 -11.71875 C 5.234375 -10.914062 5 -10.003906 5 -8.984375 C 5 -7.960938 5.234375 -7.046875 5.703125 -6.234375 C 6.171875 -5.429688 6.804688 -4.796875 7.609375 -4.328125 C 8.421875 -3.859375 9.328125 -3.625 10.328125 -3.625 Z M 10.328125 -3.625 "/></g></g></g><g fill="#ffffff" fill-opacity="1"><g transform="translate(85.988942, 215.614377)"><g><path d="M 12.71875 -14.484375 L 5.875 -14.484375 L 5.875 -10.71875 L 11.734375 -10.71875 L 11.734375 -7.25 L 5.875 -7.25 L 5.875 0 L 1.921875 0 L 1.921875 -17.96875 L 12.71875 -17.96875 Z M 12.71875 -14.484375 "/></g></g></g><g fill="#ffffff" fill-opacity="1"><g transform="translate(101.404132, 215.614377)"><g><path d="M 12.84375 -17.96875 L 12.84375 -14.46875 L 8.328125 -14.46875 L 8.328125 0 L 4.40625 0 L 4.40625 -14.46875 L -0.15625 -14.46875 L -0.15625 -17.96875 Z M 12.84375 -17.96875 "/></g></g></g><g fill="#ffffff" fill-opacity="1"><g transform="translate(116.490068, 215.614377)"><g><path d="M 20.875 -17.96875 L 25.03125 -17.96875 L 20.125 0 L 15.5625 0 L 12.3125 -12.640625 L 9.046875 0 L 4.484375 0 L -0.421875 -17.96875 L 3.75 -17.96875 L 6.96875 -5.453125 L 10.390625 -17.96875 L 14.21875 -17.96875 L 17.671875 -5.515625 Z M 20.875 -17.96875 "/></g></g></g><g fill="#ffffff" fill-opacity="1"><g transform="translate(143.4891, 215.614377)"><g><path d="M 12.75 0 L 11.640625 -3.390625 L 4.9375 -3.390625 L 3.828125 0 L -0.390625 0 L 6.078125 -17.96875 L 10.515625 -17.96875 L 16.984375 0 Z M 5.984375 -6.671875 L 10.59375 -6.671875 L 8.296875 -13.796875 Z M 5.984375 -6.671875 "/></g></g></g><g fill="#ffffff" fill-opacity="1"><g transform="translate(162.466239, 215.614377)"><g><path d="M 11.140625 -7.390625 L 16.171875 0 L 11.734375 0 L 7.3125 -6.953125 L 5.71875 -6.953125 L 5.71875 0 L 1.765625 0 L 1.765625 -17.96875 L 9.40625 -17.96875 C 10.4375 -17.96875 11.351562 -17.722656 12.15625 -17.234375 C 12.957031 -16.742188 13.59375 -16.078125 14.0625 -15.234375 C 14.53125 -14.398438 14.765625 -13.472656 14.765625 -12.453125 C 14.765625 -11.234375 14.421875 -10.164062 13.734375 -9.25 C 13.054688 -8.332031 12.191406 -7.710938 11.140625 -7.390625 Z M 8.796875 -10.203125 C 9.441406 -10.203125 9.96875 -10.398438 10.375 -10.796875 C 10.78125 -11.203125 10.984375 -11.710938 10.984375 -12.328125 C 10.984375 -12.953125 10.78125 -13.460938 10.375 -13.859375 C 9.96875 -14.265625 9.441406 -14.46875 8.796875 -14.46875 L 5.71875 -14.46875 L 5.71875 -10.203125 Z M 8.796875 -10.203125 "/></g></g></g><g fill="#ffffff" fill-opacity="1"><g transform="translate(180.874666, 215.614377)"><g><path d="M 12.71875 -14.484375 L 5.875 -14.484375 L 5.875 -10.71875 L 11.734375 -10.71875 L 11.734375 -7.25 L 5.875 -7.25 L 5.875 -3.46875 L 12.71875 -3.46875 L 12.71875 0 L 1.921875 0 L 1.921875 -17.96875 L 12.71875 -17.96875 Z M 12.71875 -14.484375 "/></g></g></g><path stroke-linecap="butt" transform="matrix(0.748311, 0, 0, 0.748311, 240.025323, 124.635599)" fill="none" stroke-linejoin="miter" d="M -0.00251921 90.81541 L 152.685127 90.81541 C 165.938936 90.81541 176.687103 80.072464 176.687103 66.818654 L 176.687103 25.997547 C 176.687103 12.743737 187.430049 2.000791 200.683858 2.000791 L 351.37221 2.000791 " stroke="#9240b5" stroke-width="4" stroke-opacity="1" stroke-miterlimit="4"/><path stroke-linecap="round" transform="matrix(0.748311, 0, 0, 0.748311, 240.025323, 124.635599)" fill="none" stroke-linejoin="round" d="M 343.369811 -4.002313 L 351.37221 2.000791 L 343.369811 7.998675 " stroke="#9240b5" stroke-width="4" stroke-opacity="1" stroke-miterlimit="4"/><path stroke-linecap="butt" transform="matrix(0.748311, 0, 0, 0.748311, 777.155541, 124.635599)" fill="none" stroke-linejoin="miter" d="M 0.00094804 2.000791 L 148.011393 2.000791 " stroke="#9240b5" stroke-width="4" stroke-opacity="1" stroke-miterlimit="4"/><path stroke-linecap="round" transform="matrix(0.748311, 0, 0, 0.748311, 777.155541, 124.635599)" fill="none" stroke-linejoin="round" d="M 140.008994 -4.002313 L 148.011393 2.000791 L 140.008994 7.998675 " stroke="#9240b5" stroke-width="4" stroke-opacity="1" stroke-miterlimit="4"/><path stroke-linecap="butt" transform="matrix(0.748311, 0, 0, 0.748311, 240.025323, 191.098166)" fill="none" stroke-linejoin="miter" d="M -0.00251921 1.998613 L 152.685127 1.998613 C 165.938936 1.998613 176.687103 12.746779 176.687103 26.000589 L 176.687103 91.497064 C 176.687103 104.750874 187.430049 115.49904 200.683858 115.49904 L 351.37221 115.49904 " stroke="#9240b5" stroke-width="4" stroke-opacity="1" stroke-miterlimit="4"/><path stroke-linecap="round" transform="matrix(0.748311, 0, 0, 0.748311, 240.025323, 191.098166)" fill="none" stroke-linejoin="round" d="M 343.369811 109.495936 L 351.37221 115.49904 L 343.369811 121.496924 " stroke="#9240b5" stroke-width="4" stroke-opacity="1" stroke-miterlimit="4"/><path stroke-linecap="butt" transform="matrix(0.748311, 0, 0, 0.748311, 777.155541, 124.635599)" fill="none" stroke-linejoin="miter" d="M 0.00094804 204.315837 L 51.006452 204.315837 C 64.260262 204.315837 75.003208 193.56767 75.003208 180.313861 L 75.003208 25.997547 C 75.003208 12.743737 85.751374 2.000791 99.005184 2.000791 L 148.011393 2.000791 " stroke="#9240b5" stroke-width="4" stroke-opacity="1" stroke-miterlimit="4"/><path stroke-linecap="round" transform="matrix(0.748311, 0, 0, 0.748311, 777.155541, 124.635599)" fill="none" stroke-linejoin="round" d="M 140.008994 -4.002313 L 148.011393 2.000791 L 140.008994 7.998675 " stroke="#9240b5" stroke-width="4" stroke-opacity="1" stroke-miterlimit="4"/><g fill="#9240b5" fill-opacity="1"><g transform="translate(621.47339, 34.917088)"><g><path d="M 9.921875 0.390625 C 8.191406 0.390625 6.597656 -0.0234375 5.140625 -0.859375 C 3.691406 -1.691406 2.546875 -2.828125 1.703125 -4.265625 C 0.867188 -5.710938 0.453125 -7.300781 0.453125 -9.03125 C 0.453125 -10.6875 0.878906 -12.238281 1.734375 -13.6875 C 2.585938 -15.144531 3.742188 -16.300781 5.203125 -17.15625 C 6.671875 -18.007812 8.242188 -18.4375 9.921875 -18.4375 C 11.578125 -18.4375 13.144531 -18.015625 14.625 -17.171875 C 16.101562 -16.328125 17.265625 -15.175781 18.109375 -13.71875 C 18.953125 -12.269531 19.375 -10.707031 19.375 -9.03125 C 19.375 -7.300781 18.953125 -5.710938 18.109375 -4.265625 C 17.273438 -2.828125 16.132812 -1.691406 14.6875 -0.859375 C 13.25 -0.0234375 11.660156 0.390625 9.921875 0.390625 Z M 17.125 -9.03125 C 17.125 -10.375 16.800781 -11.609375 16.15625 -12.734375 C 15.519531 -13.859375 14.648438 -14.738281 13.546875 -15.375 C 12.453125 -16.019531 11.234375 -16.34375 9.890625 -16.34375 C 8.578125 -16.34375 7.363281 -16.015625 6.25 -15.359375 C 5.144531 -14.710938 4.273438 -13.832031 3.640625 -12.71875 C 3.015625 -11.613281 2.703125 -10.382812 2.703125 -9.03125 C 2.703125 -7.6875 3.039062 -6.441406 3.71875 -5.296875 C 4.40625 -4.160156 5.296875 -3.28125 6.390625 -2.65625 C 7.492188 -2.03125 8.671875 -1.71875 9.921875 -1.71875 C 11.160156 -1.71875 12.332031 -2.03125 13.4375 -2.65625 C 14.539062 -3.28125 15.429688 -4.15625 16.109375 -5.28125 C 16.785156 -6.40625 17.125 -7.65625 17.125 -9.03125 Z M 17.125 -9.03125 "/></g></g></g><g fill="#9240b5" fill-opacity="1"><g transform="translate(641.300669, 34.917088)"><g><path d="M 7.328125 0.390625 C 6.515625 0.390625 5.785156 0.191406 5.140625 -0.203125 C 4.492188 -0.597656 3.953125 -1.113281 3.515625 -1.75 L 3.46875 -1.75 L 3.46875 6.421875 L 1.3125 6.421875 L 1.3125 -11.203125 L 3.46875 -11.203125 L 3.46875 -9.34375 L 3.515625 -9.34375 C 3.960938 -10.007812 4.519531 -10.539062 5.1875 -10.9375 C 5.851562 -11.34375 6.597656 -11.546875 7.421875 -11.546875 C 8.367188 -11.546875 9.253906 -11.289062 10.078125 -10.78125 C 10.898438 -10.28125 11.539062 -9.578125 12 -8.671875 C 12.457031 -7.773438 12.6875 -6.773438 12.6875 -5.671875 C 12.6875 -4.523438 12.472656 -3.503906 12.046875 -2.609375 C 11.628906 -1.710938 11.015625 -0.988281 10.203125 -0.4375 C 9.390625 0.113281 8.429688 0.390625 7.328125 0.390625 Z M 10.546875 -5.609375 C 10.546875 -6.816406 10.195312 -7.785156 9.5 -8.515625 C 8.800781 -9.253906 7.925781 -9.625 6.875 -9.625 C 5.863281 -9.625 5.023438 -9.238281 4.359375 -8.46875 C 3.691406 -7.695312 3.359375 -6.742188 3.359375 -5.609375 C 3.359375 -4.421875 3.6875 -3.441406 4.34375 -2.671875 C 5.007812 -1.910156 5.863281 -1.53125 6.90625 -1.53125 C 7.988281 -1.53125 8.863281 -1.910156 9.53125 -2.671875 C 10.207031 -3.429688 10.546875 -4.410156 10.546875 -5.609375 Z M 10.546875 -5.609375 "/></g></g></g><g fill="#9240b5" fill-opacity="1"><g transform="translate(654.614643, 34.917088)"><g><path d="M 11.328125 -5.4375 L 11.328125 -5.25 L 2.78125 -5.25 C 2.8125 -4.15625 3.148438 -3.257812 3.796875 -2.5625 C 4.441406 -1.875 5.226562 -1.53125 6.15625 -1.53125 C 6.988281 -1.53125 7.648438 -1.722656 8.140625 -2.109375 C 8.640625 -2.503906 9.097656 -3.039062 9.515625 -3.71875 L 11.328125 -2.6875 C 10.804688 -1.707031 10.082031 -0.945312 9.15625 -0.40625 C 8.238281 0.125 7.226562 0.390625 6.125 0.390625 C 4.519531 0.390625 3.203125 -0.148438 2.171875 -1.234375 C 1.140625 -2.328125 0.625 -3.753906 0.625 -5.515625 C 0.625 -7.347656 1.109375 -8.8125 2.078125 -9.90625 C 3.054688 -11 4.390625 -11.546875 6.078125 -11.546875 C 7.710938 -11.546875 8.992188 -11.015625 9.921875 -9.953125 C 10.859375 -8.890625 11.328125 -7.382812 11.328125 -5.4375 Z M 9.171875 -6.875 C 9.046875 -7.738281 8.710938 -8.421875 8.171875 -8.921875 C 7.640625 -9.421875 6.9375 -9.671875 6.0625 -9.671875 C 5.25 -9.671875 4.550781 -9.40625 3.96875 -8.875 C 3.382812 -8.34375 3.023438 -7.675781 2.890625 -6.875 Z M 9.171875 -6.875 "/></g></g></g><g fill="#9240b5" fill-opacity="1"><g transform="translate(666.300285, 34.917088)"><g><path d="M 11.046875 -6.796875 L 11.046875 0 L 8.890625 0 L 8.890625 -6.546875 C 8.890625 -7.660156 8.710938 -8.453125 8.359375 -8.921875 C 8.003906 -9.390625 7.359375 -9.625 6.421875 -9.625 C 5.441406 -9.625 4.734375 -9.320312 4.296875 -8.71875 C 3.859375 -8.113281 3.640625 -7.046875 3.640625 -5.515625 L 3.640625 0 L 1.484375 0 L 1.484375 -11.203125 L 3.640625 -11.203125 L 3.640625 -9.703125 L 3.6875 -9.703125 C 4.039062 -10.304688 4.519531 -10.765625 5.125 -11.078125 C 5.726562 -11.390625 6.375 -11.546875 7.0625 -11.546875 C 8.425781 -11.546875 9.429688 -11.148438 10.078125 -10.359375 C 10.722656 -9.566406 11.046875 -8.378906 11.046875 -6.796875 Z M 11.046875 -6.796875 "/></g></g></g><g fill="#9240b5" fill-opacity="1"><g transform="translate(678.824043, 34.917088)"><g/></g></g><g fill="#9240b5" fill-opacity="1"><g transform="translate(685.744433, 34.917088)"><g><path d="M 11.546875 -15.71875 L 9.75 -14.640625 C 9.414062 -15.191406 9.019531 -15.613281 8.5625 -15.90625 C 8.101562 -16.195312 7.53125 -16.34375 6.84375 -16.34375 C 6.050781 -16.34375 5.347656 -16.09375 4.734375 -15.59375 C 4.128906 -15.09375 3.828125 -14.484375 3.828125 -13.765625 C 3.828125 -13.191406 4.039062 -12.691406 4.46875 -12.265625 C 4.894531 -11.847656 5.515625 -11.488281 6.328125 -11.1875 L 7.640625 -10.6875 C 9.160156 -10.113281 10.285156 -9.394531 11.015625 -8.53125 C 11.753906 -7.664062 12.125 -6.570312 12.125 -5.25 C 12.125 -3.601562 11.5625 -2.25 10.4375 -1.1875 C 9.3125 -0.132812 7.945312 0.390625 6.34375 0.390625 C 4.9375 0.390625 3.710938 -0.0703125 2.671875 -1 C 1.628906 -1.925781 0.992188 -3.148438 0.765625 -4.671875 L 3.046875 -5.15625 C 3.046875 -4.175781 3.378906 -3.359375 4.046875 -2.703125 C 4.710938 -2.046875 5.546875 -1.71875 6.546875 -1.71875 C 7.460938 -1.71875 8.242188 -2.050781 8.890625 -2.71875 C 9.546875 -3.394531 9.875 -4.238281 9.875 -5.25 C 9.875 -6.03125 9.632812 -6.675781 9.15625 -7.1875 C 8.6875 -7.695312 7.882812 -8.191406 6.75 -8.671875 L 5.515625 -9.203125 C 4.078125 -9.804688 3.0625 -10.472656 2.46875 -11.203125 C 1.875 -11.941406 1.578125 -12.796875 1.578125 -13.765625 C 1.578125 -15.109375 2.09375 -16.222656 3.125 -17.109375 C 4.15625 -17.992188 5.414062 -18.4375 6.90625 -18.4375 C 7.90625 -18.4375 8.800781 -18.203125 9.59375 -17.734375 C 10.394531 -17.265625 11.046875 -16.59375 11.546875 -15.71875 Z M 11.546875 -15.71875 "/></g></g></g><g fill="#9240b5" fill-opacity="1"><g transform="translate(698.603433, 34.917088)"><g><path d="M 6.46875 0.390625 C 5.382812 0.390625 4.382812 0.132812 3.46875 -0.375 C 2.5625 -0.894531 1.835938 -1.613281 1.296875 -2.53125 C 0.753906 -3.457031 0.484375 -4.472656 0.484375 -5.578125 C 0.484375 -6.679688 0.738281 -7.679688 1.25 -8.578125 C 1.769531 -9.472656 2.488281 -10.191406 3.40625 -10.734375 C 4.332031 -11.273438 5.351562 -11.546875 6.46875 -11.546875 C 7.601562 -11.546875 8.632812 -11.265625 9.5625 -10.703125 C 10.5 -10.148438 11.210938 -9.425781 11.703125 -8.53125 C 12.203125 -7.632812 12.453125 -6.648438 12.453125 -5.578125 C 12.453125 -4.546875 12.207031 -3.570312 11.71875 -2.65625 C 11.238281 -1.75 10.53125 -1.015625 9.59375 -0.453125 C 8.65625 0.109375 7.613281 0.390625 6.46875 0.390625 Z M 10.296875 -5.578125 C 10.296875 -6.660156 9.914062 -7.582031 9.15625 -8.34375 C 8.40625 -9.101562 7.5 -9.484375 6.4375 -9.484375 C 5.445312 -9.484375 4.566406 -9.101562 3.796875 -8.34375 C 3.023438 -7.582031 2.640625 -6.660156 2.640625 -5.578125 C 2.640625 -4.546875 3.015625 -3.632812 3.765625 -2.84375 C 4.523438 -2.0625 5.425781 -1.671875 6.46875 -1.671875 C 7.519531 -1.671875 8.421875 -2.054688 9.171875 -2.828125 C 9.921875 -3.609375 10.296875 -4.523438 10.296875 -5.578125 Z M 10.296875 -5.578125 "/></g></g></g><g fill="#9240b5" fill-opacity="1"><g transform="translate(711.534265, 34.917088)"><g><path d="M 3.546875 -11.203125 L 3.546875 -4.90625 C 3.546875 -3.757812 3.765625 -2.925781 4.203125 -2.40625 C 4.640625 -1.882812 5.28125 -1.625 6.125 -1.625 C 7.070312 -1.625 7.738281 -1.910156 8.125 -2.484375 C 8.519531 -3.066406 8.71875 -3.875 8.71875 -4.90625 L 8.71875 -11.203125 L 10.875 -11.203125 L 10.875 -4.671875 C 10.875 -3.054688 10.46875 -1.804688 9.65625 -0.921875 C 8.84375 -0.046875 7.664062 0.390625 6.125 0.390625 C 4.550781 0.390625 3.367188 -0.0625 2.578125 -0.96875 C 1.785156 -1.882812 1.390625 -3.125 1.390625 -4.6875 L 1.390625 -11.203125 Z M 3.546875 -11.203125 "/></g></g></g><g fill="#9240b5" fill-opacity="1"><g transform="translate(723.794614, 34.917088)"><g><path d="M 8.6875 -11 L 7.71875 -9.03125 C 7.519531 -9.207031 7.304688 -9.328125 7.078125 -9.390625 C 6.847656 -9.453125 6.617188 -9.484375 6.390625 -9.484375 C 5.492188 -9.484375 4.832031 -9.160156 4.40625 -8.515625 C 3.988281 -7.878906 3.78125 -6.914062 3.78125 -5.625 L 3.78125 0 L 1.625 0 L 1.625 -11.203125 L 3.78125 -11.203125 L 3.78125 -9.390625 L 3.859375 -9.390625 C 4.128906 -10.054688 4.53125 -10.582031 5.0625 -10.96875 C 5.601562 -11.351562 6.222656 -11.546875 6.921875 -11.546875 C 7.210938 -11.546875 7.507812 -11.5 7.8125 -11.40625 C 8.125 -11.3125 8.414062 -11.175781 8.6875 -11 Z M 8.6875 -11 "/></g></g></g><g fill="#9240b5" fill-opacity="1"><g transform="translate(732.199659, 34.917088)"><g><path d="M 9.71875 -10.796875 L 9.71875 -8.03125 C 8.863281 -9.03125 7.796875 -9.53125 6.515625 -9.53125 C 5.492188 -9.53125 4.613281 -9.132812 3.875 -8.34375 C 3.144531 -7.550781 2.78125 -6.640625 2.78125 -5.609375 C 2.78125 -4.421875 3.144531 -3.457031 3.875 -2.71875 C 4.613281 -1.988281 5.539062 -1.625 6.65625 -1.625 C 7.28125 -1.625 7.835938 -1.75 8.328125 -2 C 8.828125 -2.257812 9.289062 -2.628906 9.71875 -3.109375 L 9.71875 -0.359375 C 9.207031 -0.0859375 8.703125 0.101562 8.203125 0.21875 C 7.710938 0.332031 7.191406 0.390625 6.640625 0.390625 C 4.972656 0.390625 3.550781 -0.179688 2.375 -1.328125 C 1.207031 -2.472656 0.625 -3.867188 0.625 -5.515625 C 0.625 -6.640625 0.894531 -7.664062 1.4375 -8.59375 C 1.976562 -9.519531 2.71875 -10.242188 3.65625 -10.765625 C 4.601562 -11.285156 5.632812 -11.546875 6.75 -11.546875 C 7.257812 -11.546875 7.773438 -11.484375 8.296875 -11.359375 C 8.816406 -11.242188 9.289062 -11.054688 9.71875 -10.796875 Z M 9.71875 -10.796875 "/></g></g></g><g fill="#9240b5" fill-opacity="1"><g transform="translate(742.759844, 34.917088)"><g><path d="M 11.328125 -5.4375 L 11.328125 -5.25 L 2.78125 -5.25 C 2.8125 -4.15625 3.148438 -3.257812 3.796875 -2.5625 C 4.441406 -1.875 5.226562 -1.53125 6.15625 -1.53125 C 6.988281 -1.53125 7.648438 -1.722656 8.140625 -2.109375 C 8.640625 -2.503906 9.097656 -3.039062 9.515625 -3.71875 L 11.328125 -2.6875 C 10.804688 -1.707031 10.082031 -0.945312 9.15625 -0.40625 C 8.238281 0.125 7.226562 0.390625 6.125 0.390625 C 4.519531 0.390625 3.203125 -0.148438 2.171875 -1.234375 C 1.140625 -2.328125 0.625 -3.753906 0.625 -5.515625 C 0.625 -7.347656 1.109375 -8.8125 2.078125 -9.90625 C 3.054688 -11 4.390625 -11.546875 6.078125 -11.546875 C 7.710938 -11.546875 8.992188 -11.015625 9.921875 -9.953125 C 10.859375 -8.890625 11.328125 -7.382812 11.328125 -5.4375 Z M 9.171875 -6.875 C 9.046875 -7.738281 8.710938 -8.421875 8.171875 -8.921875 C 7.640625 -9.421875 6.9375 -9.671875 6.0625 -9.671875 C 5.25 -9.671875 4.550781 -9.40625 3.96875 -8.875 C 3.382812 -8.34375 3.023438 -7.675781 2.890625 -6.875 Z M 9.171875 -6.875 "/></g></g></g><g fill="#9240b5" fill-opacity="1"><g transform="translate(754.445486, 34.917088)"><g/></g></g><g fill="#9240b5" fill-opacity="1"><g transform="translate(761.365876, 34.917088)"><g><path d="M 11.546875 -15.71875 L 9.75 -14.640625 C 9.414062 -15.191406 9.019531 -15.613281 8.5625 -15.90625 C 8.101562 -16.195312 7.53125 -16.34375 6.84375 -16.34375 C 6.050781 -16.34375 5.347656 -16.09375 4.734375 -15.59375 C 4.128906 -15.09375 3.828125 -14.484375 3.828125 -13.765625 C 3.828125 -13.191406 4.039062 -12.691406 4.46875 -12.265625 C 4.894531 -11.847656 5.515625 -11.488281 6.328125 -11.1875 L 7.640625 -10.6875 C 9.160156 -10.113281 10.285156 -9.394531 11.015625 -8.53125 C 11.753906 -7.664062 12.125 -6.570312 12.125 -5.25 C 12.125 -3.601562 11.5625 -2.25 10.4375 -1.1875 C 9.3125 -0.132812 7.945312 0.390625 6.34375 0.390625 C 4.9375 0.390625 3.710938 -0.0703125 2.671875 -1 C 1.628906 -1.925781 0.992188 -3.148438 0.765625 -4.671875 L 3.046875 -5.15625 C 3.046875 -4.175781 3.378906 -3.359375 4.046875 -2.703125 C 4.710938 -2.046875 5.546875 -1.71875 6.546875 -1.71875 C 7.460938 -1.71875 8.242188 -2.050781 8.890625 -2.71875 C 9.546875 -3.394531 9.875 -4.238281 9.875 -5.25 C 9.875 -6.03125 9.632812 -6.675781 9.15625 -7.1875 C 8.6875 -7.695312 7.882812 -8.191406 6.75 -8.671875 L 5.515625 -9.203125 C 4.078125 -9.804688 3.0625 -10.472656 2.46875 -11.203125 C 1.875 -11.941406 1.578125 -12.796875 1.578125 -13.765625 C 1.578125 -15.109375 2.09375 -16.222656 3.125 -17.109375 C 4.15625 -17.992188 5.414062 -18.4375 6.90625 -18.4375 C 7.90625 -18.4375 8.800781 -18.203125 9.59375 -17.734375 C 10.394531 -17.265625 11.046875 -16.59375 11.546875 -15.71875 Z M 11.546875 -15.71875 "/></g></g></g><g fill="#9240b5" fill-opacity="1"><g transform="translate(774.224876, 34.917088)"><g><path d="M 6.46875 0.390625 C 5.382812 0.390625 4.382812 0.132812 3.46875 -0.375 C 2.5625 -0.894531 1.835938 -1.613281 1.296875 -2.53125 C 0.753906 -3.457031 0.484375 -4.472656 0.484375 -5.578125 C 0.484375 -6.679688 0.738281 -7.679688 1.25 -8.578125 C 1.769531 -9.472656 2.488281 -10.191406 3.40625 -10.734375 C 4.332031 -11.273438 5.351562 -11.546875 6.46875 -11.546875 C 7.601562 -11.546875 8.632812 -11.265625 9.5625 -10.703125 C 10.5 -10.148438 11.210938 -9.425781 11.703125 -8.53125 C 12.203125 -7.632812 12.453125 -6.648438 12.453125 -5.578125 C 12.453125 -4.546875 12.207031 -3.570312 11.71875 -2.65625 C 11.238281 -1.75 10.53125 -1.015625 9.59375 -0.453125 C 8.65625 0.109375 7.613281 0.390625 6.46875 0.390625 Z M 10.296875 -5.578125 C 10.296875 -6.660156 9.914062 -7.582031 9.15625 -8.34375 C 8.40625 -9.101562 7.5 -9.484375 6.4375 -9.484375 C 5.445312 -9.484375 4.566406 -9.101562 3.796875 -8.34375 C 3.023438 -7.582031 2.640625 -6.660156 2.640625 -5.578125 C 2.640625 -4.546875 3.015625 -3.632812 3.765625 -2.84375 C 4.523438 -2.0625 5.425781 -1.671875 6.46875 -1.671875 C 7.519531 -1.671875 8.421875 -2.054688 9.171875 -2.828125 C 9.921875 -3.609375 10.296875 -4.523438 10.296875 -5.578125 Z M 10.296875 -5.578125 "/></g></g></g><g fill="#9240b5" fill-opacity="1"><g transform="translate(787.155708, 34.917088)"><g><path d="M 7.046875 -20.796875 L 7.046875 -18.609375 L 6.328125 -18.921875 C 6.066406 -19.015625 5.828125 -19.0625 5.609375 -19.0625 C 5.097656 -19.0625 4.710938 -18.84375 4.453125 -18.40625 C 4.203125 -17.96875 4.078125 -17.226562 4.078125 -16.1875 L 4.078125 -11.203125 L 7.046875 -11.203125 L 7.046875 -9.203125 L 4.078125 -9.203125 L 4.078125 0 L 1.921875 0 L 1.921875 -9.203125 L 0.9375 -9.203125 L 0.9375 -11.203125 L 1.921875 -11.203125 L 1.921875 -16.765625 C 1.921875 -18.117188 2.210938 -19.175781 2.796875 -19.9375 C 3.390625 -20.695312 4.300781 -21.078125 5.53125 -21.078125 C 6.0625 -21.078125 6.566406 -20.984375 7.046875 -20.796875 Z M 7.046875 -20.796875 "/></g></g></g><g fill="#9240b5" fill-opacity="1"><g transform="translate(793.740856, 34.917088)"><g><path d="M 3.953125 -15.5 L 3.953125 -11.203125 L 6.0625 -11.203125 L 6.0625 -9.203125 L 3.953125 -9.203125 L 3.953125 0 L 1.796875 0 L 1.796875 -9.203125 L 0.625 -9.203125 L 0.625 -11.203125 L 1.796875 -11.203125 L 1.796875 -15.5 Z M 3.953125 -15.5 "/></g></g></g><g fill="#9240b5" fill-opacity="1"><g transform="translate(799.487901, 34.917088)"><g><path d="M 8.625 -11.828125 L 11.90625 -4.078125 L 15.15625 -11.203125 L 17.609375 -11.203125 L 11.90625 0.390625 L 8.625 -7.109375 L 5.3125 0.390625 L -0.390625 -11.203125 L 2.0625 -11.203125 L 5.3125 -4.078125 Z M 8.625 -11.828125 "/></g></g></g><g fill="#9240b5" fill-opacity="1"><g transform="translate(816.68111, 34.917088)"><g><path d="M 9.796875 -9.34375 L 9.84375 -9.34375 L 9.84375 -11.203125 L 12 -11.203125 L 12 0 L 9.84375 0 L 9.84375 -1.75 L 9.796875 -1.75 C 9.367188 -1.113281 8.828125 -0.597656 8.171875 -0.203125 C 7.523438 0.191406 6.796875 0.390625 5.984375 0.390625 C 4.390625 0.390625 3.097656 -0.1875 2.109375 -1.34375 C 1.117188 -2.507812 0.625 -3.953125 0.625 -5.671875 C 0.625 -6.773438 0.863281 -7.78125 1.34375 -8.6875 C 1.820312 -9.601562 2.457031 -10.304688 3.25 -10.796875 C 4.050781 -11.296875 4.941406 -11.546875 5.921875 -11.546875 C 6.734375 -11.546875 7.46875 -11.34375 8.125 -10.9375 C 8.789062 -10.539062 9.347656 -10.007812 9.796875 -9.34375 Z M 9.96875 -5.609375 C 9.96875 -6.816406 9.625 -7.785156 8.9375 -8.515625 C 8.25 -9.253906 7.367188 -9.625 6.296875 -9.625 C 5.296875 -9.625 4.457031 -9.234375 3.78125 -8.453125 C 3.113281 -7.671875 2.78125 -6.722656 2.78125 -5.609375 C 2.78125 -4.453125 3.113281 -3.484375 3.78125 -2.703125 C 4.457031 -1.921875 5.304688 -1.53125 6.328125 -1.53125 C 7.410156 -1.53125 8.285156 -1.910156 8.953125 -2.671875 C 9.628906 -3.429688 9.96875 -4.410156 9.96875 -5.609375 Z M 9.96875 -5.609375 "/></g></g></g><g fill="#9240b5" fill-opacity="1"><g transform="translate(829.995095, 34.917088)"><g><path d="M 8.6875 -11 L 7.71875 -9.03125 C 7.519531 -9.207031 7.304688 -9.328125 7.078125 -9.390625 C 6.847656 -9.453125 6.617188 -9.484375 6.390625 -9.484375 C 5.492188 -9.484375 4.832031 -9.160156 4.40625 -8.515625 C 3.988281 -7.878906 3.78125 -6.914062 3.78125 -5.625 L 3.78125 0 L 1.625 0 L 1.625 -11.203125 L 3.78125 -11.203125 L 3.78125 -9.390625 L 3.859375 -9.390625 C 4.128906 -10.054688 4.53125 -10.582031 5.0625 -10.96875 C 5.601562 -11.351562 6.222656 -11.546875 6.921875 -11.546875 C 7.210938 -11.546875 7.507812 -11.5 7.8125 -11.40625 C 8.125 -11.3125 8.414062 -11.175781 8.6875 -11 Z M 8.6875 -11 "/></g></g></g><g fill="#9240b5" fill-opacity="1"><g transform="translate(838.400141, 34.917088)"><g><path d="M 11.328125 -5.4375 L 11.328125 -5.25 L 2.78125 -5.25 C 2.8125 -4.15625 3.148438 -3.257812 3.796875 -2.5625 C 4.441406 -1.875 5.226562 -1.53125 6.15625 -1.53125 C 6.988281 -1.53125 7.648438 -1.722656 8.140625 -2.109375 C 8.640625 -2.503906 9.097656 -3.039062 9.515625 -3.71875 L 11.328125 -2.6875 C 10.804688 -1.707031 10.082031 -0.945312 9.15625 -0.40625 C 8.238281 0.125 7.226562 0.390625 6.125 0.390625 C 4.519531 0.390625 3.203125 -0.148438 2.171875 -1.234375 C 1.140625 -2.328125 0.625 -3.753906 0.625 -5.515625 C 0.625 -7.347656 1.109375 -8.8125 2.078125 -9.90625 C 3.054688 -11 4.390625 -11.546875 6.078125 -11.546875 C 7.710938 -11.546875 8.992188 -11.015625 9.921875 -9.953125 C 10.859375 -8.890625 11.328125 -7.382812 11.328125 -5.4375 Z M 9.171875 -6.875 C 9.046875 -7.738281 8.710938 -8.421875 8.171875 -8.921875 C 7.640625 -9.421875 6.9375 -9.671875 6.0625 -9.671875 C 5.25 -9.671875 4.550781 -9.40625 3.96875 -8.875 C 3.382812 -8.34375 3.023438 -7.675781 2.890625 -6.875 Z M 9.171875 -6.875 "/></g></g></g><g fill="#9240b5" fill-opacity="1"><g transform="translate(850.085783, 34.917088)"><g/></g></g><g fill="#9240b5" fill-opacity="1"><g transform="translate(857.006173, 34.917088)"><g><path d="M 11.421875 -18.0625 L 11.421875 -16 L 3.96875 -16 L 3.96875 -10.953125 L 11.203125 -10.953125 L 11.203125 -8.890625 L 3.96875 -8.890625 L 3.96875 -2.0625 L 11.421875 -2.0625 L 11.421875 0 L 1.71875 0 L 1.71875 -18.0625 Z M 11.421875 -18.0625 "/></g></g></g><g fill="#9240b5" fill-opacity="1"><g transform="translate(869.482031, 34.917088)"><g><path d="M 9.71875 -10.796875 L 9.71875 -8.03125 C 8.863281 -9.03125 7.796875 -9.53125 6.515625 -9.53125 C 5.492188 -9.53125 4.613281 -9.132812 3.875 -8.34375 C 3.144531 -7.550781 2.78125 -6.640625 2.78125 -5.609375 C 2.78125 -4.421875 3.144531 -3.457031 3.875 -2.71875 C 4.613281 -1.988281 5.539062 -1.625 6.65625 -1.625 C 7.28125 -1.625 7.835938 -1.75 8.328125 -2 C 8.828125 -2.257812 9.289062 -2.628906 9.71875 -3.109375 L 9.71875 -0.359375 C 9.207031 -0.0859375 8.703125 0.101562 8.203125 0.21875 C 7.710938 0.332031 7.191406 0.390625 6.640625 0.390625 C 4.972656 0.390625 3.550781 -0.179688 2.375 -1.328125 C 1.207031 -2.472656 0.625 -3.867188 0.625 -5.515625 C 0.625 -6.640625 0.894531 -7.664062 1.4375 -8.59375 C 1.976562 -9.519531 2.71875 -10.242188 3.65625 -10.765625 C 4.601562 -11.285156 5.632812 -11.546875 6.75 -11.546875 C 7.257812 -11.546875 7.773438 -11.484375 8.296875 -11.359375 C 8.816406 -11.242188 9.289062 -11.054688 9.71875 -10.796875 Z M 9.71875 -10.796875 "/></g></g></g><g fill="#9240b5" fill-opacity="1"><g transform="translate(880.042216, 34.917088)"><g><path d="M 6.46875 0.390625 C 5.382812 0.390625 4.382812 0.132812 3.46875 -0.375 C 2.5625 -0.894531 1.835938 -1.613281 1.296875 -2.53125 C 0.753906 -3.457031 0.484375 -4.472656 0.484375 -5.578125 C 0.484375 -6.679688 0.738281 -7.679688 1.25 -8.578125 C 1.769531 -9.472656 2.488281 -10.191406 3.40625 -10.734375 C 4.332031 -11.273438 5.351562 -11.546875 6.46875 -11.546875 C 7.601562 -11.546875 8.632812 -11.265625 9.5625 -10.703125 C 10.5 -10.148438 11.210938 -9.425781 11.703125 -8.53125 C 12.203125 -7.632812 12.453125 -6.648438 12.453125 -5.578125 C 12.453125 -4.546875 12.207031 -3.570312 11.71875 -2.65625 C 11.238281 -1.75 10.53125 -1.015625 9.59375 -0.453125 C 8.65625 0.109375 7.613281 0.390625 6.46875 0.390625 Z M 10.296875 -5.578125 C 10.296875 -6.660156 9.914062 -7.582031 9.15625 -8.34375 C 8.40625 -9.101562 7.5 -9.484375 6.4375 -9.484375 C 5.445312 -9.484375 4.566406 -9.101562 3.796875 -8.34375 C 3.023438 -7.582031 2.640625 -6.660156 2.640625 -5.578125 C 2.640625 -4.546875 3.015625 -3.632812 3.765625 -2.84375 C 4.523438 -2.0625 5.425781 -1.671875 6.46875 -1.671875 C 7.519531 -1.671875 8.421875 -2.054688 9.171875 -2.828125 C 9.921875 -3.609375 10.296875 -4.523438 10.296875 -5.578125 Z M 10.296875 -5.578125 "/></g></g></g><g fill="#9240b5" fill-opacity="1"><g transform="translate(892.973048, 34.917088)"><g><path d="M 7.734375 -9.578125 L 5.984375 -8.640625 C 5.859375 -8.910156 5.671875 -9.140625 5.421875 -9.328125 C 5.171875 -9.523438 4.878906 -9.625 4.546875 -9.625 C 4.242188 -9.625 3.972656 -9.515625 3.734375 -9.296875 C 3.492188 -9.085938 3.375 -8.832031 3.375 -8.53125 C 3.375 -8.195312 3.53125 -7.894531 3.84375 -7.625 C 4.164062 -7.363281 4.664062 -7.085938 5.34375 -6.796875 L 5.984375 -6.515625 C 6.867188 -6.128906 7.519531 -5.6875 7.9375 -5.1875 C 8.363281 -4.695312 8.578125 -4.078125 8.578125 -3.328125 C 8.578125 -2.285156 8.203125 -1.40625 7.453125 -0.6875 C 6.703125 0.03125 5.789062 0.390625 4.71875 0.390625 C 3.851562 0.390625 3.0625 0.160156 2.34375 -0.296875 C 1.625 -0.765625 1.125 -1.375 0.84375 -2.125 L 2.6875 -2.96875 C 2.90625 -2.550781 3.171875 -2.207031 3.484375 -1.9375 C 3.796875 -1.664062 4.207031 -1.53125 4.71875 -1.53125 C 5.175781 -1.53125 5.570312 -1.671875 5.90625 -1.953125 C 6.25 -2.242188 6.421875 -2.628906 6.421875 -3.109375 C 6.421875 -3.429688 6.335938 -3.6875 6.171875 -3.875 C 6.003906 -4.070312 5.671875 -4.304688 5.171875 -4.578125 L 3.515625 -5.46875 C 2.796875 -5.832031 2.253906 -6.222656 1.890625 -6.640625 C 1.535156 -7.054688 1.359375 -7.601562 1.359375 -8.28125 C 1.359375 -9.164062 1.6875 -9.929688 2.34375 -10.578125 C 3 -11.222656 3.773438 -11.546875 4.671875 -11.546875 C 5.359375 -11.546875 5.960938 -11.367188 6.484375 -11.015625 C 7.015625 -10.660156 7.429688 -10.179688 7.734375 -9.578125 Z M 7.734375 -9.578125 "/></g></g></g><g fill="#9240b5" fill-opacity="1"><g transform="translate(902.168309, 34.917088)"><g><path d="M 2.203125 -11.203125 L 5.984375 -4.09375 L 9.515625 -11.203125 L 11.921875 -11.203125 L 2.84375 6.421875 L 0.40625 6.421875 L 4.8125 -1.921875 L -0.3125 -11.203125 Z M 2.203125 -11.203125 "/></g></g></g><g fill="#9240b5" fill-opacity="1"><g transform="translate(913.758175, 34.917088)"><g><path d="M 7.734375 -9.578125 L 5.984375 -8.640625 C 5.859375 -8.910156 5.671875 -9.140625 5.421875 -9.328125 C 5.171875 -9.523438 4.878906 -9.625 4.546875 -9.625 C 4.242188 -9.625 3.972656 -9.515625 3.734375 -9.296875 C 3.492188 -9.085938 3.375 -8.832031 3.375 -8.53125 C 3.375 -8.195312 3.53125 -7.894531 3.84375 -7.625 C 4.164062 -7.363281 4.664062 -7.085938 5.34375 -6.796875 L 5.984375 -6.515625 C 6.867188 -6.128906 7.519531 -5.6875 7.9375 -5.1875 C 8.363281 -4.695312 8.578125 -4.078125 8.578125 -3.328125 C 8.578125 -2.285156 8.203125 -1.40625 7.453125 -0.6875 C 6.703125 0.03125 5.789062 0.390625 4.71875 0.390625 C 3.851562 0.390625 3.0625 0.160156 2.34375 -0.296875 C 1.625 -0.765625 1.125 -1.375 0.84375 -2.125 L 2.6875 -2.96875 C 2.90625 -2.550781 3.171875 -2.207031 3.484375 -1.9375 C 3.796875 -1.664062 4.207031 -1.53125 4.71875 -1.53125 C 5.175781 -1.53125 5.570312 -1.671875 5.90625 -1.953125 C 6.25 -2.242188 6.421875 -2.628906 6.421875 -3.109375 C 6.421875 -3.429688 6.335938 -3.6875 6.171875 -3.875 C 6.003906 -4.070312 5.671875 -4.304688 5.171875 -4.578125 L 3.515625 -5.46875 C 2.796875 -5.832031 2.253906 -6.222656 1.890625 -6.640625 C 1.535156 -7.054688 1.359375 -7.601562 1.359375 -8.28125 C 1.359375 -9.164062 1.6875 -9.929688 2.34375 -10.578125 C 3 -11.222656 3.773438 -11.546875 4.671875 -11.546875 C 5.359375 -11.546875 5.960938 -11.367188 6.484375 -11.015625 C 7.015625 -10.660156 7.429688 -10.179688 7.734375 -9.578125 Z M 7.734375 -9.578125 "/></g></g></g><g fill="#9240b5" fill-opacity="1"><g transform="translate(922.953436, 34.917088)"><g><path d="M 3.953125 -15.5 L 3.953125 -11.203125 L 6.0625 -11.203125 L 6.0625 -9.203125 L 3.953125 -9.203125 L 3.953125 0 L 1.796875 0 L 1.796875 -9.203125 L 0.625 -9.203125 L 0.625 -11.203125 L 1.796875 -11.203125 L 1.796875 -15.5 Z M 3.953125 -15.5 "/></g></g></g><g fill="#9240b5" fill-opacity="1"><g transform="translate(928.70048, 34.917088)"><g><path d="M 11.328125 -5.4375 L 11.328125 -5.25 L 2.78125 -5.25 C 2.8125 -4.15625 3.148438 -3.257812 3.796875 -2.5625 C 4.441406 -1.875 5.226562 -1.53125 6.15625 -1.53125 C 6.988281 -1.53125 7.648438 -1.722656 8.140625 -2.109375 C 8.640625 -2.503906 9.097656 -3.039062 9.515625 -3.71875 L 11.328125 -2.6875 C 10.804688 -1.707031 10.082031 -0.945312 9.15625 -0.40625 C 8.238281 0.125 7.226562 0.390625 6.125 0.390625 C 4.519531 0.390625 3.203125 -0.148438 2.171875 -1.234375 C 1.140625 -2.328125 0.625 -3.753906 0.625 -5.515625 C 0.625 -7.347656 1.109375 -8.8125 2.078125 -9.90625 C 3.054688 -11 4.390625 -11.546875 6.078125 -11.546875 C 7.710938 -11.546875 8.992188 -11.015625 9.921875 -9.953125 C 10.859375 -8.890625 11.328125 -7.382812 11.328125 -5.4375 Z M 9.171875 -6.875 C 9.046875 -7.738281 8.710938 -8.421875 8.171875 -8.921875 C 7.640625 -9.421875 6.9375 -9.671875 6.0625 -9.671875 C 5.25 -9.671875 4.550781 -9.40625 3.96875 -8.875 C 3.382812 -8.34375 3.023438 -7.675781 2.890625 -6.875 Z M 9.171875 -6.875 "/></g></g></g><g fill="#9240b5" fill-opacity="1"><g transform="translate(940.386123, 34.917088)"><g><path d="M 9.828125 -9.5625 C 10.171875 -10.164062 10.65625 -10.644531 11.28125 -11 C 11.90625 -11.363281 12.566406 -11.546875 13.265625 -11.546875 C 14.492188 -11.546875 15.421875 -11.140625 16.046875 -10.328125 C 16.671875 -9.523438 16.984375 -8.359375 16.984375 -6.828125 L 16.984375 0 L 14.828125 0 L 14.828125 -6.4375 C 14.828125 -7.53125 14.660156 -8.332031 14.328125 -8.84375 C 13.992188 -9.363281 13.46875 -9.625 12.75 -9.625 C 11.925781 -9.625 11.304688 -9.316406 10.890625 -8.703125 C 10.484375 -8.085938 10.28125 -7.0625 10.28125 -5.625 L 10.28125 0 L 8.125 0 L 8.125 -6.0625 C 8.125 -7.320312 7.957031 -8.226562 7.625 -8.78125 C 7.300781 -9.34375 6.78125 -9.625 6.0625 -9.625 C 5.25 -9.625 4.628906 -9.316406 4.203125 -8.703125 C 3.773438 -8.085938 3.5625 -7.0625 3.5625 -5.625 L 3.5625 0 L 1.40625 0 L 1.40625 -11.203125 L 3.5625 -11.203125 L 3.5625 -9.796875 L 3.609375 -9.796875 C 3.929688 -10.296875 4.359375 -10.710938 4.890625 -11.046875 C 5.429688 -11.378906 6 -11.546875 6.59375 -11.546875 C 7.3125 -11.546875 7.9375 -11.367188 8.46875 -11.015625 C 9 -10.660156 9.453125 -10.175781 9.828125 -9.5625 Z M 9.828125 -9.5625 "/></g></g></g><g fill="#9240b5" fill-opacity="1"><g transform="translate(958.75269, 34.917088)"><g><path d="M 7.734375 -9.578125 L 5.984375 -8.640625 C 5.859375 -8.910156 5.671875 -9.140625 5.421875 -9.328125 C 5.171875 -9.523438 4.878906 -9.625 4.546875 -9.625 C 4.242188 -9.625 3.972656 -9.515625 3.734375 -9.296875 C 3.492188 -9.085938 3.375 -8.832031 3.375 -8.53125 C 3.375 -8.195312 3.53125 -7.894531 3.84375 -7.625 C 4.164062 -7.363281 4.664062 -7.085938 5.34375 -6.796875 L 5.984375 -6.515625 C 6.867188 -6.128906 7.519531 -5.6875 7.9375 -5.1875 C 8.363281 -4.695312 8.578125 -4.078125 8.578125 -3.328125 C 8.578125 -2.285156 8.203125 -1.40625 7.453125 -0.6875 C 6.703125 0.03125 5.789062 0.390625 4.71875 0.390625 C 3.851562 0.390625 3.0625 0.160156 2.34375 -0.296875 C 1.625 -0.765625 1.125 -1.375 0.84375 -2.125 L 2.6875 -2.96875 C 2.90625 -2.550781 3.171875 -2.207031 3.484375 -1.9375 C 3.796875 -1.664062 4.207031 -1.53125 4.71875 -1.53125 C 5.175781 -1.53125 5.570312 -1.671875 5.90625 -1.953125 C 6.25 -2.242188 6.421875 -2.628906 6.421875 -3.109375 C 6.421875 -3.429688 6.335938 -3.6875 6.171875 -3.875 C 6.003906 -4.070312 5.671875 -4.304688 5.171875 -4.578125 L 3.515625 -5.46875 C 2.796875 -5.832031 2.253906 -6.222656 1.890625 -6.640625 C 1.535156 -7.054688 1.359375 -7.601562 1.359375 -8.28125 C 1.359375 -9.164062 1.6875 -9.929688 2.34375 -10.578125 C 3 -11.222656 3.773438 -11.546875 4.671875 -11.546875 C 5.359375 -11.546875 5.960938 -11.367188 6.484375 -11.015625 C 7.015625 -10.660156 7.429688 -10.179688 7.734375 -9.578125 Z M 7.734375 -9.578125 "/></g></g></g></svg>